<svg xmlns="http://www.w3.org/2000/svg" width="60" height="60" viewBox="0 0 60 60" fill="none">
    <path
        d="M43.1606 21.7662V26.2484C43.1606 30.8894 39.3994 34.6505 34.7584 34.6505H25.2381C20.5971 34.6505 16.8359 30.8894 16.8359 26.2484V21.7662M38.1066 24.5647H29.9967C28.6054 24.5647 27.4777 23.437 27.4777 22.0457C27.4777 20.6543 28.6054 19.5266 29.9967 19.5266H40.6384C42.0298 19.5266 43.1575 20.6543 43.1575 22.0457M26.077 22.3252C24.3744 22.3252 22.9957 20.9466 22.9957 19.2439V14.7617C22.9957 13.059 24.3744 11.6804 26.077 11.6804C27.7797 11.6804 29.1584 13.059 29.1584 14.7617V19.2439M29.1583 17.5635V13.0813C29.1583 11.3787 30.5369 10 32.2396 10C33.9423 10 35.3209 11.3787 35.3209 13.0813V17.5635M35.3172 18.1257V13.6435C35.3172 11.9409 36.6958 10.5622 38.3985 10.5622C40.1011 10.5622 41.4798 11.9409 41.4798 13.6435V18.6848M33.8278 24.9079C33.8278 24.9079 29.641 25.3685 29.641 30.3749M22.4358 34.4187V50M36.9978 34.4187V50M29.7173 41.369V49.9999M19.9157 12.8051C21.6166 12.8051 22.9954 14.1846 22.9954 15.8864V20.3654C22.9954 22.0672 21.6166 23.4467 19.9157 23.4467C18.2148 23.4467 16.8359 22.0672 16.8359 20.3654V15.8864C16.8359 14.1846 18.2148 12.8051 19.9157 12.8051Z"
         stroke-linecap="round" stroke-linejoin="round" />
</svg>