<svg xmlns="http://www.w3.org/2000/svg" width="60" height="60" viewBox="0 0 60 60" fill="none">
    <path
        d="M14.0203 14.4775H20.8701M17.6728 36.8462V45.5219M21.7056 30.457V45.5218M25.7385 30.457V45.5218M29.7713 30.457V45.5218M33.8042 30.457V45.5218M37.8371 30.457V45.5218M41.8699 30.457V45.5218M11.6511 18.1295H48.3489C49.8131 18.1295 51 19.3164 51 20.7806V42.8708C51 44.335 49.8131 45.5219 48.3489 45.5219H11.6511C10.1869 45.5219 9 44.335 9 42.8708V20.7806C9 19.3164 10.1869 18.1295 11.6511 18.1295ZM14.4353 29.9996H45.1118C45.8439 29.9996 46.4374 30.5931 46.4374 31.3252V44.1963C46.4374 44.9283 45.8439 45.5218 45.1118 45.5218H14.4353C13.7032 45.5218 13.1098 44.9283 13.1098 44.1963V31.3252C13.1098 30.5931 13.7032 29.9996 14.4353 29.9996ZM15.3459 22.2387H16.3466C17.0787 22.2387 17.6722 22.8322 17.6722 23.5643V24.5651C17.6722 25.2971 17.0787 25.8906 16.3466 25.8906H15.3459C14.6138 25.8906 14.0203 25.2971 14.0203 24.5651V23.5643C14.0203 22.8322 14.6138 22.2387 15.3459 22.2387ZM22.1955 22.2387H23.1963C23.9283 22.2387 24.5218 22.8322 24.5218 23.5643V24.5651C24.5218 25.2971 23.9283 25.8906 23.1963 25.8906H22.1955C21.4634 25.8906 20.8699 25.2971 20.8699 24.5651V23.5643C20.8699 22.8322 21.4634 22.2387 22.1955 22.2387ZM32.0317 20.8701H44.4024C44.7684 20.8701 45.0651 21.1668 45.0651 21.5329V26.1424C45.0651 26.5085 44.7684 26.8052 44.4024 26.8052H32.0317C31.6656 26.8052 31.3689 26.5085 31.3689 26.1424V21.5329C31.3689 21.1668 31.6656 20.8701 32.0317 20.8701ZM17.2185 29.9996H18.1331V36.3921H17.2185V29.9996ZM21.3272 29.9996H22.2419V36.3921H21.3272V29.9996ZM33.1941 29.9996H34.1087V36.3921H33.1941V29.9996ZM37.3039 29.9996H38.2185V36.3921H37.3039V29.9996ZM41.4126 29.9996H42.3272V36.3921H41.4126V29.9996Z"
         stroke-linecap="round" stroke-linejoin="round" />
</svg>