<svg xmlns="http://www.w3.org/2000/svg" width="60" height="60" viewBox="0 0 60 60" fill="none">
    <path
        d="M50 22.9254L48.1495 20.3188M46.2992 17.7091L44.4486 15.1025M18.0758 42.8765L16.2253 40.2699M14.375 37.6633L12.5245 35.0568M45.2584 26.2279L43.4079 23.6213M41.5542 21.0148L39.7037 18.4082M47.2607 24.4755L42.0286 16.7886M20.2112 41.3233L14.9822 33.6364M15.3334 44.4264L10.1044 36.7396M44.7964 33.6807L42.968 36.3031M41.1397 38.9255L39.3113 41.5479M49.5098 37.0275L47.6814 39.6499M45.8498 42.2754L44.0214 44.8978M47.2005 35.3888L45.3689 38.0112M43.5406 40.6336L41.7122 43.256M15.3871 15.634L10 23.3619M17.7534 17.282L12.3663 25.01M20.1163 18.9302L14.7292 26.655M39.6117 28.7522C39.1341 26.5569 37.1823 24.9183 34.8446 24.9183C32.1495 24.9183 29.9668 27.101 29.9668 29.7961C29.9668 32.4913 27.7841 34.674 25.089 34.674C22.3938 34.674 20.3503 32.6305 20.2174 30.0524C20.2206 29.6095 20.2617 29.1825 20.325 28.7617V28.7522C21.0431 24.0705 25.0858 20.4833 29.9699 20.4833C34.8541 20.4833 38.8968 24.0705 39.6149 28.7522H39.6117ZM20.322 28.7617C20.2587 29.1824 20.2208 29.6095 20.2144 30.0492C20.2113 29.9638 20.2113 29.8815 20.2113 29.7961C20.2113 29.4418 20.2524 29.097 20.322 28.7617ZM39.7226 30.239C39.7226 35.6261 35.3541 39.9947 29.9669 39.9947C24.5798 39.9947 20.2113 35.6261 20.2113 30.239C20.2113 30.1757 20.2113 30.1156 20.2144 30.0524C20.3473 32.6273 22.4762 34.674 25.0859 34.674C27.6957 34.674 29.9638 32.4913 29.9638 29.7961C29.9638 27.101 32.1465 24.9183 34.8416 24.9183C37.1793 24.9183 39.1279 26.5601 39.6087 28.7523V28.7617C39.672 29.1825 39.7099 29.6095 39.7163 30.0492C39.7194 30.1156 39.7194 30.1789 39.7194 30.239H39.7226Z"
         stroke-linecap="round" stroke-linejoin="round" />
</svg>