<svg width="60" height="60" viewBox="0 0 60 60" fill="none" xmlns="http://www.w3.org/2000/svg">
    <path
        d="M16.538 27.367V49.7356V45.3889M16.538 45.3889L12.079 49.8386M16.538 45.3889L21.0452 49.8867M45.0882 27.4769V49.8489V45.4988M45.0882 45.4988L40.6326 49.9485M45.0882 45.4988L49.5954 50M16.5621 19.9783V16.3046M45.1122 19.9783V16.3046M40.1818 15.46H49.5954M40.1818 12.7888H49.5954M11.6317 15.46H21.0452M11.6317 12.7888H21.0452M44.8886 11V12.4283M16.3384 11V12.4283M25.9068 21.2453H35.4889M30.6961 26.234V21.2453M25.1911 47.2121L23.9697 50M36.4626 47.2121L37.6805 50M41.4101 38.0518C41.4101 43.9528 36.6164 48.7365 30.703 48.7365C24.7896 48.7365 19.9958 43.9528 19.9958 38.0518C19.9958 32.1507 24.7896 27.367 30.703 27.367C36.6164 27.367 41.4101 32.1507 41.4101 38.0518ZM38.5097 38.0518C38.5097 42.3543 35.0145 45.8422 30.703 45.8422C26.3914 45.8422 22.8962 42.3543 22.8962 38.0518C22.8962 33.7493 26.3914 30.2614 30.703 30.2614C35.0145 30.2614 38.5097 33.7493 38.5097 38.0518ZM13.527 20.1798L22.2147 22.5141C22.9487 22.7113 23.3835 23.4649 23.1858 24.1973L22.3933 27.1347C22.1956 27.8671 21.4405 28.301 20.7065 28.1038L12.0188 25.7694C11.2848 25.5722 10.8501 24.8186 11.0477 24.0862L11.8402 21.1488C12.0379 20.4164 12.793 19.9826 13.527 20.1798ZM48.9812 25.7689L40.2935 28.1032C39.5595 28.3004 38.8044 27.8666 38.6067 27.1342L37.8142 24.1968C37.6165 23.4644 38.0513 22.7108 38.7853 22.5136L47.473 20.1792C48.207 19.982 48.9621 20.4159 49.1597 21.1483L49.9523 24.0857C50.1499 24.8181 49.7152 25.5717 48.9812 25.7689Z"
         stroke-linecap="round" stroke-linejoin="round" />
</svg>