<svg xmlns="http://www.w3.org/2000/svg" width="60" height="60" viewBox="0 0 60 60" fill="none">
  <path
    d="M15.0686 25.2396L15.2785 25.8869C15.5772 26.8116 16.5232 27.3628 17.4728 27.1672L19.7454 26.7013C20.663 26.5128 21.577 27.0178 21.9078 27.8927L21.9362 27.971C22.3417 29.0486 21.7122 30.2365 20.5919 30.4997L15.8511 31.6164C15.1006 31.7942 14.3146 31.499 13.8665 30.8731L11.5761 27.6793C10.5234 26.2141 10.495 24.2473 11.4979 22.75C12.2554 21.6191 13.5038 20.9113 14.8623 20.8402L20.535 20.5415C21.2747 20.5023 21.9291 20.0364 22.203 19.3465L23.9919 14.8795C24.344 13.9939 25.2971 13.5067 26.2218 13.7379L26.4921 13.8054C27.5413 14.0686 28.1637 15.1534 27.8578 16.1918L25.5603 22.3837L24.1306 25.2396M15.8012 34.1164L16.4698 37.8401C16.4983 38.0072 16.484 38.1779 16.4271 38.338L13.1836 47.1439M18.0742 47.1443L21.46 40.8777C21.5489 40.7177 21.5845 40.5327 21.5703 40.3513L21.2359 36.1404C21.1719 35.3367 22.0753 34.821 22.7332 35.2869L25.55 37.275C25.8487 37.4848 26.0017 37.8476 25.9412 38.2103L24.6111 46.1911M27.4703 33.3342L30.7174 37.1645C30.9201 37.4064 30.9912 37.73 30.9094 38.0359L28.9036 45.2378M42.7204 29.3012L41.2801 23.8099H43.0868C44.0541 23.8099 44.929 24.3967 45.2918 25.293L45.9284 26.8614C46.3943 28.0101 47.888 28.3018 48.7523 27.4091C49.2502 26.8934 49.3782 26.1252 49.0723 25.4779L48.4393 24.1407C46.7357 20.5522 42.8805 18.5001 38.9505 19.094L36.6388 19.4425C33.2175 19.9618 30.3936 22.3909 29.3764 25.6984L28.121 26.4595C26.7446 27.2917 26.7802 29.3047 28.1886 30.0871C28.8501 30.4535 29.6539 30.4357 30.3011 30.0445L32.7124 28.5721L34.6187 25.2396L35.4225 30.6846L33.1037 39.2878M39.3734 47.3824C39.3734 48.8281 38.2015 50 36.7559 50C35.3102 50 34.1383 48.8281 34.1383 47.3824C34.1383 45.9368 35.3102 44.7648 36.7559 44.7648C38.2015 44.7648 39.3734 45.9368 39.3734 47.3824ZM39.3734 47.3824L39.3742 35.7171L48.422 32.0574V43.3351M39.3742 39.7643L48.422 36.2256M19.3719 15.0004C19.3719 16.9725 17.7733 18.5711 15.8012 18.5711C13.8291 18.5711 12.2305 16.9725 12.2305 15.0004C12.2305 13.0284 13.8291 11.4297 15.8012 11.4297C17.7733 11.4297 19.3719 13.0284 19.3719 15.0004ZM39.3735 13.5707C39.3735 15.5428 37.7748 17.1415 35.8028 17.1415C33.8307 17.1415 32.232 15.5428 32.232 13.5707C32.232 11.5987 33.8307 10 35.8028 10C37.7748 10 39.3735 11.5987 39.3735 13.5707ZM48.4211 43.0967C48.4211 44.5423 47.2492 45.7143 45.8035 45.7143C44.3579 45.7143 43.1859 44.5423 43.1859 43.0967C43.1859 41.651 44.3579 40.4791 45.8035 40.4791C47.2492 40.4791 48.4211 41.651 48.4211 43.0967Z"
    stroke-linecap="round" stroke-linejoin="round" />
</svg>