<svg width="40" height="40" viewBox="0 0 40 40" fill="none" xmlns="http://www.w3.org/2000/svg">
<path d="M21.2524 16.7321C21.1881 16.6705 21.1209 16.6118 21.0538 16.553C20.1305 15.7528 18.9777 15.252 17.7466 15.1233L17.0248 15.0477C16.3029 14.9722 15.5811 15.1932 15.0215 15.6577L14.7305 15.8983C14.3136 16.2452 14.0142 16.7069 13.866 17.2273L13.5974 18.1674C13.5302 18.4024 13.3903 18.6123 13.2001 18.769L12.758 19.1299C12.2236 19.5664 11.5549 19.8042 10.8638 19.8042H10.3266C8.49678 19.7342 6.70893 20.347 5.38272 21.6732C2.68834 24.3676 2.92617 28.9757 5.91432 31.9638C8.90248 34.952 13.5078 35.1898 16.205 32.4954C16.8569 31.8435 17.3354 31.0797 17.6459 30.2543V30.2487C17.8614 29.6752 17.9453 28.7547 17.9761 27.9908C18.0096 27.1403 18.3986 26.3457 19.0533 25.8001L19.1596 25.7105C19.375 25.5315 19.6464 25.4308 19.929 25.4308H21.2776C21.8735 25.4308 22.4499 25.2349 22.9228 24.8712C23.5859 24.362 23.972 23.5729 23.972 22.7364V22.0537C23.972 20.9821 23.6866 19.9385 23.1522 19.0264" stroke="#4D4D4D" stroke-linecap="round" stroke-linejoin="round"/>
<path d="M23.9766 25.7773L27.0011 29.6328" stroke="#4D4D4D" stroke-linecap="round" stroke-linejoin="round"/>
<path d="M11.6953 10.1318L14.5212 13.7299" stroke="#4D4D4D" stroke-linecap="round" stroke-linejoin="round"/>
<path d="M32.828 11.4351L23.1305 19.0454L19.2246 22.1091C18.6371 22.5708 17.7893 22.4672 17.3277 21.8797C16.866 21.2921 16.9695 20.4444 17.5571 19.9827L31.1605 9.31152L32.828 11.4351Z" stroke="#4D4D4D" stroke-linecap="round" stroke-linejoin="round"/>
<path d="M28.5 8.93164L29.4009 10.1319" stroke="#4D4D4D" stroke-linecap="round" stroke-linejoin="round"/>
<path d="M31.5 13.1309L32.4009 14.3312" stroke="#4D4D4D" stroke-linecap="round" stroke-linejoin="round"/>
<path d="M26.1016 10.7305L27.0025 11.9308" stroke="#4D4D4D" stroke-linecap="round" stroke-linejoin="round"/>
<path d="M29.1016 14.9297L29.9997 16.13" stroke="#4D4D4D" stroke-linecap="round" stroke-linejoin="round"/>
<path d="M31.1562 9.31192L32.6979 7.12956L35.7 5.62988L37.4991 7.73111L35.3979 10.1317L32.6979 11.3292" stroke="#4D4D4D" stroke-linecap="round" stroke-linejoin="round"/>
<path d="M13.4962 22.7302C13.0681 22.3022 12.3882 22.2602 11.9098 22.6323L9.53437 24.4789C9.05593 24.851 8.37604 24.8091 7.94796 24.381L7.79688 24.2299" stroke="#4D4D4D" stroke-linecap="round" stroke-linejoin="round"/>
<path d="M12.4012 29.689C12.0991 29.163 12.239 28.4943 12.723 28.1306L15.1292 26.3232C15.6132 25.9594 15.7531 25.2907 15.451 24.7647L15.3446 24.5801" stroke="#4D4D4D" stroke-linecap="round" stroke-linejoin="round"/>
<path d="M3.36273 33.307L8.97532 29.8013C9.25231 29.6278 9.32226 29.2529 9.1264 28.9899L8.45211 28.089C8.25626 27.8259 7.87574 27.7896 7.63232 28.0078L2.69403 32.4145C2.18202 32.8706 2.78077 33.6708 3.36273 33.307Z" stroke="#4D4D4D" stroke-linecap="round" stroke-linejoin="round"/>
</svg>
