<svg xmlns="http://www.w3.org/2000/svg" width="60" height="60" viewBox="0 0 60 60" fill="none">
    <path
        d="M22.3481 30.0141L14.6953 33.1645V50H45.3002V33.1645L38.044 30.0141M22.7978 49.3693V21.7493L29.9978 18.5146M29.9978 18.5146L37.201 21.462V49.6034M29.9978 18.5146L29.9977 10M14.6953 36.1275L22.3481 33.1644M37.201 33.1644L44.8506 36.3148M22.7978 24.8497L29.9978 21.9147L36.2987 24.1628M26.0668 49.6034V40.7454C26.0668 38.5442 27.8496 36.7613 30.0508 36.7613C32.2521 36.7613 34.0349 38.5442 34.0349 40.7454V49.6034M26.8473 13.3627H33.0264M29.9979 24.8497L27.2971 29.5644V34.0606H33.0265V29.4552L29.9979 24.8497ZM18.6262 37.6575L17.0276 40.8266V43.8459H20.4184V40.7517L18.6262 37.6575ZM41.1319 37.6575L39.5333 40.8266V43.8459H42.9241V40.7517L41.1319 37.6575Z"
         stroke-linecap="round" stroke-linejoin="round" />
</svg>