<svg width="60" height="60" viewBox="0 0 60 60" fill="none" xmlns="http://www.w3.org/2000/svg">
<path d="M38.7551 13L24.5326 42.4544M34.9142 21.5523C34.9142 21.5523 37.1764 20.6947 39.6362 21.9158C41.7537 22.9675 40.9985 26.7543 43.7689 28.0601C45.9005 29.0659 48.8897 28.0601 48.8897 28.0601M32.7901 25.7862C32.7901 25.7862 35.0523 24.9286 37.5121 26.1497C39.6296 27.2014 38.8744 30.9882 41.6447 32.2939C43.7764 33.2998 46.7656 32.2939 46.7656 32.2939M42.6788 18.4696C42.6788 18.4696 37.872 30.4934 36.7462 31.3652M46.7718 24.093C46.7718 24.093 40.5676 33.9993 40.9205 36.4697M21.2491 13L35.4716 42.4544M25.0819 21.5523C25.0819 21.5523 22.8197 20.6947 20.3599 21.9158C18.2424 22.9675 18.9976 26.7543 16.2272 28.0601C14.0956 29.0659 11.1064 28.0601 11.1064 28.0601M27.206 25.7862C27.206 25.7862 24.9438 24.9286 22.484 26.1497C20.3665 27.2014 21.1217 30.9882 18.3513 32.2939C16.2197 33.2998 13.2305 32.2939 13.2305 32.2939M17.3106 18.4696C17.3106 18.4696 22.1173 30.4934 23.2431 31.3652M13.2305 24.093C13.2305 24.093 19.4348 33.9993 19.0819 36.4697M51 23.7635L45.1557 36.8214C45.1557 36.8214 41.6971 38.1201 39.4632 36.8214C37.0386 35.4097 37.7445 31.8806 36.1034 30.5289C34.2577 29.0078 30.3473 30.4125 30.3473 30.4125L36.8692 16.9064C36.8692 16.9064 39.1561 16.0029 41.6442 17.2875C43.7829 18.3957 43.0206 22.3871 45.8227 23.7635C47.979 24.8223 51 23.7635 51 23.7635ZM9 23.7648L14.8443 36.8227C14.8443 36.8227 18.3029 38.1215 20.5368 36.8227C22.9614 35.4111 22.2555 31.8819 23.8966 30.5302C25.7423 29.0092 29.6527 30.4138 29.6527 30.4138L23.1308 16.9041C23.1308 16.9041 20.8439 16.0007 18.3558 17.2853C16.2171 18.3934 16.9794 22.3849 14.1773 23.7613C12.021 24.82 9 23.7613 9 23.7613V23.7648Z"  stroke-width="1.5" stroke-linecap="round" stroke-linejoin="round"/>
</svg>
