<svg width="60" height="60" viewBox="0 0 60 60" fill="none" xmlns="http://www.w3.org/2000/svg">
    <path
        d="M28.4169 29.1932H33.8277L33.4445 28.2416C33.2107 27.6602 32.6423 27.2802 32.009 27.2802H30.2357C29.6023 27.2802 29.034 27.6602 28.8001 28.2416L28.4169 29.1932Z"
    />
    <path fill-rule="evenodd" clip-rule="evenodd"
        d="M21.4437 18.4315V14.7434C21.4437 11.022 24.4615 8.00261 28.1823 8H34.0559C37.779 8 40.7994 11.0204 40.7994 14.7434V18.4315H46.7394C47.1399 18.4315 47.4647 18.7562 47.4647 19.1568C47.4647 19.5573 47.1399 19.882 46.7394 19.882H42.2008C41.8976 20.3303 41.5294 20.9594 41.9605 21.4109C41.9937 21.446 42.027 21.4806 42.0602 21.5149C42.2444 21.706 42.423 21.8911 42.5386 22.1416C42.675 22.4372 42.7367 22.7652 42.727 23.0932C42.7042 23.7785 42.4282 24.4248 41.9443 24.9217C41.5548 25.3216 41.0665 25.5932 40.5639 25.8262C39.9555 28.7592 38.2245 31.2505 35.8775 32.6171L37.8343 34.2631L43.5778 35.6594C43.9029 35.7385 44.1317 36.0296 44.1317 36.3642V46.8806C44.1317 47.2811 43.807 47.6058 43.4064 47.6058H39.3564C38.9559 47.6058 38.6312 47.2811 38.6312 46.8806C38.6312 46.48 38.9559 46.1553 39.3564 46.1553H42.6812V36.9342L37.7619 35.7383L31.8775 42.573C31.7431 42.7291 31.5488 42.8206 31.3429 42.8249C31.137 42.8292 30.939 42.7457 30.7983 42.5953L24.3924 35.7492L20.3936 36.909V38.0368C20.3936 38.4373 20.0688 38.7621 19.6683 38.7621C19.2677 38.7621 18.943 38.4373 18.943 38.0368V36.3642C18.943 36.0414 19.1563 35.7575 19.4663 35.6676L24.2961 34.2668L26.421 32.642C24.2374 31.3876 22.5795 29.1632 21.8547 26.5167C21.78 26.2438 21.8715 25.9646 22.0679 25.7869C21.5338 25.5424 21.0147 25.2582 20.6085 24.8249C20.1505 24.3377 19.881 23.7011 19.8582 23.0321C19.8485 22.7041 19.9037 22.3923 20.0466 22.0805C20.1509 21.853 20.3105 21.686 20.475 21.5139C20.5359 21.4502 20.5975 21.3857 20.6572 21.3172C21.0308 20.8883 20.7135 20.3107 20.4286 19.882H15.921C15.5205 19.882 15.1958 19.5573 15.1958 19.1568C15.1958 18.7562 15.5205 18.4315 15.921 18.4315H21.4437ZM22.8942 14.7434C22.8942 11.8215 25.2652 9.45055 28.1871 9.45055H34.0559C36.9778 9.45055 39.3488 11.8215 39.3488 14.7434V18.4315H22.8942V14.7434ZM23.1847 25.9662C23.214 26.0177 23.2374 26.0737 23.2538 26.1336C24.2482 29.7645 27.1656 32.2903 30.5016 32.2903H31.752C35.1352 32.2903 38.0892 29.6913 39.0393 25.9822C38.8159 25.8577 38.6769 25.57 38.8243 25.3211C38.8136 25.3201 38.8008 25.319 38.7856 25.318C38.6622 25.3116 38.5258 25.2888 38.4024 25.2661C38.1815 25.2239 37.9607 25.1492 37.7625 25.042C37.3078 24.7984 37.0058 24.3664 36.9603 23.8533C36.952 23.7562 36.9578 23.6552 36.9636 23.5561C36.9802 23.2705 36.9959 23.0003 36.668 22.8822C36.3933 22.7854 36.0855 22.8057 35.7966 22.8247L35.7619 22.827C35.6269 22.8368 35.4915 22.848 35.3558 22.8593C34.7698 22.908 34.1783 22.9573 33.5956 22.8887C32.0951 22.7085 32.0783 21.1325 32.0919 19.8825H30.1678C30.182 20.5279 30.1942 21.1918 29.9851 21.7717C29.7123 22.5284 29.1569 22.837 28.384 22.876C27.9322 22.8988 27.4817 22.8634 27.0317 22.828C26.7765 22.808 26.5215 22.7879 26.2664 22.7785C26.0033 22.7688 25.6396 22.759 25.4187 22.9279C25.2669 23.046 25.2806 23.2348 25.2933 23.4098C25.2953 23.4369 25.2972 23.4637 25.2986 23.4898C25.3083 23.7236 25.3018 23.9607 25.2271 24.1816C25.0842 24.6038 24.7432 24.9123 24.3405 25.0845C24.1261 25.1754 23.915 25.2306 23.6844 25.2598C23.6665 25.2619 23.6359 25.2692 23.6011 25.2774C23.5483 25.2899 23.4857 25.3047 23.4419 25.3077C23.5779 25.5638 23.4204 25.8551 23.1847 25.9662ZM40.0064 24.9291C39.9216 24.9119 39.8373 24.9102 39.7564 24.9221C39.7138 24.8281 39.6552 24.7406 39.5813 24.6652C39.3623 24.4422 39.0927 24.4002 38.8183 24.3574C38.6532 24.3317 38.4863 24.3057 38.3277 24.2398C37.9268 24.0727 37.9325 23.7979 37.9396 23.4652C37.9414 23.3774 37.9433 23.2856 37.9379 23.1907C37.9087 22.7101 37.6619 22.2943 37.2299 22.0702C36.6592 21.7738 36.0011 21.8295 35.3744 21.8825C35.2664 21.8916 35.1594 21.9007 35.0539 21.9079C34.6609 21.9338 34.2647 21.9598 33.8717 21.9403C33.7353 21.9338 33.6216 21.9273 33.4949 21.8884C33.4519 21.8759 33.4421 21.877 33.4391 21.8774C33.4385 21.8774 33.4382 21.8775 33.438 21.8774C33.4365 21.8767 33.4372 21.8713 33.4007 21.8397C33.3618 21.8039 33.326 21.765 33.2968 21.7227C33.0825 21.4174 33.0662 20.9725 33.0532 20.6152C33.0458 20.3721 33.0511 20.129 33.0564 19.8859L33.0565 19.8825H40.0741C40.0826 19.8825 40.0912 19.8823 40.0997 19.882H41.0731C40.8849 20.2543 40.7636 20.6533 40.8043 21.0828C40.8368 21.4303 40.9602 21.7356 41.1843 22.002C41.2396 22.0674 41.3003 22.1272 41.3605 22.1866C41.4947 22.3189 41.6269 22.4492 41.6942 22.6353C41.8696 23.1289 41.6844 23.7363 41.3564 24.1228C41.0306 24.5082 40.583 24.7547 40.1258 24.9642C40.0877 24.9494 40.0478 24.9376 40.0064 24.9291ZM29.2007 19.8825H22.169L22.1561 19.8824L22.1434 19.882H21.5392C21.7167 20.2543 21.8222 20.6517 21.7712 21.0834C21.7322 21.4277 21.5991 21.7135 21.3717 21.9733C21.3215 22.031 21.2675 22.0844 21.2139 22.1373C21.0835 22.266 20.9555 22.3923 20.891 22.5741C20.7092 23.084 20.9105 23.7109 21.2613 24.1006C21.5954 24.4727 22.0399 24.7126 22.4935 24.9187C22.5699 24.7373 22.7021 24.5772 22.8789 24.4739C23.0564 24.3708 23.2617 24.3416 23.4661 24.3124C23.7254 24.2755 23.9833 24.2387 24.1813 24.0517C24.3428 23.8997 24.3345 23.7168 24.325 23.5062L24.3242 23.4898C24.3112 23.2365 24.3112 22.9864 24.3957 22.7428C24.5483 22.3076 24.9348 22.0283 25.3668 21.9016C25.8883 21.7505 26.4501 21.8024 26.9958 21.8528C27.1774 21.8696 27.3571 21.8862 27.533 21.8951L27.6203 21.9C27.9508 21.9188 28.3081 21.9391 28.6243 21.8854C28.673 21.8756 28.751 21.8594 28.8062 21.8367C28.815 21.8329 28.8131 21.8374 28.8119 21.84C28.8116 21.8408 28.8113 21.8414 28.8115 21.8416C28.812 21.842 28.817 21.8372 28.8387 21.8163L28.8581 21.7977C28.9523 21.7067 29.0108 21.6061 29.0563 21.4826C29.2446 20.9844 29.2229 20.4249 29.2007 19.8825ZM33.7212 33.4986C33.9588 33.439 34.1927 33.3689 34.4225 33.2887L36.4723 35.0129L33.2987 38.699L32.4969 37.0891H32.9959C33.3965 37.0891 33.7212 36.7644 33.7212 36.3638V33.4986ZM27.7998 33.277C27.7535 33.3991 27.6737 33.5102 27.5624 33.5953L25.6977 35.0211L29.0097 38.5608L29.7427 37.0891H29.2479C28.8474 37.0891 28.5227 36.7644 28.5227 36.3638V33.496C28.2776 33.4342 28.0365 33.3608 27.7998 33.277ZM32.2721 39.8914L31.1198 37.5778L30.0673 39.691L31.3054 41.0143L32.2721 39.8914ZM29.9732 35.6386V34.2213H32.2706V35.6386H29.9732Z"
    />
    <path
        d="M19.6683 41.5336C20.0688 41.5336 20.3936 41.8583 20.3936 42.2588V46.1552H30.0807C30.4813 46.1552 30.806 46.4799 30.806 46.8805C30.806 47.281 30.4813 47.6057 30.0807 47.6057H19.6683C19.2677 47.6057 18.943 47.281 18.943 46.8805V42.2588C18.943 41.8583 19.2677 41.5336 19.6683 41.5336Z"
    />
    <path
        d="M14.655 32.3609C14.2676 32.6195 13.8827 33.1006 13.65 33.77C13.4177 34.438 13.3997 35.1153 13.5374 35.6553C13.6774 36.2044 13.9515 36.5305 14.232 36.6596L19.8881 39.2488L44.4934 50.6161C44.857 50.7841 45.0156 51.2151 44.8477 51.5787C44.6797 51.9424 44.2487 52.101 43.8851 51.933L19.282 40.5667L19.2797 40.5657L13.6267 37.9778C12.8258 37.6098 12.3417 36.8367 12.1318 36.0137C11.9196 35.1815 11.9599 34.2138 12.2798 33.2937C12.5993 32.3749 13.1594 31.6153 13.8495 31.1545C14.5442 30.6907 15.4165 30.5105 16.2389 30.8881L17.4503 31.4435C17.8144 31.6104 17.9743 32.0409 17.8074 32.405C17.6404 32.7692 17.2099 32.929 16.8458 32.7621L15.6344 32.2067C15.3754 32.0877 15.0377 32.1054 14.655 32.3609Z"
    />
</svg>