<svg xmlns="http://www.w3.org/2000/svg" width="20" height="18" viewBox="0 0 20 18" stroke="#8C8C8C"
    stroke-width="1.5" fill="none">
    <path
        d="M0.833344 2.21667C0.833344 1.70329 0.833344 1.44659 0.933254 1.25051C1.02114 1.07803 1.16137 0.937795 1.33385 0.849911C1.52994 0.75 1.78663 0.75 2.30001 0.75H17.7C18.2134 0.75 18.4701 0.75 18.6662 0.849911C18.8386 0.937795 18.9789 1.07803 19.0668 1.25051C19.1667 1.44659 19.1667 1.70329 19.1667 2.21667V2.83028C19.1667 3.07667 19.1667 3.19987 19.1366 3.31443C19.1099 3.41595 19.066 3.51213 19.0067 3.59878C18.9399 3.69656 18.8468 3.77725 18.6606 3.93862L12.7978 9.01971C12.6116 9.18108 12.5185 9.26177 12.4516 9.35955C12.3924 9.4462 12.3485 9.54238 12.3218 9.6439C12.2917 9.75846 12.2917 9.88166 12.2917 10.1281V14.9202C12.2917 15.0994 12.2917 15.1891 12.2628 15.2666C12.2372 15.335 12.1957 15.3964 12.1416 15.4456C12.0804 15.5012 11.9971 15.5345 11.8307 15.6011L8.71403 16.8477C8.37711 16.9825 8.20866 17.0499 8.07343 17.0218C7.95517 16.9972 7.85139 16.9269 7.78466 16.8263C7.70834 16.7111 7.70834 16.5297 7.70834 16.1668V10.1281C7.70834 9.88166 7.70834 9.75846 7.67823 9.6439C7.65155 9.54238 7.60763 9.4462 7.54839 9.35955C7.48154 9.26177 7.38844 9.18108 7.20224 9.01971L1.33945 3.93862C1.15325 3.77725 1.06015 3.69656 0.993294 3.59878C0.934053 3.51213 0.890134 3.41595 0.863452 3.31443C0.833344 3.19987 0.833344 3.07667 0.833344 2.83028V2.21667Z"
        stroke-linecap="round" stroke-linejoin="round" />
</svg>