<svg xmlns="http://www.w3.org/2000/svg" width="60" height="60" viewBox="0 0 60 60" fill="none">
    <path
        d="M30.4489 24.2307C27.8177 22.9569 24.8552 23.1757 23.0024 25.0317C22.2111 25.823 21.7221 26.8137 21.5163 27.8945C21.4101 28.4477 20.8955 28.8337 20.3358 28.7565C19.4962 28.6375 18.6245 28.6246 17.7335 28.7308C13.1852 29.2712 9.54396 32.9575 9.05824 37.5122C8.42135 43.4919 13.0919 48.5453 18.943 48.5453C24.4338 48.5453 28.8856 44.0935 28.8856 38.6027C28.8856 38.5994 28.8856 38.5962 28.8856 38.5898C28.8856 37.9979 29.3391 37.509 29.931 37.4961C31.4235 37.4672 32.8228 36.9461 33.8682 35.9007C35.2513 34.5175 35.7242 32.52 35.351 30.5032M27.531 29.1102L40.5166 18.6368C41.086 18.1768 41.9191 18.254 42.3983 18.8105L43.344 19.9138C43.8426 20.496 43.7622 21.3709 43.1671 21.8502L30.2427 32.2721M42.4789 11.4541L42.8649 11.9623M39.7677 13.2618L40.1537 13.77M50.6143 20.9465L51.0003 21.4547M47.9022 22.7542L48.2882 23.2624M29.7897 32.047C29.7897 33.6689 28.4749 34.9837 26.8529 34.9837C25.231 34.9837 23.9161 33.6689 23.9161 32.047C23.9161 30.425 25.231 29.1102 26.8529 29.1102C28.4749 29.1102 29.7897 30.425 29.7897 32.047ZM17.9868 44.4566L13.0775 38.7044C12.7315 38.2991 12.7796 37.69 13.185 37.344L14.4671 36.2498C14.8725 35.9038 15.4816 35.9519 15.8275 36.3573L20.7369 42.1095C21.0828 42.5148 21.0347 43.1239 20.6293 43.4699L19.3473 44.5641C18.9419 44.9101 18.3328 44.862 17.9868 44.4566ZM41.6725 16.2519L44.9144 13.485C45.3198 13.139 45.9289 13.1872 46.2748 13.5926L48.9122 16.6827C49.2582 17.0881 49.2101 17.6972 48.8047 18.0432L45.5628 20.81C45.1574 21.156 44.5483 21.1078 44.2024 20.7025L41.565 17.6123C41.219 17.2069 41.2672 16.5978 41.6725 16.2519Z"
     stroke-linecap="round" stroke-linejoin="round" />
</svg>