<svg width="40" height="40" viewBox="0 0 40 40" fill="none" xmlns="http://www.w3.org/2000/svg">
<path d="M9.34992 11.4284C10.829 11.4284 12.028 10.2294 12.028 8.75031C12.028 7.27127 10.829 6.07227 9.34992 6.07227C7.87088 6.07227 6.67188 7.27127 6.67188 8.75031C6.67188 10.2294 7.87088 11.4284 9.34992 11.4284Z" stroke="#4D4D4D" stroke-linecap="round" stroke-linejoin="round"/>
<path d="M24.3499 10.3561C25.829 10.3561 27.028 9.15709 27.028 7.67804C27.028 6.199 25.829 5 24.3499 5C22.8709 5 21.6719 6.199 21.6719 7.67804C21.6719 9.15709 22.8709 10.3561 24.3499 10.3561Z" stroke="#4D4D4D" stroke-linecap="round" stroke-linejoin="round"/>
<path d="M9.22725 16.6692L9.38462 17.1547C9.60868 17.8482 10.3182 18.2616 11.0304 18.1149L12.7348 17.7655C13.423 17.6241 14.1085 18.0029 14.3566 18.6591L14.3779 18.7177C14.682 19.5259 14.2099 20.4168 13.3697 20.6142L9.81407 21.4518C9.25125 21.5852 8.66176 21.3638 8.32567 20.8943L6.60788 18.499C5.81834 17.4 5.797 15.925 6.5492 14.802C7.11735 13.9538 8.0536 13.423 9.07254 13.3696L13.327 13.1456C13.8818 13.1162 14.3726 12.7668 14.578 12.2493L15.9197 8.89913C16.1838 8.23495 16.8986 7.86952 17.5921 8.0429L17.7949 8.09358C18.5817 8.29097 19.0485 9.10452 18.8191 9.88339L17.096 14.5273L16.0237 16.6692" stroke="#4D4D4D" stroke-linecap="round" stroke-linejoin="round"/>
<path d="M9.35381 23.0869L9.85528 25.8797C9.87662 26.005 9.86595 26.1331 9.82327 26.2531L7.39062 32.8575" stroke="#4D4D4D" stroke-linecap="round" stroke-linejoin="round"/>
<path d="M11.0547 32.8584L13.594 28.1585C13.6607 28.0385 13.6874 27.8998 13.6767 27.7637L13.426 24.6056C13.378 24.0027 14.0555 23.616 14.5489 23.9654L16.6615 25.4565C16.8856 25.6138 17.0003 25.8859 16.9549 26.158L15.9573 32.1436" stroke="#4D4D4D" stroke-linecap="round" stroke-linejoin="round"/>
<path d="M18.1016 22.501L20.5369 25.3737C20.6889 25.5551 20.7423 25.7979 20.6809 26.0272L19.1765 31.4287" stroke="#4D4D4D" stroke-linecap="round" stroke-linejoin="round"/>
<path d="M29.5358 19.4757L28.4555 15.3573H29.8106C30.5361 15.3573 31.1923 15.7974 31.4643 16.4696L31.9418 17.6459C32.2912 18.5075 33.4115 18.7262 34.0597 18.0567C34.4331 17.6699 34.5292 17.0938 34.2998 16.6083L33.825 15.6054C32.5473 12.914 29.6559 11.3749 26.7084 11.8204L24.9746 12.0818C22.4086 12.4712 20.2907 14.293 19.5278 16.7737L18.5863 17.3445C17.554 17.9686 17.5807 19.4784 18.6369 20.0652C19.1331 20.3399 19.7359 20.3266 20.2214 20.0332L22.0298 18.9289L23.4596 16.4296L24.0624 20.5133L22.3233 26.9657" stroke="#4D4D4D" stroke-linecap="round" stroke-linejoin="round"/>
<path d="M25.0648 34.9996C26.149 34.9996 27.0279 34.1207 27.0279 33.0364C27.0279 31.9522 26.149 31.0732 25.0648 31.0732C23.9805 31.0732 23.1016 31.9522 23.1016 33.0364C23.1016 34.1207 23.9805 34.9996 25.0648 34.9996Z" stroke="#4D4D4D" stroke-linecap="round" stroke-linejoin="round"/>
<path d="M31.8538 31.7858C32.9381 31.7858 33.817 30.9068 33.817 29.8226C33.817 28.7383 32.9381 27.8594 31.8538 27.8594C30.7696 27.8594 29.8906 28.7383 29.8906 29.8226C29.8906 30.9068 30.7696 31.7858 31.8538 31.7858Z" stroke="#4D4D4D" stroke-linecap="round" stroke-linejoin="round"/>
<path d="M27.0312 33.0367V24.2877L33.8171 21.543V24.3117V30.0012" stroke="#4D4D4D" stroke-linecap="round" stroke-linejoin="round"/>
<path d="M27.0312 27.323L33.8171 24.6689" stroke="#4D4D4D" stroke-linecap="round" stroke-linejoin="round"/>
</svg>
