<svg xmlns="http://www.w3.org/2000/svg" width="24" height="24" stroke="white" stroke-width="2"
    viewBox="0 0 24 24" fill="none">
    <path
        d="M23 4.66667H19.0889C17.0354 4.66667 16.0086 4.66667 15.2243 5.06631C14.5343 5.41785 13.9734 5.97877 13.6219 6.6687C13.2222 7.45304 13.2222 8.47981 13.2222 10.5333V12M23 4.66667L19.3333 1M23 4.66667L19.3333 8.33333M9.55555 1H6.86667C4.81314 1 3.78638 1 3.00203 1.39964C2.31211 1.75118 1.75118 2.31211 1.39964 3.00203C1 3.78638 1 4.81314 1 6.86667V17.1333C1 19.1869 1 20.2136 1.39964 20.998C1.75118 21.6879 2.31211 22.2488 3.00203 22.6004C3.78638 23 4.81314 23 6.86667 23H17.1333C19.1869 23 20.2136 23 20.998 22.6004C21.6879 22.2488 22.2488 21.6879 22.6004 20.998C23 20.2136 23 19.1869 23 17.1333V14.4444"
        stroke-linecap="round" stroke-linejoin="round" />
</svg>