<svg width="40" height="40" viewBox="0 0 40 40" fill="none" xmlns="http://www.w3.org/2000/svg">
<path d="M26.5741 31.9083L24.1307 29.6639L18.6428 20.9323C18.0473 19.9864 17.6671 18.9201 17.5273 17.8091L17.4853 17.4788C17.3623 16.5049 17.3819 15.5198 17.4686 14.5431C17.6251 12.7548 17.189 10.7342 16.1071 8.8564C13.8342 4.91879 9.59311 3.11091 6.63807 4.81805C3.68023 6.52798 3.12668 11.1065 5.39958 15.0497C6.37527 16.7428 7.7172 18.0441 9.15978 18.8389C9.53999 19.0488 10.1159 19.2951 10.5408 19.4686C10.9294 19.6281 11.3069 19.8184 11.6619 20.0423L12.9116 20.8231C13.7391 21.3409 14.4632 22.0125 15.0391 22.8045L21.4496 31.5865L22.6322 34.5474C22.8531 35.1015 23.3172 35.5213 23.8903 35.6836L24.6814 35.9103C25.0812 36.025 25.5118 36.039 25.906 35.8991C26.7027 35.6192 27.2004 34.8776 27.2004 34.0772V33.33C27.2004 32.7899 26.9739 32.2749 26.5769 31.9111L26.5741 31.9083Z" stroke="#4D4D4D" stroke-linecap="round" stroke-linejoin="round"/>
<path d="M12.6328 20.454L16.8487 17.3867" stroke="#4D4D4D" stroke-linecap="round" stroke-linejoin="round"/>
<path d="M14.9375 22.3735L18.0044 20.0703" stroke="#4D4D4D" stroke-linecap="round" stroke-linejoin="round"/>
<path d="M22.6016 33.5006L25.6684 31.2002" stroke="#4D4D4D" stroke-linecap="round" stroke-linejoin="round"/>
<path d="M4.96875 12.7797L13.4006 6.63965" stroke="#4D4D4D" stroke-linecap="round" stroke-linejoin="round"/>
<path d="M7.67969 16.9636L16.4386 10.5156" stroke="#4D4D4D" stroke-linecap="round" stroke-linejoin="round"/>
<path d="M5.73546 5.87305C5.73546 5.87305 5.14557 8.5345 7.35696 11.042" stroke="#4D4D4D" stroke-linecap="round" stroke-linejoin="round"/>
<path d="M6.67188 5.04492C6.67188 5.04492 9.24391 5.37795 10.6977 8.28568" stroke="#4D4D4D" stroke-linecap="round" stroke-linejoin="round"/>
<path d="M15.2074 17.9541C15.2074 17.9541 15.7973 15.2927 13.5859 12.7852" stroke="#4D4D4D" stroke-linecap="round" stroke-linejoin="round"/>
<path d="M14.2602 18.7827C14.2602 18.7827 11.6881 18.4497 10.2344 15.542" stroke="#4D4D4D" stroke-linecap="round" stroke-linejoin="round"/>
<path d="M5.73438 14.6777L6.89179 14.3474C7.88146 14.0648 8.75652 13.4687 9.38275 12.6487C9.94189 11.9183 10.6995 11.3641 11.5634 11.0507L11.6612 11.0143C12.8913 10.5693 13.8866 9.64301 14.4178 8.44802L14.5492 8.15137" stroke="#4D4D4D" stroke-linecap="round" stroke-linejoin="round"/>
<path d="M20.3438 22.3734L21.3558 20.7614C21.9513 19.8155 22.3315 18.7492 22.4713 17.6382L22.5132 17.308C22.6362 16.3341 22.6166 15.349 22.53 14.3723C22.3734 12.584 22.8095 10.5634 23.8915 8.68554C26.1644 4.74513 30.4026 2.93445 33.3605 4.64438C36.3183 6.35432 36.8719 10.9328 34.599 14.8732C33.6233 16.5663 32.2813 17.8677 30.8388 18.6625C30.4586 18.8724 29.8826 19.1186 29.4577 19.2922C29.0691 19.4517 28.6917 19.642 28.3366 19.8659L27.087 20.6467C26.2594 21.1644 25.5353 21.8361 24.9594 22.6281L22.9605 25.3679" stroke="#4D4D4D" stroke-linecap="round" stroke-linejoin="round"/>
<path d="M19.3047 30.386L18.5554 31.4131L17.3728 34.374C17.152 34.9281 16.6879 35.3479 16.1148 35.5102L15.3236 35.7369C14.9238 35.8516 14.4933 35.8656 14.0991 35.7257C13.3023 35.4458 12.8047 34.7042 12.8047 33.9038V33.1566C12.8047 32.6165 13.0311 32.1015 13.4281 31.7377L15.8716 29.4933L17.0905 27.5566" stroke="#4D4D4D" stroke-linecap="round" stroke-linejoin="round"/>
<path d="M27.3722 20.2829L23.1562 17.2129" stroke="#4D4D4D" stroke-linecap="round" stroke-linejoin="round"/>
<path d="M25.0747 22.2026L22.0078 19.8994" stroke="#4D4D4D" stroke-linecap="round" stroke-linejoin="round"/>
<path d="M17.4028 33.3297L14.3359 31.0293" stroke="#4D4D4D" stroke-linecap="round" stroke-linejoin="round"/>
<path d="M35.0362 12.6088L26.6016 6.46875" stroke="#4D4D4D" stroke-linecap="round" stroke-linejoin="round"/>
<path d="M32.3264 16.7927L23.5703 10.3447" stroke="#4D4D4D" stroke-linecap="round" stroke-linejoin="round"/>
<path d="M34.2699 5.70215C34.2699 5.70215 34.8598 8.3636 32.6484 10.8711" stroke="#4D4D4D" stroke-linecap="round" stroke-linejoin="round"/>
<path d="M33.3305 4.87402C33.3305 4.87402 30.7584 5.20705 29.3047 8.11478" stroke="#4D4D4D" stroke-linecap="round" stroke-linejoin="round"/>
<path d="M24.798 17.7832C24.798 17.7832 24.2081 15.1218 26.4195 12.6143" stroke="#4D4D4D" stroke-linecap="round" stroke-linejoin="round"/>
<path d="M25.7422 18.6119C25.7422 18.6119 28.3142 18.2788 29.768 15.3711" stroke="#4D4D4D" stroke-linecap="round" stroke-linejoin="round"/>
<path d="M34.2679 14.5068L33.1105 14.1765C32.1208 13.8939 31.2458 13.2978 30.6196 12.4778C30.0604 11.7474 29.3028 11.1932 28.4389 10.8798L28.3411 10.8434C27.111 10.3984 26.1157 9.47211 25.5845 8.27712L25.4531 7.98047" stroke="#4D4D4D" stroke-linecap="round" stroke-linejoin="round"/>
</svg>
