<svg width="40" height="40" viewBox="0 0 40 40" fill="none" xmlns="http://www.w3.org/2000/svg">
<path d="M5.67188 21.0678C6.90221 21.0678 7.17256 27.6912 7.17256 27.6912C7.17256 27.6912 6.5767 33.8842 13.6967 33.8842C20.8166 33.8842 20.4607 28.0608 20.4607 28.0608V19.2885C20.4607 13.9147 22.2842 11.8568 23.1807 11.1699C23.4842 10.9382 23.6662 10.5851 23.6662 10.2044C23.6662 9.25265 22.618 8.6761 21.8125 9.18369C20.1628 10.2264 17.9118 12.2457 17.258 15.7299C16.5325 19.6029 16.4635 23.1477 16.4939 25.0181C16.5077 25.785 15.887 26.4084 15.1201 26.4084C14.3532 26.4084 13.7353 25.7822 13.7463 25.0181C13.7767 23.2608 13.7077 20.265 12.9822 18.5767" stroke="#4D4D4D" stroke-linecap="round" stroke-linejoin="round"/>
<path d="M11.7926 14.7783L3.63633 18.3655C3.00875 18.6415 2.72375 19.374 2.99976 20.0016L3.28962 20.6606C3.56563 21.2882 4.29813 21.5732 4.92571 21.2972L13.082 17.71C13.7096 17.434 13.9946 16.7015 13.7186 16.0739L13.4287 15.4149C13.1527 14.7873 12.4202 14.5023 11.7926 14.7783Z" stroke="#4D4D4D" stroke-linecap="round" stroke-linejoin="round"/>
<path d="M16.7656 12.4141H17.6153" stroke="#4D4D4D" stroke-linecap="round" stroke-linejoin="round"/>
<path d="M15.8672 15.0156H17.0341" stroke="#4D4D4D" stroke-linecap="round" stroke-linejoin="round"/>
<path d="M15.4766 18.2207H16.5441" stroke="#4D4D4D" stroke-linecap="round" stroke-linejoin="round"/>
<path d="M29.8233 31.7685L30.0054 31.4429C30.2813 30.9464 30.4026 30.3781 30.353 29.8099L29.3102 17.9589C29.2413 17.1865 29.0785 16.4251 28.8192 15.6941L26.113 8.01413C25.7875 7.08724 26.4744 6.11621 27.4565 6.11621H36.0716C37.0509 6.11621 37.7378 7.07896 37.4178 8.0031L34.7668 15.6968C34.5157 16.4251 34.3557 17.1837 34.2923 17.9534L33.3488 29.4264C33.3019 30.0112 33.4343 30.5961 33.7295 31.1009L34.1047 31.7409C34.6619 32.6898 33.9778 33.8843 32.8771 33.8843H31.0675C29.9806 33.8843 29.2964 32.7174 29.8233 31.7685Z" stroke="#4D4D4D" stroke-linecap="round" stroke-linejoin="round"/>
<path d="M26.0302 15.9199L24.8909 17.7985C24.5543 18.3558 24.375 18.993 24.375 19.644V27.3295C24.375 28.1267 24.6426 28.9047 25.1364 29.5309L26.0274 30.6647" stroke="#4D4D4D" stroke-linecap="round" stroke-linejoin="round"/>
<path d="M30.9322 19.8203H24.375" stroke="#4D4D4D" stroke-linecap="round" stroke-linejoin="round"/>
<path d="M30.9322 23.3818H24.375" stroke="#4D4D4D" stroke-linecap="round" stroke-linejoin="round"/>
<path d="M30.9322 26.585H24.375" stroke="#4D4D4D" stroke-linecap="round" stroke-linejoin="round"/>
</svg>
