<svg width="60" height="60" viewBox="0 0 60 60" fill="none" xmlns="http://www.w3.org/2000/svg">
<path d="M41.8571 10.9487C41.8571 10.9487 26.3941 13.0184 17.9598 33.7161M29.2097 15.0251L31.6697 17.5053M26.7432 17.0926L29.2032 19.5728M24.6339 19.1629L27.0939 21.6431M22.7477 21.7996L24.7579 23.8348M23.7597 34.5898L21.4754 48.2054L27.9769 49.9992V34.0344M35.1506 30.4407L38.6895 46.4814L27.9709 50M41.8566 10.9503C41.8566 10.9503 32.5507 6.51412 22.0641 16.8112C14.0339 24.6902 17.9593 33.7178 17.9593 33.7178C17.9593 33.7178 28.8607 38.0126 38.1701 27.5844C45.3709 18.8844 41.8566 10.9503 41.8566 10.9503Z"  stroke-width="1.5" stroke-linecap="round" stroke-linejoin="round"/>
</svg>
