<svg xmlns="http://www.w3.org/2000/svg" width="60" height="60" viewBox="0 0 60 60" fill="none">
    <path
        d="M21.8428 21.8937L20.8737 21.1994C20.1115 20.6531 19.0715 20.7056 18.3678 21.3197C17.8247 21.795 17.5747 22.5233 17.7136 23.2331L17.9481 24.4274C18.0407 24.8996 18.2999 25.3255 18.6764 25.6248L21.8458 28.14M25.2343 24.2423C25.2343 24.2423 28.6475 22.6807 29.9961 24.2423C29.166 26.5321 28.0118 29.4022 28.0118 29.4022L31.354 29.8682M39.3562 21.5543L40.3253 20.86C41.0875 20.3137 42.1275 20.3662 42.8312 20.9803C43.3743 21.4556 43.6243 22.1839 43.4854 22.8937L43.2509 24.088C43.1583 24.5602 42.8991 24.986 42.5226 25.2854L39.3531 27.8006M28.8975 32.8339H31.8077M42.4455 20.1656L42.0505 14.731M19.3801 20.4464L19.8214 15.5241M18.6732 25.6279L12.1647 43.3698C11.9733 43.8882 12.1801 44.4684 12.6523 44.7523C13.2633 45.1196 14.0565 44.848 14.3157 44.1814L17.7906 37.5124M19.5992 29.1769L15.7015 47.3354C15.5194 48.1872 15.9977 49.0389 16.8217 49.3259C17.8031 49.6685 18.8616 49.0698 19.0745 48.0545L21.3613 37.9105M25.3608 35.272L24.5954 44.8419C24.5275 45.6998 23.8085 46.3633 22.9474 46.3633C22.0154 46.3633 21.2686 45.5949 21.2964 44.666L21.7254 29.0782M42.7973 25.6063L47.8307 43.9438C48.022 44.4623 47.8153 45.0425 47.3431 45.3264C46.732 45.6937 45.9389 45.4221 45.6797 44.7555L42.2048 38.0865M38.6341 38.4876L40.9209 48.6316C41.1338 49.6469 42.1923 50.2456 43.1737 49.9031C43.9977 49.6161 44.476 48.7643 44.2939 47.9125L40.3962 29.754M34.8596 37.1174L35.4028 45.4159C35.4707 46.2738 36.1897 46.9373 37.0508 46.9373C37.9828 46.9373 38.7296 46.1689 38.7018 45.24L38.4333 30.7663M33.1716 24.2422H35.3257M21.7531 23.7701L23.3486 33.5684L27.6445 37.2378C28.203 37.676 28.8943 37.9136 29.6072 37.9136H31.1996C31.9002 37.9136 32.5791 37.6822 33.1346 37.2594L34.8597 35.9385L37.6372 33.5684L38.6155 29.2232L39.4426 23.7825C39.6185 22.6283 39.2697 21.4555 38.4951 20.5791L36.9984 18.891C36.1404 17.922 34.9214 17.3449 33.6253 17.2924L28.3388 17.0733C26.9377 17.0147 25.5799 17.5763 24.6324 18.604L22.7715 20.6223C21.9877 21.4741 21.6143 22.6221 21.7562 23.7701H21.7531ZM30.4836 10H31.1039C32.2025 10 33.0605 10.8024 32.9525 11.7313L32.5821 14.9377C32.4896 15.7432 31.6903 16.3604 30.7367 16.3604C29.7584 16.3604 28.9467 15.7185 28.8819 14.8884L28.632 11.6819C28.561 10.7715 29.4096 10 30.4836 10ZM24.5894 10.7777L25.0523 10.611C25.8701 10.3148 26.9039 10.8579 27.2835 11.7807L28.5858 14.9717C28.913 15.7741 28.6229 16.5826 27.91 16.8418C27.1817 17.1073 26.2589 16.7061 25.8022 15.9222L24.037 12.8978C23.537 12.0399 23.7901 11.0678 24.5894 10.7777ZM20.3119 13.8051L20.7471 13.4286C21.5155 12.7651 22.7376 12.762 23.3795 13.4225L25.5953 15.7092C26.1539 16.2863 26.0706 17.1659 25.4009 17.743C24.7158 18.3355 23.6511 18.4127 22.9629 17.9189L20.3119 16.0086C19.5589 15.4654 19.5589 14.4563 20.3119 13.8051ZM36.8844 10.6049L36.3659 10.4135C35.4494 10.0741 34.326 10.5864 33.9495 11.5214L32.6441 14.7495C32.317 15.5611 32.675 16.4067 33.4712 16.703C34.289 17.0085 35.292 16.632 35.7642 15.8481L37.588 12.8114C38.1065 11.9504 37.7825 10.9382 36.8844 10.6049ZM41.4794 13.7465L41.0443 13.37C40.2758 12.7034 39.0723 12.6849 38.4458 13.3299L36.2855 15.5611C35.7424 16.1228 35.835 16.9931 36.5016 17.5733C37.1836 18.1689 38.239 18.2584 38.9087 17.7769L41.5041 15.9222C42.2417 15.3945 42.2293 14.3977 41.4763 13.7434L41.4794 13.7465Z"
         stroke-linecap="round" stroke-linejoin="round" />
</svg>