<svg xmlns="http://www.w3.org/2000/svg" width="60" height="60" viewBox="0 0 60 60" fill="none">
    <path
        d="M11.074 37.8428L10.2226 38.9414C9.87419 39.3904 9.94244 40.051 10.3735 40.4123L13.0066 42.5292M35.616 18.8522C34.215 17.6733 33.9959 15.5308 35.1275 14.0672C35.1813 13.9979 35.2388 13.9358 35.2963 13.8701L32.1639 11.2313C31.7328 10.8699 31.1006 10.9393 30.7521 11.3882L18.6463 27.0352M45.3257 24.4493C45.4011 24.4128 45.4801 24.3836 45.5592 24.3544L43.896 20.5476C43.6661 20.022 43.0734 19.7921 42.5704 20.0293L13.4554 33.8696C12.9525 34.1069 12.7298 34.7273 12.9597 35.2529L14.6229 39.0597C16.2035 38.4538 17.9852 39.2094 18.6965 40.8336C19.4042 42.4578 18.7827 44.3557 17.3099 45.2025L18.9731 49.0093C19.203 49.5349 19.7957 49.7648 20.2986 49.5275L49.4136 35.6872C49.9166 35.45 50.1393 34.8295 49.9094 34.3039L48.2462 30.4971C48.1743 30.5373 48.1025 30.5811 48.0234 30.6176C46.389 31.395 44.4636 30.6431 43.72 28.9386C42.9764 27.2341 43.6948 25.2267 45.3293 24.4493H45.3257Z"
         stroke-linecap="round" stroke-linejoin="round" />
    <path d="M33.5703 24.7871L40.7139 39.3035" 
        stroke-linecap="round" stroke-linejoin="round" stroke-dasharray="2 2" />
    <path d="M26.4297 17.5273L32.1445 23.3339" 
        stroke-linecap="round" stroke-linejoin="round" stroke-dasharray="1 2" />
</svg>