<svg width="40" height="40" viewBox="0 0 40 40" fill="none" xmlns="http://www.w3.org/2000/svg">
<path d="M33.4073 14.8711C33.4733 14.8391 33.5425 14.8136 33.6116 14.788L32.1563 11.4571C31.9552 10.9972 31.4365 10.796 30.9965 11.0036L5.52088 23.1138C5.08083 23.3214 4.88595 23.8644 5.08712 24.3242L6.54242 27.6552C7.92543 27.1251 9.48445 27.7861 10.1068 29.2073C10.726 30.6285 10.1822 32.2892 8.89353 33.0301L10.3488 36.361C10.55 36.8209 11.0686 37.0221 11.5087 36.8145L36.9843 24.7043C37.4243 24.4967 37.6192 23.9538 37.4181 23.4939L35.9628 20.1629C35.8999 20.1981 35.837 20.2364 35.7679 20.2683C34.3377 20.9486 32.653 20.2907 32.0023 18.7992C31.3517 17.3078 31.9803 15.5513 33.4105 14.8711H33.4073Z" stroke="#4D4D4D" stroke-linecap="round" stroke-linejoin="round"/>
<path d="M3.43975 26.5908L2.69481 27.5521C2.38992 27.9449 2.44964 28.523 2.82682 28.8391L5.13079 30.6914" stroke="#4D4D4D" stroke-linecap="round" stroke-linejoin="round"/>
<path d="M24.911 9.9742C23.6851 8.94266 23.4934 7.06799 24.4835 5.78735C24.5306 5.72667 24.5809 5.67238 24.6312 5.61489L21.8904 3.30589C21.5132 2.98972 20.96 3.0504 20.6551 3.44322L10.0625 17.1343" stroke="#4D4D4D" stroke-linecap="round" stroke-linejoin="round"/>
<path d="M23.125 15.168L29.3756 27.8698" stroke="#4D4D4D" stroke-linecap="round" stroke-linejoin="round" stroke-dasharray="2 2"/>
<path d="M16.875 8.81445L21.8755 13.8952" stroke="#4D4D4D" stroke-linecap="round" stroke-linejoin="round" stroke-dasharray="1 2"/>
</svg>
