<svg xmlns="http://www.w3.org/2000/svg" width="60" height="60" viewBox="0 0 60 60" fill="none">
    <path
        d="M17.9015 16.536L13.5952 34.3674M46.4932 28.8382L51.0974 29.9815C51.9566 30.1928 52.4901 31.052 52.2961 31.9181L51.3399 36.214C51.1529 37.0489 50.3526 37.5998 49.5038 37.4716L29.8431 34.4991M24.9267 23.4339L30.3208 24.3658M27.7059 22.7305V14.9078C27.7059 13.5774 28.7834 12.5 30.1137 12.5C31.4441 12.5 32.5215 13.5774 32.5215 14.9078V20.1252M29.8463 36.9484L26.9846 34.111L27.9478 33.1514C28.7965 32.3026 28.8139 30.9341 27.9824 30.0646C27.1371 29.1811 25.734 29.1534 24.8575 30.0022L22.3181 32.455C21.4589 33.2865 21.445 34.6619 22.2903 35.5072L27.5875 40.8043C28.6926 41.9095 30.1892 42.5296 31.7482 42.5296H33.5913M44.8267 37.1772V38.8747C44.8267 40.0873 44.1234 41.1855 43.0252 41.6948C41.927 42.2041 41.2237 43.3023 41.2237 44.5148V45.9006C41.2237 47.082 40.264 48.0416 39.0827 48.0416H31.4505C30.2691 48.0416 29.3095 47.082 29.3095 45.9006V42.8381M24.4456 25.5366C24.4456 29.9851 20.8393 33.5914 16.3907 33.5914C11.9422 33.5914 8.33594 29.9851 8.33594 25.5366C8.33594 21.088 11.9422 17.4818 16.3907 17.4818C20.8393 17.4818 24.4456 21.088 24.4456 25.5366ZM31.4614 22.9903V28.7828C31.4614 30.0543 32.4141 31.0867 33.592 31.0867C34.77 31.0867 35.7227 30.0543 35.7227 28.7828V22.9903C35.7227 21.7154 34.7665 20.683 33.5886 20.6865C32.4141 20.6865 31.4614 21.7189 31.4614 22.9903ZM35.7436 25.1314V30.9239C35.7436 32.1954 36.6963 33.2278 37.8742 33.2278C39.0521 33.2278 40.0048 32.1954 40.0048 30.9239V25.1314C40.0048 23.8565 39.0487 22.8241 37.8707 22.8276C36.6963 22.8276 35.7436 23.86 35.7436 25.1314ZM40.0214 26.2017V31.9943C40.0214 33.2657 40.9741 34.2981 42.1521 34.2981C43.33 34.2981 44.2827 33.2657 44.2827 31.9943V26.2017C44.2827 24.9268 43.3265 23.8944 42.1486 23.8979C40.9741 23.8979 40.0214 24.9303 40.0214 26.2017Z"
        stroke-linecap="round" stroke-linejoin="round" />
</svg>