<svg xmlns="http://www.w3.org/2000/svg" width="50" height="28" viewBox="0 0 50 28" fill="white">
    <path
        d="M7.69355 1.35352C6.52125 1.35352 5.47537 2.11366 5.09609 3.23634L0.154018 17.7142C-0.466615 19.5386 0.866596 21.4331 2.75148 21.4331C3.92379 21.4331 4.96967 20.6729 5.34894 19.5503L10.291 5.07239C10.9116 3.24804 9.57844 1.35352 7.69355 1.35352Z"
    />
    <path
        d="M20.8071 0.453207C19.9796 -0.143215 18.8762 -0.15491 18.0602 0.441513L13.2561 3.89141C11.9688 4.81528 10.9344 6.42913 10.2908 8.32365L7.99219 15.0831C8.40594 13.8786 9.30241 12.6623 10.5896 11.7385L20.8186 4.38258C22.1403 3.43532 22.1403 1.42386 20.8071 0.453207Z"
    />
    <path
        d="M18.7852 23.5495L10.648 12.0889C9.44121 13.001 8.6022 14.1588 8.21144 15.3166C7.82067 16.4509 7.86664 17.5853 8.41831 18.4858L14.3488 26.8474C15.4636 28.4028 17.7508 28.3794 18.8311 26.8006C19.4978 25.8183 19.4863 24.5085 18.7852 23.5495Z"
    />
    <path d="M48.4952 13.5039V13.6793H48.024V14.9306H47.8286V13.6793H47.3574V13.5039H48.4952Z"
    />
    <path
        d="M48.656 13.5039H48.9319L49.3341 14.7084L49.7364 13.5039H50.0007V14.9306H49.8168V13.7261L49.4146 14.9306H49.2307L48.8284 13.7261V14.9306H48.6445L48.656 13.5039Z"
    />
    <path
        d="M20.7149 10.2192L19.5426 11.1781L19.1518 13.0609H18.7266L19.7724 8.05566H20.1977L19.6575 10.6636L22.7837 8.05566H23.2894L21.0712 9.96188L22.4274 13.0609H21.9447L20.7149 10.2192Z"
    />
    <path
        d="M24.7265 13.1886C24.4851 13.1886 24.2667 13.1652 24.0713 13.1067C23.876 13.0482 23.7151 12.9664 23.5656 12.8494C23.4277 12.7325 23.3243 12.5805 23.2438 12.3933C23.1634 12.2062 23.1289 11.984 23.1289 11.7385C23.1289 11.6449 23.1404 11.5396 23.1519 11.4227C23.1634 11.3174 23.1864 11.2005 23.2094 11.0719L23.8415 8.05466H24.2667L23.6346 11.1069C23.5886 11.3174 23.5656 11.528 23.5656 11.7151C23.5656 12.0776 23.6576 12.3583 23.853 12.5337C24.0484 12.7208 24.3357 12.8027 24.7494 12.8027C25.0023 12.8027 25.2207 12.7676 25.4046 12.6974C25.5884 12.6272 25.7379 12.522 25.8643 12.37C25.9907 12.2296 26.0941 12.0542 26.1861 11.832C26.2665 11.6215 26.347 11.3759 26.4045 11.0953L27.0366 8.04297H27.4618L26.8297 11.0836C26.7493 11.4578 26.6573 11.7735 26.5309 12.0308C26.416 12.2998 26.2665 12.5103 26.0941 12.674C25.9218 12.8377 25.7264 12.9664 25.508 13.0482C25.2666 13.1535 25.0138 13.1886 24.7265 13.1886Z"
    />
    <path
        d="M31.0242 11.6222C31.0242 11.8795 30.9782 12.1017 30.8863 12.3005C30.7943 12.4993 30.6679 12.663 30.4955 12.7916C30.3346 12.9203 30.1392 13.0255 29.9209 13.0957C29.7025 13.1659 29.4611 13.201 29.2083 13.201C28.9899 13.201 28.7715 13.1776 28.5647 13.1425C28.3463 13.1074 28.1624 13.0372 27.99 12.932C27.8176 12.8267 27.6797 12.6864 27.5647 12.4876C27.4498 12.3005 27.3924 12.0549 27.3809 11.7625H27.7946C27.8176 11.9496 27.8521 12.1134 27.921 12.242C27.99 12.3706 28.0705 12.4876 28.1854 12.5695C28.3003 12.6513 28.4382 12.7215 28.6221 12.7566C28.7945 12.7916 29.0014 12.815 29.2428 12.815C29.4841 12.815 29.691 12.78 29.8519 12.7215C30.0243 12.663 30.1622 12.5811 30.2657 12.4642C30.3691 12.359 30.4495 12.2303 30.4955 12.09C30.5415 11.9496 30.576 11.7859 30.576 11.6105C30.576 11.5286 30.5645 11.4468 30.553 11.3532C30.53 11.2714 30.4955 11.1895 30.4495 11.1076C30.3921 11.0375 30.3231 10.9673 30.2312 10.9088C30.1392 10.8504 30.0128 10.8036 29.8634 10.7685L29.1508 10.6165C28.7945 10.5346 28.5187 10.406 28.3118 10.2071C28.1049 10.02 28.0015 9.73937 28.0015 9.38853C28.0015 9.14294 28.0475 8.93244 28.1279 8.74533C28.2084 8.55822 28.3348 8.40619 28.4842 8.27755C28.6451 8.14891 28.829 8.06704 29.0474 7.99688C29.2657 7.9384 29.5186 7.90332 29.7829 7.90332C30.0473 7.90332 30.3001 7.9384 30.507 8.00857C30.7139 8.07874 30.8748 8.1723 31.0127 8.30094C31.1506 8.42958 31.2426 8.55822 31.323 8.71025C31.392 8.86227 31.438 9.026 31.4609 9.20142L31.0702 9.28328C31.0242 8.95583 30.8978 8.71025 30.7024 8.53483C30.507 8.35941 30.1852 8.27755 29.76 8.27755C29.5071 8.27755 29.2887 8.30094 29.1163 8.35941C28.9439 8.41788 28.806 8.48805 28.7026 8.5933C28.5991 8.68686 28.5302 8.8038 28.4842 8.92075C28.4382 9.04939 28.4267 9.17803 28.4267 9.30667C28.4267 9.42361 28.4382 9.51717 28.4612 9.61073C28.4842 9.70428 28.5302 9.78615 28.5876 9.85631C28.6451 9.92648 28.7371 9.99665 28.8405 10.0551C28.9439 10.1136 29.0819 10.1604 29.2542 10.1955L29.9323 10.3475C30.1392 10.3943 30.3116 10.4527 30.461 10.5346C30.599 10.6165 30.7139 10.71 30.8058 10.8153C30.8863 10.9205 30.9552 11.0492 30.9897 11.1778C31.0127 11.3298 31.0242 11.4702 31.0242 11.6222Z"
    />
    <path
        d="M33.8057 8.45328L32.8518 13.0726H32.4265L33.3805 8.45328H31.668L31.7484 8.05566H35.5871L35.5067 8.45328H33.8057Z"
    />
    <path
        d="M37.6801 7.92676C37.9559 7.92676 38.2088 7.97354 38.4386 8.06709C38.68 8.16065 38.8754 8.30098 39.0593 8.4764C39.2317 8.65182 39.3696 8.87402 39.473 9.1313C39.5765 9.38858 39.6224 9.68094 39.6224 10.0084C39.6224 10.3943 39.565 10.7802 39.45 11.1545C39.3351 11.5287 39.1627 11.8795 38.9328 12.1836C38.703 12.4876 38.4271 12.7332 38.0938 12.9203C37.7605 13.1075 37.3813 13.201 36.956 13.201C36.6802 13.201 36.4273 13.1542 36.1975 13.0607C35.9561 12.9671 35.7492 12.8385 35.5768 12.6631C35.4044 12.4876 35.2665 12.2771 35.1631 12.0199C35.0596 11.7626 35.0137 11.4702 35.0137 11.1428C35.0137 10.7568 35.0711 10.3709 35.1976 9.9967C35.324 9.61078 35.4964 9.27163 35.7262 8.96757C35.9561 8.66352 36.232 8.41793 36.5653 8.23082C36.8871 8.02031 37.2548 7.92676 37.6801 7.92676ZM36.9675 12.8151C37.3123 12.8151 37.6226 12.7332 37.8985 12.5695C38.1743 12.4058 38.4042 12.1953 38.5881 11.9263C38.7719 11.6573 38.9214 11.365 39.0248 11.0258C39.1282 10.6867 39.1742 10.3475 39.1742 10.0084C39.1742 9.76281 39.1397 9.52891 39.0823 9.31841C39.0133 9.10791 38.9214 8.93249 38.7949 8.78046C38.6685 8.62843 38.5076 8.51149 38.3237 8.42962C38.1398 8.34776 37.9214 8.30098 37.6801 8.30098C37.3353 8.30098 37.025 8.38285 36.7491 8.54657C36.4733 8.71029 36.2434 8.9208 36.0595 9.18977C35.8757 9.44705 35.7262 9.75111 35.6228 10.0903C35.5194 10.4294 35.4734 10.7685 35.4734 11.1077C35.4734 11.3533 35.5079 11.5872 35.5653 11.7977C35.6343 12.0082 35.7262 12.1836 35.8527 12.3356C35.9791 12.4876 36.14 12.6046 36.3239 12.6864C36.5078 12.7683 36.7262 12.8151 36.9675 12.8151Z"
    />
    <path
        d="M41.8745 13.0609L41.0355 8.79242L40.1505 13.0609H39.7598L40.8056 8.05566H41.3343L42.1848 12.5698L44.9202 8.05566H45.4604L44.4145 13.0609H44.0237L44.9202 8.76903L42.2883 13.0609H41.8745Z"
    />
    <path
        d="M21.1869 15.1544L20.3364 19.2592H19.302L20.1525 15.1544H18.6699L18.8538 14.2539H22.8534L22.6696 15.1544H21.1869Z"
    />
    <path d="M22.3828 19.2592L23.4287 14.2539H24.4516L23.4057 19.2592H22.3828Z" />
    <path
        d="M28.1411 15.9951C28.1181 15.8431 28.0951 15.7028 28.0606 15.5858C28.0262 15.4689 27.9687 15.3636 27.8997 15.2818C27.8308 15.1999 27.7388 15.1414 27.6239 15.0946C27.509 15.0479 27.3825 15.0245 27.2216 15.0245C26.9918 15.0245 26.7849 15.083 26.6125 15.1882C26.4401 15.2935 26.2792 15.4455 26.1528 15.6326C26.0263 15.8197 25.9344 16.0419 25.8654 16.2758C25.7965 16.5214 25.762 16.7787 25.762 17.0476C25.762 17.2464 25.7735 17.4336 25.808 17.5973C25.8425 17.7727 25.8999 17.9247 25.9804 18.0534C26.0608 18.182 26.1643 18.2873 26.2907 18.3574C26.4171 18.4393 26.578 18.4744 26.7734 18.4744C27.1067 18.4744 27.3596 18.3925 27.532 18.2288C27.7043 18.0651 27.8193 17.8312 27.8653 17.5154H28.9686C28.9111 17.7961 28.8307 18.0534 28.7272 18.2873C28.6238 18.5212 28.4744 18.7083 28.302 18.872C28.1296 19.0357 27.8997 19.1527 27.6469 19.2462C27.3825 19.3281 27.0722 19.3749 26.7044 19.3749C26.3367 19.3749 26.0378 19.3164 25.785 19.1994C25.5321 19.0825 25.3138 18.9188 25.1529 18.7083C24.992 18.4978 24.8655 18.2639 24.7966 17.9949C24.7161 17.7259 24.6816 17.4336 24.6816 17.1178C24.6816 16.7202 24.7391 16.346 24.8655 15.9834C24.9805 15.6209 25.1529 15.3052 25.3827 15.0245C25.6011 14.7438 25.8769 14.5216 26.1872 14.3579C26.5091 14.1942 26.8653 14.1123 27.2561 14.1123C27.5779 14.1123 27.8538 14.1591 28.0951 14.2409C28.3365 14.3228 28.5204 14.4398 28.6813 14.5918C28.8307 14.7438 28.9571 14.9309 29.0376 15.1414C29.118 15.3519 29.164 15.5858 29.187 15.8431L28.1411 15.9951Z"
    />
    <path
        d="M31.3695 16.779L30.6109 17.4339L30.2317 19.2699H29.1973L30.2431 14.2646H31.2775L30.8753 16.2059L33.036 14.2646H34.2198L32.174 16.1826L33.3578 19.2816H32.2659L31.3695 16.779Z"
    />
    <path
        d="M35.6679 15.1417L35.438 16.241H37.6332L37.4493 17.1415H35.2541L34.9898 18.3811H37.4608L37.1735 19.2699H33.7715L34.8174 14.2646H38.1734L37.9895 15.1534H35.6679V15.1417Z"
    />
    <path
        d="M40.9545 15.1544L40.104 19.2592H39.0696L39.9201 15.1544H38.4375L38.6214 14.2539H42.621L42.4371 15.1544H40.9545Z"
    />
    <path
        d="M46.311 17.6685C46.311 17.9725 46.265 18.2298 46.1731 18.452C46.0811 18.6742 45.9432 18.8496 45.7708 18.99C45.5984 19.1303 45.3801 19.2355 45.1272 19.294C44.8744 19.3642 44.587 19.3876 44.2767 19.3876C44.0239 19.3876 43.771 19.3642 43.5296 19.294C43.2883 19.2355 43.0699 19.142 42.886 19.0017C42.7021 18.8613 42.5527 18.6859 42.4378 18.4637C42.3229 18.2415 42.2654 17.9608 42.2539 17.6334H43.2998C43.3228 17.9258 43.4147 18.148 43.5871 18.3C43.7595 18.452 44.0124 18.5222 44.3572 18.5222C44.679 18.5222 44.8973 18.452 45.0238 18.3234C45.1502 18.183 45.2191 18.0193 45.2191 17.8205C45.2191 17.6919 45.1732 17.5749 45.0927 17.4697C45.0123 17.3644 44.8629 17.2943 44.6445 17.2358L44.1043 17.1188C43.6446 17.0253 43.3113 16.8616 43.0929 16.616C42.8745 16.3821 42.7711 16.1014 42.7711 15.774C42.7711 15.4933 42.8171 15.2477 42.9205 15.0372C43.0125 14.8267 43.1504 14.663 43.3343 14.5226C43.5182 14.394 43.725 14.2887 43.9779 14.2303C44.2307 14.1601 44.5066 14.1367 44.8169 14.1367C45.0697 14.1367 45.3111 14.1601 45.5295 14.2303C45.7478 14.2887 45.9317 14.3823 46.0926 14.4993C46.2535 14.6279 46.38 14.7799 46.4719 14.967C46.5639 15.1541 46.6213 15.388 46.6443 15.657L45.6559 15.7857C45.6214 15.505 45.5295 15.3062 45.3915 15.1775C45.2536 15.0489 45.0468 14.9904 44.7709 14.9904C44.587 14.9904 44.4491 15.0021 44.3227 15.0372C44.2077 15.0723 44.1158 15.1191 44.0468 15.1775C43.9779 15.236 43.9319 15.3062 43.8974 15.3763C43.863 15.4465 43.8515 15.5167 43.8515 15.5868C43.8515 15.7623 43.8974 15.9026 44.0009 15.9962C44.0928 16.0897 44.2422 16.1599 44.4261 16.195L44.9778 16.3236C45.2306 16.3821 45.4375 16.4522 45.6099 16.5458C45.7823 16.6394 45.9202 16.7446 46.0237 16.8616C46.1271 16.9785 46.1961 17.1071 46.2535 17.2358C46.288 17.3644 46.311 17.5048 46.311 17.6685Z"
    />
</svg>