<svg xmlns="http://www.w3.org/2000/svg" width="60" height="60" viewBox="0 0 60 60" fill="none">
    <path
        d="M13.6635 31.4152C15.0857 31.4152 15.3981 39.071 15.3981 39.071C15.3981 39.071 14.7094 46.2295 22.9392 46.2295C31.1691 46.2295 30.7577 39.4983 30.7577 39.4983V29.3585C30.7577 23.1471 32.8654 20.7684 33.9017 19.9744C34.2525 19.7066 34.4629 19.2984 34.4629 18.8584C34.4629 17.7583 33.2512 17.0919 32.3202 17.6786C30.4134 18.8839 27.8114 21.218 27.0557 25.2452C26.2171 29.722 26.1374 33.8194 26.1725 35.9813C26.1884 36.8677 25.471 37.5883 24.5846 37.5883C23.6981 37.5883 22.9839 36.8645 22.9966 35.9813C23.0317 33.9501 22.952 30.4873 22.1134 28.5358M26.4912 21.4125H27.4733M25.4518 24.4193H26.8006M24.999 28.1244H26.233M37.1986 25.4652L35.8817 27.6366C35.4927 28.2807 35.2854 29.0173 35.2854 29.7698V38.6533C35.2854 39.5748 35.5947 40.474 36.1655 41.1978L37.1954 42.5084M42.8648 29.9739H35.2854M42.8648 34.0904H35.2854M42.8648 37.7924H35.2854M11.3107 28.2921L20.7384 24.1457C21.4638 23.8267 22.3105 24.1561 22.6296 24.8815L22.9646 25.6434C23.2836 26.3688 22.9542 27.2154 22.2288 27.5345L12.8011 31.6808C12.0757 31.9999 11.229 31.6704 10.9099 30.945L10.5749 30.1832C10.2559 29.4578 10.5853 28.6111 11.3107 28.2921ZM41.5831 43.7838L41.7935 43.4075C42.1124 42.8336 42.2527 42.1767 42.1953 41.5199L40.99 27.8216C40.9103 26.9287 40.7221 26.0487 40.4224 25.2037L37.2944 16.3266C36.9181 15.2552 37.7121 14.1328 38.8472 14.1328H48.8053C49.9372 14.1328 50.7312 15.2456 50.3613 16.3138L47.2971 25.2069C47.0069 26.0487 46.822 26.9256 46.7486 27.8152L45.6581 41.0767C45.6039 41.7527 45.757 42.4286 46.0981 43.0122L46.5318 43.7519C47.1759 44.8488 46.3851 46.2295 45.1129 46.2295H43.0211C41.7648 46.2295 40.974 44.8807 41.5831 43.7838Z"
         stroke-linecap="round" stroke-linejoin="round" />
</svg>