<svg width="60" height="60" viewBox="0 0 60 60" fill="none" xmlns="http://www.w3.org/2000/svg">
<path d="M37.4883 21.928C37.4883 21.5138 37.1525 21.178 36.7383 21.178C36.3241 21.178 35.9883 21.5138 35.9883 21.928H37.4883ZM35.9883 26.5997C35.9883 27.0139 36.3241 27.3497 36.7383 27.3497C37.1525 27.3497 37.4883 27.0139 37.4883 26.5997H35.9883ZM38.3042 22.8488C38.6569 23.066 39.1189 22.9561 39.3361 22.6034C39.5532 22.2506 39.4433 21.7886 39.0906 21.5715L38.3042 22.8488ZM35.0698 19.0962C34.7171 18.879 34.2551 18.9889 34.0379 19.3417C33.8208 19.6944 33.9307 20.1564 34.2834 20.3735L35.0698 19.0962ZM19.8839 19.4304C19.9442 19.0206 19.6608 18.6395 19.251 18.5792C18.8412 18.5189 18.4601 18.8023 18.3998 19.2121L19.8839 19.4304ZM17 33.8781L16.258 33.7689C16.2263 33.9845 16.2899 34.2033 16.4324 34.3683C16.5748 34.5333 16.782 34.6281 17 34.6281V33.8781ZM25.8656 34.6281C26.2798 34.6281 26.6156 34.2923 26.6156 33.8781C26.6156 33.4639 26.2798 33.1281 25.8656 33.1281V34.6281ZM22.1812 20.1773C22.1812 19.7631 21.8454 19.4273 21.4312 19.4273C21.017 19.4273 20.6812 19.7631 20.6812 20.1773H22.1812ZM21.4312 27.5263H20.6812C20.6812 27.9405 21.017 28.2763 21.4312 28.2763V27.5263ZM24.2752 24.6791H23.5252C23.5252 25.0933 23.861 25.4291 24.2752 25.4291V24.6791ZM25.0252 20.6038C25.0252 20.1896 24.6894 19.8538 24.2752 19.8538C23.861 19.8538 23.5252 20.1896 23.5252 20.6038H25.0252ZM43.1125 35.1606V35.9106C43.5267 35.9106 43.8625 35.5748 43.8625 35.1606H43.1125ZM27.2732 35.1606H26.5232C26.5232 35.5748 26.8589 35.9106 27.2732 35.9106V35.1606ZM27.2732 30.8801L27.0245 30.1726C26.7241 30.2781 26.5232 30.5618 26.5232 30.8801H27.2732ZM43.1125 25.3139H43.8625C43.8625 25.0707 43.7446 24.8426 43.5461 24.702C43.3477 24.5613 43.0933 24.5257 42.8639 24.6063L43.1125 25.3139ZM30.4346 35.1606V34.4106C30.0204 34.4106 29.6846 34.7464 29.6846 35.1606H30.4346ZM39.9607 35.1606H40.7107C40.7107 34.7464 40.3749 34.4106 39.9607 34.4106V35.1606ZM39.9607 51V51.75C40.3749 51.75 40.7107 51.4142 40.7107 51H39.9607ZM30.4346 51H29.6846C29.6846 51.4142 30.0204 51.75 30.4346 51.75V51ZM19.1418 33.1281C18.7276 33.1281 18.3918 33.4639 18.3918 33.8781C18.3918 34.2923 18.7276 34.6281 19.1418 34.6281V33.1281ZM23.852 33.8781H24.602C24.602 33.4639 24.2662 33.1281 23.852 33.1281V33.8781ZM19.145 33.8781H19.895C19.895 33.4639 19.5593 33.1281 19.145 33.1281V33.8781ZM26.4302 13.0368C26.4302 14.852 24.9586 16.3236 23.1434 16.3236V17.8236C25.787 17.8236 27.9302 15.6805 27.9302 13.0368H26.4302ZM23.1434 16.3236C21.3281 16.3236 19.8566 14.852 19.8566 13.0368H18.3566C18.3566 15.6805 20.4997 17.8236 23.1434 17.8236V16.3236ZM19.8566 13.0368C19.8566 11.2215 21.3281 9.75 23.1434 9.75V8.25C20.4997 8.25 18.3566 10.3931 18.3566 13.0368H19.8566ZM23.1434 9.75C24.9586 9.75 26.4302 11.2215 26.4302 13.0368H27.9302C27.9302 10.3931 25.787 8.25 23.1434 8.25V9.75ZM35.9883 21.928V26.5997H37.4883V21.928H35.9883ZM35.4721 19.7349C35.4721 20.1742 35.1159 20.5303 34.6766 20.5303V22.0303C35.9444 22.0303 36.9721 21.0026 36.9721 19.7349H35.4721ZM34.6766 20.5303C34.2373 20.5303 33.8812 20.1742 33.8812 19.7349H32.3812C32.3812 21.0026 33.4089 22.0303 34.6766 22.0303V20.5303ZM33.8812 19.7349C33.8812 19.2955 34.2373 18.9394 34.6766 18.9394V17.4394C33.4089 17.4394 32.3812 18.4671 32.3812 19.7349H33.8812ZM34.6766 18.9394C35.1159 18.9394 35.4721 19.2955 35.4721 19.7349H36.9721C36.9721 18.4671 35.9444 17.4394 34.6766 17.4394V18.9394ZM39.0906 21.5715L35.0698 19.0962L34.2834 20.3735L38.3042 22.8488L39.0906 21.5715ZM18.3998 19.2121L16.258 33.7689L17.742 33.9873L19.8839 19.4304L18.3998 19.2121ZM17 34.6281H25.8656V33.1281H17V34.6281ZM20.6812 20.1773V27.5263H22.1812V20.1773H20.6812ZM21.4312 28.2763H28.2799V26.7763H21.4312V28.2763ZM28.2799 28.2763C29.4797 28.2763 30.4536 27.3024 30.4536 26.1027H28.9536C28.9536 26.474 28.6513 26.7763 28.2799 26.7763V28.2763ZM30.4536 26.1027C30.4536 24.9029 29.4797 23.9291 28.2799 23.9291V25.4291C28.6513 25.4291 28.9536 25.7313 28.9536 26.1027H30.4536ZM28.2799 23.9291H24.2752V25.4291H28.2799V23.9291ZM25.0252 24.6791V20.6038H23.5252V24.6791H25.0252ZM43.1125 34.4106H27.2732V35.9106H43.1125V34.4106ZM28.0232 35.1606V30.8801H26.5232V35.1606H28.0232ZM27.5218 31.5877L43.3612 26.0215L42.8639 24.6063L27.0245 30.1726L27.5218 31.5877ZM42.3625 25.3139V35.1606H43.8625V25.3139H42.3625ZM30.4346 35.9106H39.9607V34.4106H30.4346V35.9106ZM39.2107 35.1606V51H40.7107V35.1606H39.2107ZM39.9607 50.25H30.4346V51.75H39.9607V50.25ZM31.1846 51V35.1606H29.6846V51H31.1846ZM19.1418 34.6281H23.852V33.1281H19.1418V34.6281ZM23.102 33.8781V48.6465H24.602V33.8781H23.102ZM23.102 48.6465C23.102 49.5309 22.3829 50.25 21.4985 50.25V51.75C23.2113 51.75 24.602 50.3593 24.602 48.6465H23.102ZM21.4985 50.25C20.6142 50.25 19.895 49.5309 19.895 48.6465H18.395C18.395 50.3593 19.7857 51.75 21.4985 51.75V50.25ZM19.895 48.6465V33.8781H18.395V48.6465H19.895ZM19.145 33.1281H19.1418V34.6281H19.145V33.1281Z" />
</svg>
