<svg width="40" height="40" viewBox="0 0 40 40" fill="none" xmlns="http://www.w3.org/2000/svg">
<path d="M11.4766 17.7088V7.27072C11.4766 6.01642 12.493 5 13.7473 5C15.0016 5 16.018 6.01642 16.018 7.27072V17.0577" stroke="#4D4D4D" stroke-linecap="round" stroke-linejoin="round"/>
<path d="M22.9432 12.7715H22.9408C21.6748 12.7715 20.6484 13.7978 20.6484 15.0638V18.9469C20.6484 20.2129 21.6748 21.2392 22.9408 21.2392H22.9432C24.2092 21.2392 25.2355 20.2129 25.2355 18.9469V15.0638C25.2355 13.7978 24.2092 12.7715 22.9432 12.7715Z" stroke="#4D4D4D" stroke-linecap="round" stroke-linejoin="round"/>
<path d="M16.0625 14.7103C16.0625 13.4488 17.0957 12.418 18.3548 12.418C19.6164 12.418 20.6472 13.4512 20.6472 14.7103V18.591" stroke="#4D4D4D" stroke-linecap="round" stroke-linejoin="round"/>
<path d="M15.0017 23.7088V21.9451C15.0017 21.5558 15.3165 21.2386 15.7081 21.2386H18.0389C19.1923 21.2386 20.1294 20.3039 20.1294 19.1481C20.1294 17.9947 19.1947 17.0576 18.0389 17.0576H14.437C12.099 17.0576 10.2031 18.9535 10.2031 21.2915V22.2262C10.2031 23.7232 10.799 25.1601 11.8563 26.2174L12.8199 27.181C13.0842 27.4453 13.2332 27.8057 13.2332 28.1782V29.3508" stroke="#4D4D4D" stroke-linecap="round" stroke-linejoin="round"/>
<path d="M25.9408 30.0599C25.9408 30.0599 30.0834 28.051 29.7758 20.9409V11.1516C29.7758 9.89728 28.7594 8.88086 27.5051 8.88086C26.2508 8.88086 25.2344 9.89728 25.2344 11.1516V18.7687" stroke="#4D4D4D" stroke-linecap="round" stroke-linejoin="round"/>
<path d="M27.4024 30.0596H12.7424C12.2116 30.0596 11.7812 30.4899 11.7812 31.0207V34.0387C11.7812 34.5696 12.2116 34.9999 12.7424 34.9999H27.4024C27.9332 34.9999 28.3635 34.5696 28.3635 34.0387V31.0207C28.3635 30.4899 27.9332 30.0596 27.4024 30.0596Z" stroke="#4D4D4D" stroke-linecap="round" stroke-linejoin="round"/>
</svg>
