<svg xmlns="http://www.w3.org/2000/svg" width="60" height="60" viewBox="0 0 60 60" fill="none">
    <path
        d="M21.5199 31.0528L26.658 27.3146M24.3249 33.3925L28.0626 30.5855M33.6672 46.9537L37.405 44.15M12.1775 21.7003L22.4538 14.2171M15.4828 26.7996L26.1577 18.9412M13.1111 13.2825C13.1111 13.2825 12.3922 16.5262 15.0873 19.5822M14.2596 12.273C14.2596 12.273 17.3943 12.6789 19.1661 16.2227M24.6584 28.0071C24.6584 28.0071 25.3773 24.7634 22.6822 21.7074M23.5072 29.0165C23.5072 29.0165 20.3725 28.6106 18.6008 25.0668M13.1116 24.0129L14.5222 23.6104C15.7283 23.266 16.7948 22.5395 17.558 21.5401C18.2395 20.6499 19.1629 19.9746 20.2157 19.5926L20.3349 19.5482C21.8341 19.0059 23.0471 17.8769 23.6945 16.4205L23.8546 16.059M30.9212 33.3926L32.1546 31.428C32.8804 30.2751 33.3437 28.9756 33.5141 27.6215L33.5652 27.2191C33.7151 26.0321 33.6913 24.8315 33.5857 23.6412C33.3949 21.4617 33.9264 18.9991 35.245 16.7105C38.0151 11.9081 43.1805 9.70136 46.7853 11.7853C50.3902 13.8693 51.0648 19.4493 48.2947 24.2517C47.1056 26.3152 45.4701 27.9012 43.712 28.8699C43.2486 29.1257 42.5467 29.4258 42.0288 29.6373C41.5552 29.8317 41.0952 30.0636 40.6625 30.3365L39.1395 31.2881C38.1309 31.9191 37.2484 32.7377 36.5466 33.7029L34.1104 37.0421M29.6529 43.1577L28.7397 44.4095L27.2985 48.018C27.0293 48.6934 26.4637 49.205 25.7652 49.4028L24.801 49.6791C24.3137 49.8189 23.789 49.836 23.3086 49.6654C22.3375 49.3244 21.731 48.4205 21.731 47.445V46.5344C21.731 45.8761 22.007 45.2485 22.4909 44.8051L25.4688 42.0697L26.9543 39.7094M39.4835 30.8448L34.3454 27.1032M36.6821 33.1845L32.9443 30.3774M27.3369 46.7456L23.5991 43.942M48.8292 21.4925L38.5495 14.0093M45.521 26.5915L34.8495 18.7331M47.8925 13.0745C47.8925 13.0745 48.6114 16.3181 45.9163 19.3742M46.7441 12.065C46.7441 12.065 43.6095 12.4709 41.8377 16.0146M36.3452 27.7988C36.3452 27.7988 35.6263 24.5552 38.3214 21.4991M37.4966 28.8084C37.4966 28.8084 40.6313 28.4025 42.403 24.8588M47.8925 23.8049L46.4819 23.4024C45.2757 23.0579 44.2092 22.3314 43.446 21.3321C42.7646 20.4419 41.8412 19.7665 40.7884 19.3845L40.6691 19.3402C39.1699 18.7979 37.9569 17.6689 37.3096 16.2125L37.1494 15.851M38.5122 45.013L35.5343 42.2776L28.8458 31.636C28.1201 30.4832 27.6567 29.1837 27.4864 27.8296L27.4352 27.4271C27.2853 26.2402 27.3092 25.0396 27.4148 23.8492C27.6056 21.6697 27.0741 19.2072 25.7555 16.9185C22.9854 12.1196 17.8166 9.91622 14.2151 11.9968C10.6103 14.0808 9.93564 19.6608 12.7057 24.4666C13.8949 26.5301 15.5303 28.1161 17.2885 29.0847C17.7519 29.3405 18.4538 29.6407 18.9717 29.8522C19.4453 30.0466 19.9052 30.2785 20.338 30.5514L21.861 31.503C22.8695 32.134 23.752 32.9525 24.4539 33.9178L32.2667 44.6208L33.708 48.2294C33.9772 48.9047 34.5428 49.4163 35.2412 49.6142L36.2055 49.8904C36.6927 50.0303 37.2174 50.0473 37.6979 49.8768C38.6689 49.5357 39.2754 48.6319 39.2754 47.6564V46.7457C39.2754 46.0874 38.9994 45.4598 38.5156 45.0164L38.5122 45.013Z"
         stroke-linecap="round" stroke-linejoin="round" />
</svg>