<svg width="60" height="60" viewBox="0 0 60 60" fill="none" xmlns="http://www.w3.org/2000/svg">
<path d="M37.3842 20.1333C37.0012 20.2909 36.8184 20.7292 36.976 21.1123C37.1337 21.4953 37.572 21.6781 37.955 21.5204L37.3842 20.1333ZM47.438 22.0848L47.8223 21.4408L47.8176 21.438L47.438 22.0848ZM48.0862 22.1137L48.4005 22.7947L48.4084 22.7909L48.0862 22.1137ZM51 20.7274L51.6711 21.0623C51.814 20.776 51.7595 20.4305 51.5353 20.2021C51.3112 19.9737 50.9668 19.9126 50.6778 20.0501L51 20.7274ZM49.2094 24.3151L48.5383 23.9802C48.4643 24.1285 48.4415 24.2971 48.4734 24.4597L49.2094 24.3151ZM50.2427 32.081L49.5361 31.8294L49.5346 31.8337L50.2427 32.081ZM49.8383 32.7581L49.245 32.2993L49.2447 32.2998L49.8383 32.7581ZM46.825 31.9911L46.2202 32.4346L46.2204 32.4349L46.825 31.9911ZM44.1487 26.9273L44.8735 27.1201C44.9503 26.8312 44.8483 26.5242 44.6138 26.3389L44.1487 26.9273ZM39.7009 31.2851L38.9557 31.2008C38.9092 31.6116 39.204 31.9826 39.6147 32.0302L39.7009 31.2851ZM42.1398 31.5675L42.0536 32.3126L42.0543 32.3127L42.1398 31.5675ZM42.7592 32.8383L42.1041 32.4731L42.1041 32.4731L42.7592 32.8383ZM38.2276 39.4271C38.0259 39.7889 38.1557 40.2457 38.5175 40.4474C38.8793 40.6491 39.336 40.5193 39.5377 40.1575L38.2276 39.4271ZM35.8071 37.5388C35.5745 37.8816 35.6638 38.348 36.0066 38.5806C36.3493 38.8131 36.8157 38.7238 37.0483 38.3811L35.8071 37.5388ZM39.2934 33.7369L39.914 34.158C40.065 33.9354 40.0853 33.6491 39.9672 33.4075C39.8491 33.1659 39.6107 33.006 39.3423 32.9885L39.2934 33.7369ZM34.3804 33.416L34.4292 32.6675C34.1655 32.6503 33.9121 32.7732 33.7623 32.9911L34.3804 33.416ZM28.2382 34.6931L28.5259 34.0005C28.2748 33.8962 27.9869 33.936 27.7734 34.1045C27.56 34.2731 27.4545 34.5439 27.4978 34.8124L28.2382 34.6931ZM23.3252 41.4963L23.2155 40.7544C22.8858 40.8031 22.6278 41.0637 22.5822 41.3939L23.3252 41.4963ZM21.7663 46.9072C21.7009 47.3162 21.9795 47.7008 22.3886 47.7661C22.7976 47.8315 23.1821 47.5529 23.2475 47.1438L21.7663 46.9072ZM16.6886 46.8586C16.5982 47.2628 16.8526 47.6638 17.2568 47.7542C17.661 47.8446 18.062 47.5903 18.1524 47.186L16.6886 46.8586ZM19.0379 39.7923V39.0423C18.6868 39.0423 18.3826 39.2859 18.306 39.6286L19.0379 39.7923ZM21.6918 30.0112L22.2997 30.4504C22.5308 30.1306 22.4746 29.6864 22.171 29.4342L21.6918 30.0112ZM18.4153 30.438L17.7659 30.0628C17.7565 30.0791 17.7477 30.0957 17.7395 30.1127L18.4153 30.438ZM9 36.8175L8.91369 36.0725C8.61704 36.1069 8.36906 36.314 8.28233 36.5997C8.1956 36.8855 8.28666 37.1955 8.51416 37.3889L9 36.8175ZM17.5264 26.9305L17.9021 27.5796L17.9024 27.5794L17.5264 26.9305ZM23.0524 28.0986L22.8897 28.8307C23.1613 28.8911 23.444 28.7961 23.6241 28.584L23.0524 28.0986ZM26.9738 26.4121C27.3344 26.2084 27.4616 25.7508 27.2578 25.3902C27.054 25.0296 26.5965 24.9024 26.2359 25.1062L26.9738 26.4121ZM36.7197 23.1076C37.134 23.1076 37.4697 22.7718 37.4697 22.3576C37.4697 21.9434 37.134 21.6076 36.7197 21.6076V23.1076ZM31.0301 17.1653L30.7265 16.4795L30.725 16.4802L31.0301 17.1653ZM26.1941 19.3186L25.889 18.6335C25.87 18.6419 25.8513 18.6512 25.833 18.6612L26.1941 19.3186ZM25.6132 23.3877L26.1508 22.8646L26.1506 22.8645L25.6132 23.3877ZM27.8146 25.6501L28.5145 25.9196C28.6198 25.6463 28.5563 25.3369 28.3522 25.127L27.8146 25.6501ZM26.4765 29.1255L25.7766 28.856L25.7762 28.8568L26.4765 29.1255ZM27.4135 31.1472L27.1881 31.8625C27.1974 31.8654 27.2067 31.8682 27.2161 31.8707L27.4135 31.1472ZM27.4488 31.1568L27.6751 30.4417C27.6655 30.4387 27.6559 30.4359 27.6462 30.4332L27.4488 31.1568ZM29.2266 30.3802L29.8981 30.7143L29.8982 30.714L29.2266 30.3802ZM31.3991 26.0031L32.0711 26.3363L32.0752 26.3278L31.3991 26.0031ZM31.0911 24.0391L30.5509 24.5594L30.5524 24.561L31.0911 24.0391ZM29.1891 20.9837C28.9018 20.6853 28.427 20.6765 28.1287 20.9638C27.8304 21.2512 27.8215 21.726 28.1088 22.0243L29.1891 20.9837ZM38.5434 15.3394C38.5434 16.2441 37.8442 16.9288 37.0406 16.9288V18.4288C38.7254 18.4288 40.0434 17.0187 40.0434 15.3394H38.5434ZM37.0406 16.9288C36.2371 16.9288 35.5379 16.2441 35.5379 15.3394H34.0379C34.0379 17.0187 35.3558 18.4288 37.0406 18.4288V16.9288ZM35.5379 15.3394C35.5379 14.4347 36.2371 13.75 37.0406 13.75V12.25C35.3558 12.25 34.0379 13.6601 34.0379 15.3394H35.5379ZM37.0406 13.75C37.8442 13.75 38.5434 14.4347 38.5434 15.3394H40.0434C40.0434 13.6601 38.7254 12.25 37.0406 12.25V13.75ZM37.955 21.5204C38.6384 21.2392 39.3065 20.9938 39.904 20.8197C40.5126 20.6423 41.0009 20.5532 41.3408 20.5532V19.0532C40.7885 19.0532 40.1392 19.1887 39.4843 19.3796C38.8182 19.5737 38.0968 19.8401 37.3842 20.1333L37.955 21.5204ZM41.3408 20.5532C42.1966 20.5532 43.3551 20.9236 44.4887 21.4164C45.5967 21.8981 46.5819 22.452 47.0583 22.7316L47.8176 21.438C47.3153 21.1432 46.2723 20.5562 45.0867 20.0408C43.9266 19.5364 42.5259 19.0532 41.3408 19.0532V20.5532ZM47.0536 22.7288C47.4777 22.9819 47.9808 22.9883 48.4005 22.7947L47.7719 21.4327C47.773 21.4322 47.7784 21.4301 47.7882 21.4305C47.7988 21.4309 47.8113 21.4342 47.8223 21.4408L47.0536 22.7288ZM48.4084 22.7909L51.3222 21.4046L50.6778 20.0501L47.764 21.4364L48.4084 22.7909ZM50.3289 20.3925L48.5383 23.9802L49.8804 24.65L51.6711 21.0623L50.3289 20.3925ZM49.2094 24.3151C48.4734 24.4597 48.4734 24.4597 48.4734 24.4598C48.4734 24.4598 48.4735 24.4599 48.4735 24.46C48.4735 24.4601 48.4736 24.4604 48.4736 24.4608C48.4738 24.4616 48.474 24.4627 48.4743 24.4643C48.475 24.4675 48.4759 24.4723 48.4771 24.4787C48.4796 24.4914 48.4833 24.5105 48.4882 24.5355C48.4979 24.5854 48.5121 24.6591 48.5302 24.7532C48.5662 24.9416 48.6175 25.212 48.678 25.5394C48.7991 26.1946 48.957 27.0761 49.1049 27.9841C49.2531 28.8943 49.3897 29.8212 49.4695 30.5706C49.5095 30.9464 49.5339 31.2652 49.5397 31.5091C49.5465 31.7942 49.5231 31.866 49.5361 31.8294L50.9492 32.3326C51.0417 32.0729 51.0455 31.7348 51.0393 31.4732C51.032 31.1705 51.003 30.8059 50.961 30.4118C50.8769 29.6214 50.7352 28.6627 50.5854 27.7429C50.4352 26.821 50.2753 25.9283 50.153 25.2667C50.0918 24.9358 50.04 24.6622 50.0034 24.4712C49.9851 24.3756 49.9706 24.3007 49.9607 24.2496C49.9557 24.224 49.9519 24.2043 49.9493 24.191C49.948 24.1844 49.947 24.1793 49.9463 24.1758C49.946 24.1741 49.9457 24.1728 49.9456 24.1719C49.9455 24.1715 49.9454 24.1711 49.9454 24.1709C49.9453 24.1707 49.9453 24.1706 49.9453 24.1706C49.9453 24.1705 49.9453 24.1705 49.2094 24.3151ZM49.5346 31.8337C49.5041 31.9209 49.4154 32.0789 49.245 32.2993L50.4316 33.2169C50.6335 32.9559 50.84 32.6454 50.9507 32.3283L49.5346 31.8337ZM49.2447 32.2998C49.1102 32.4739 48.997 32.5304 48.9211 32.5511C48.8406 32.5731 48.7281 32.5747 48.5692 32.5189C48.2271 32.3989 47.8026 32.0555 47.4297 31.5474L46.2204 32.4349C46.6882 33.0724 47.3355 33.6757 48.0725 33.9343C48.4532 34.0679 48.8819 34.1168 49.3166 33.998C49.7559 33.878 50.1316 33.6055 50.432 33.2164L49.2447 32.2998ZM47.4299 31.5477C47.1453 31.1596 46.7908 30.756 46.4602 30.3736C46.1194 29.9795 45.7924 29.595 45.5152 29.2038C44.9464 28.4009 44.7094 27.737 44.8735 27.1201L43.4239 26.7345C43.081 28.0237 43.6574 29.1761 44.2912 30.0708C44.6154 30.5284 44.9869 30.963 45.3255 31.3547C45.6743 31.7581 45.9801 32.1071 46.2202 32.4346L47.4299 31.5477ZM44.1487 26.9273C44.6138 26.3389 44.6134 26.3386 44.613 26.3382C44.6128 26.3381 44.6124 26.3378 44.6121 26.3375C44.6114 26.337 44.6107 26.3365 44.61 26.3359C44.6085 26.3348 44.6068 26.3334 44.6048 26.3319C44.6009 26.3289 44.5961 26.3252 44.5904 26.3209C44.5789 26.3122 44.5639 26.301 44.5454 26.2878C44.5085 26.2613 44.4577 26.2261 44.3945 26.1858C44.2689 26.1057 44.0903 26.0024 43.872 25.9059C43.4463 25.7178 42.8061 25.5276 42.0957 25.6586C41.3512 25.7958 40.6503 26.2632 40.1007 27.1652C39.5657 28.0431 39.1664 29.34 38.9557 31.2008L40.4462 31.3695C40.6446 29.6169 41.0059 28.5624 41.3816 27.9457C41.7427 27.3531 42.1026 27.1826 42.3676 27.1337C42.6669 27.0786 42.9852 27.154 43.2656 27.2779C43.4004 27.3375 43.5117 27.4019 43.5878 27.4504C43.6254 27.4744 43.6533 27.4939 43.67 27.5058C43.6783 27.5118 43.6838 27.5159 43.6861 27.5176C43.6873 27.5185 43.6877 27.5188 43.6873 27.5185C43.6871 27.5184 43.6867 27.518 43.686 27.5176C43.6857 27.5173 43.6854 27.5171 43.685 27.5167C43.6848 27.5166 43.6844 27.5163 43.6843 27.5162C43.684 27.5159 43.6836 27.5156 44.1487 26.9273ZM39.6147 32.0302L42.0536 32.3126L42.2261 30.8225L39.7872 30.5401L39.6147 32.0302ZM42.0543 32.3127C42.0653 32.3139 42.0716 32.3169 42.0779 32.3216C42.0858 32.3275 42.0969 32.3391 42.1061 32.3579C42.1251 32.3969 42.1238 32.4379 42.1041 32.4731L43.4142 33.2036C43.9515 32.2399 43.3813 30.9551 42.2253 30.8224L42.0543 32.3127ZM42.1041 32.4731L38.2276 39.4271L39.5377 40.1575L43.4143 33.2035L42.1041 32.4731ZM37.0483 38.3811L39.914 34.158L38.6728 33.3157L35.8071 37.5388L37.0483 38.3811ZM39.3423 32.9885L34.4292 32.6675L34.3315 34.1644L39.2445 34.4853L39.3423 32.9885ZM34.3804 33.416C33.7623 32.9911 33.7626 32.9907 33.7628 32.9904C33.7629 32.9903 33.7631 32.9899 33.7632 32.9897C33.7635 32.9893 33.7637 32.989 33.764 32.9887C33.7644 32.9881 33.7647 32.9876 33.7649 32.9874C33.7653 32.9868 33.7652 32.9869 33.7646 32.9877C33.7635 32.9893 33.7605 32.9934 33.7557 32.9999C33.7459 33.0129 33.7288 33.0353 33.7042 33.0653C33.6549 33.1255 33.5766 33.2153 33.4696 33.3209C33.2545 33.5332 32.9302 33.8028 32.499 34.0268C31.6629 34.4613 30.3591 34.762 28.5259 34.0005L27.9505 35.3858C30.2121 36.3251 31.9794 35.9872 33.1906 35.3579C33.7831 35.05 34.2266 34.6814 34.5233 34.3885C34.6722 34.2415 34.7859 34.1119 34.8646 34.0159C34.904 33.9677 34.9348 33.9278 34.9571 33.898C34.9682 33.8832 34.9772 33.8708 34.9841 33.8612C34.9875 33.8564 34.9904 33.8523 34.9928 33.8489C34.994 33.8472 34.9951 33.8456 34.996 33.8443C34.9965 33.8436 34.9969 33.843 34.9973 33.8424C34.9975 33.8422 34.9978 33.8418 34.9979 33.8416C34.9981 33.8412 34.9984 33.8409 34.3804 33.416ZM27.4978 34.8124C27.6616 35.83 27.2505 37.2299 26.394 38.4653C25.5398 39.6973 24.3689 40.5839 23.2155 40.7544L23.4349 42.2383C25.1471 41.9852 26.6382 40.7458 27.6267 39.3199C28.613 37.8974 29.2256 36.1075 28.9787 34.5739L27.4978 34.8124ZM22.5822 41.3939C22.3774 42.8786 22.1734 44.2574 22.0205 45.2652C21.944 45.769 21.8804 46.1799 21.836 46.4646C21.8137 46.607 21.7963 46.7178 21.7844 46.793C21.7785 46.8306 21.7739 46.8592 21.7709 46.8784C21.7693 46.888 21.7682 46.8953 21.7674 46.9001C21.767 46.9025 21.7667 46.9043 21.7665 46.9055C21.7664 46.9061 21.7664 46.9065 21.7663 46.9068C21.7663 46.907 21.7663 46.9071 21.7663 46.9071C21.7663 46.9072 21.7663 46.9072 21.7663 46.9072C21.7663 46.9072 21.7663 46.9072 22.5069 47.0255C23.2475 47.1438 23.2475 47.1438 23.2475 47.1438C23.2475 47.1438 23.2475 47.1437 23.2475 47.1437C23.2475 47.1436 23.2475 47.1435 23.2476 47.1433C23.2476 47.143 23.2477 47.1425 23.2478 47.1418C23.248 47.1405 23.2483 47.1386 23.2487 47.1361C23.2495 47.1311 23.2507 47.1237 23.2523 47.1139C23.2554 47.0942 23.26 47.0652 23.266 47.0272C23.278 46.9512 23.2956 46.8394 23.318 46.6961C23.3628 46.4095 23.4267 45.9964 23.5035 45.4902C23.6571 44.4779 23.8622 43.0921 24.0682 41.5988L22.5822 41.3939ZM18.1524 47.186L19.7698 39.9561L18.306 39.6286L16.6886 46.8586L18.1524 47.186ZM19.0379 40.5423C20.2198 40.5423 21.1187 39.9869 21.6364 39.1914C22.1384 38.4202 22.2705 37.4414 21.995 36.5847L20.567 37.044C20.7023 37.4645 20.6386 37.9747 20.3793 38.3731C20.1357 38.7474 19.7076 39.0423 19.0379 39.0423V40.5423ZM21.995 36.5847C21.8194 36.0387 21.6211 34.8443 21.6215 33.5718C21.6219 32.2682 21.8329 31.0964 22.2997 30.4504L21.0839 29.5719C20.3216 30.6267 20.1219 32.2179 20.1215 33.5714C20.121 34.956 20.3319 36.3128 20.567 37.044L21.995 36.5847ZM22.171 29.4342C21.5709 28.9357 20.9733 28.6714 20.3896 28.6139C19.804 28.5562 19.3048 28.7139 18.9159 28.9343C18.5341 29.1508 18.2513 29.4311 18.0683 29.6459C17.9752 29.7552 17.9035 29.8529 17.8536 29.9258C17.8285 29.9623 17.8086 29.9931 17.7941 30.0163C17.7868 30.028 17.7808 30.0378 17.7761 30.0456C17.7737 30.0495 17.7717 30.0529 17.77 30.0558C17.7692 30.0572 17.7684 30.0585 17.7677 30.0597C17.7674 30.0603 17.7671 30.0608 17.7668 30.0613C17.7666 30.0616 17.7664 30.062 17.7663 30.0621C17.7661 30.0625 17.7659 30.0628 18.4153 30.438C19.0648 30.8131 19.0646 30.8134 19.0644 30.8138C19.0643 30.8139 19.0642 30.8142 19.064 30.8144C19.0638 30.8148 19.0636 30.8151 19.0634 30.8155C19.063 30.8161 19.0627 30.8167 19.0625 30.8171C19.062 30.8179 19.0617 30.8183 19.0618 30.8182C19.0619 30.8181 19.063 30.8162 19.0652 30.8126C19.0697 30.8056 19.0782 30.7922 19.0907 30.7739C19.116 30.7371 19.1563 30.6819 19.2104 30.6183C19.3219 30.4874 19.4743 30.342 19.6557 30.2392C19.83 30.1404 20.0219 30.085 20.2426 30.1067C20.4651 30.1286 20.789 30.2362 21.2125 30.5881L22.171 29.4342ZM17.7395 30.1127C15.3236 35.1323 13.12 36.4632 11.7301 36.718C11.0265 36.847 10.4546 36.7181 10.0586 36.5598C9.85959 36.4802 9.70635 36.3936 9.60671 36.33C9.5571 36.2983 9.52147 36.2728 9.50082 36.2573C9.49052 36.2496 9.48403 36.2445 9.48147 36.2425C9.4802 36.2414 9.47991 36.2412 9.48063 36.2418C9.48099 36.2421 9.48161 36.2426 9.48247 36.2433C9.48291 36.2437 9.4834 36.2441 9.48397 36.2446C9.48425 36.2448 9.48472 36.2452 9.48486 36.2453C9.48534 36.2458 9.48584 36.2462 9 36.8175C8.51416 37.3889 8.51469 37.3894 8.51525 37.3898C8.51545 37.39 8.51603 37.3905 8.51645 37.3908C8.51728 37.3916 8.51819 37.3923 8.51917 37.3931C8.52113 37.3948 8.52339 37.3967 8.52593 37.3988C8.53102 37.403 8.53727 37.408 8.54466 37.414C8.55944 37.4258 8.57883 37.4409 8.6027 37.4588C8.65041 37.4944 8.7163 37.5412 8.79939 37.5942C8.96516 37.7001 9.20205 37.8328 9.50186 37.9527C10.1036 38.1932 10.9644 38.3834 12.0005 38.1935C14.0899 37.8104 16.594 35.9516 19.0911 30.7632L17.7395 30.1127ZM9.08631 37.5626C10.2675 37.4257 11.2654 36.6891 12.0986 35.7993C12.9397 34.9011 13.6997 33.7525 14.3905 32.6226C15.1017 31.4593 15.7159 30.3583 16.3351 29.4064C16.9649 28.4381 17.4803 27.8237 17.9021 27.5796L17.1508 26.2813C16.3804 26.7272 15.6944 27.6403 15.0777 28.5885C14.4502 29.5531 13.7726 30.7576 13.1107 31.8402C12.4284 32.9563 11.7341 33.994 11.0037 34.774C10.2654 35.5625 9.57451 35.996 8.91369 36.0725L9.08631 37.5626ZM17.9024 27.5794C18.7987 27.0602 19.6619 27.2103 20.5168 27.5991C20.9511 27.7967 21.3491 28.0409 21.7346 28.274C21.9203 28.3863 22.1121 28.5014 22.2912 28.5952C22.4637 28.6855 22.6723 28.7824 22.8897 28.8307L23.2151 27.3664C23.1943 27.3618 23.1261 27.3392 22.9873 27.2665C22.8551 27.1972 22.7012 27.1056 22.5107 26.9904C22.1438 26.7685 21.6675 26.4746 21.1379 26.2337C20.0649 25.7457 18.6417 25.4177 17.1505 26.2815L17.9024 27.5794ZM23.6241 28.584C23.6871 28.5098 23.8966 28.3351 24.2644 28.0794C24.6065 27.8415 25.0203 27.5773 25.4252 27.3281C25.8287 27.0797 26.2164 26.8503 26.5037 26.6829C26.6472 26.5992 26.7653 26.5312 26.8472 26.4843C26.8882 26.4608 26.9201 26.4426 26.9416 26.4304C26.9524 26.4242 26.9606 26.4196 26.966 26.4165C26.9687 26.415 26.9707 26.4139 26.972 26.4131C26.9727 26.4128 26.9732 26.4125 26.9734 26.4123C26.9736 26.4122 26.9737 26.4122 26.9737 26.4122C26.9738 26.4121 26.9738 26.4121 26.9738 26.4121C26.9738 26.4121 26.9738 26.4121 26.6048 25.7592C26.2359 25.1062 26.2358 25.1062 26.2358 25.1062C26.2358 25.1063 26.2357 25.1063 26.2356 25.1063C26.2355 25.1064 26.2353 25.1065 26.2351 25.1066C26.2347 25.1069 26.2341 25.1072 26.2333 25.1077C26.2317 25.1086 26.2294 25.1099 26.2263 25.1116C26.2203 25.115 26.2115 25.12 26.2001 25.1265C26.1773 25.1394 26.144 25.1584 26.1016 25.1827C26.0169 25.2313 25.8955 25.3011 25.7483 25.3869C25.4543 25.5583 25.0556 25.7941 24.6388 26.0507C24.2234 26.3065 23.783 26.5872 23.4081 26.8479C23.059 27.0906 22.6889 27.368 22.4807 27.6131L23.6241 28.584ZM46.7297 26.3978C46.7297 26.3771 46.7383 26.3516 46.7591 26.33C46.7803 26.3078 46.8188 26.2864 46.8668 26.2864V27.7864C47.6482 27.7864 48.2297 27.1354 48.2297 26.3978H46.7297ZM46.8668 26.2864C46.9147 26.2864 46.9532 26.3078 46.9744 26.33C46.9952 26.3516 47.0038 26.3771 47.0038 26.3978H45.5038C45.5038 27.1354 46.0853 27.7864 46.8668 27.7864V26.2864ZM47.0038 26.3978C47.0038 26.4184 46.9952 26.4439 46.9744 26.4656C46.9532 26.4877 46.9147 26.5092 46.8668 26.5092V25.0092C46.0853 25.0092 45.5038 25.6602 45.5038 26.3978H47.0038ZM46.8668 26.5092C46.8188 26.5092 46.7803 26.4877 46.7591 26.4656C46.7383 26.4439 46.7297 26.4184 46.7297 26.3978H48.2297C48.2297 25.6602 47.6482 25.0092 46.8668 25.0092V26.5092ZM36.7197 21.6076H34.3804V23.1076H36.7197V21.6076ZM34.3804 21.6076C34.3712 21.6076 34.3582 21.6049 34.3423 21.5884C34.3258 21.5713 34.312 21.5438 34.312 21.5072H32.812C32.812 22.3615 33.4858 23.1076 34.3804 23.1076V21.6076ZM34.312 21.5072V18.7634H32.812V21.5072H34.312ZM34.312 18.7634C34.312 18.3039 34.1011 17.9069 33.8697 17.6132C33.6318 17.3112 33.3208 17.0511 32.9963 16.8495C32.6714 16.6477 32.3025 16.4857 31.9317 16.4028C31.5739 16.3229 31.1331 16.2995 30.7265 16.4795L31.3337 17.8511C31.333 17.8514 31.4118 17.8237 31.6047 17.8668C31.7849 17.907 31.9982 17.9954 32.2048 18.1238C32.4118 18.2523 32.5816 18.402 32.6915 18.5415C32.8079 18.6893 32.812 18.7657 32.812 18.7634H34.312ZM30.725 16.4802L25.889 18.6335L26.4991 20.0038L31.3352 17.8505L30.725 16.4802ZM25.833 18.6612C23.9233 19.7101 23.5562 22.3499 25.0758 23.9109L26.1506 22.8645C25.3084 21.9994 25.5318 20.538 26.5551 19.976L25.833 18.6612ZM25.0757 23.9107L27.2771 26.1731L28.3522 25.127L26.1508 22.8646L25.0757 23.9107ZM27.1147 25.3806L25.7766 28.856L27.1764 29.395L28.5145 25.9196L27.1147 25.3806ZM25.7762 28.8568C25.3123 30.0658 25.9286 31.4655 27.1881 31.8625L27.639 30.4318C27.249 30.3089 27.0052 29.8409 27.1767 29.3941L25.7762 28.8568ZM27.2161 31.8707L27.2514 31.8804L27.6462 30.4332L27.6109 30.4236L27.2161 31.8707ZM27.2225 31.8718C28.2884 32.2092 29.4064 31.7024 29.8981 30.7143L28.5552 30.0461C28.3794 30.3994 28.0084 30.5472 27.6751 30.4417L27.2225 31.8718ZM29.8982 30.714C30.3011 29.9035 30.8443 28.809 31.2868 27.9173C31.508 27.4714 31.7041 27.0761 31.8448 26.7924C31.9152 26.6505 31.9718 26.5365 32.0107 26.4579C32.0302 26.4186 32.0453 26.3882 32.0555 26.3676C32.0606 26.3573 32.0645 26.3495 32.0671 26.3442C32.0684 26.3416 32.0694 26.3396 32.0701 26.3383C32.0704 26.3376 32.0706 26.3371 32.0708 26.3368C32.0709 26.3366 32.071 26.3365 32.071 26.3364C32.071 26.3364 32.071 26.3363 32.071 26.3363C32.0711 26.3363 32.0711 26.3363 31.3991 26.0031C30.7272 25.6698 30.7272 25.6698 30.7272 25.6699C30.7272 25.6699 30.7272 25.6699 30.7272 25.67C30.7271 25.67 30.7271 25.6702 30.727 25.6703C30.7268 25.6707 30.7266 25.6712 30.7262 25.6718C30.7256 25.6732 30.7246 25.6752 30.7233 25.6778C30.7207 25.6831 30.7168 25.6909 30.7117 25.7012C30.7015 25.7218 30.6864 25.7522 30.6669 25.7914C30.628 25.87 30.5714 25.984 30.5011 26.1258C30.3603 26.4096 30.1643 26.8047 29.9431 27.2506C29.5006 28.1423 28.9576 29.2363 28.555 30.0464L29.8982 30.714ZM32.0752 26.3278C32.5224 25.3968 32.3541 24.2648 31.6297 23.5172L30.5524 24.561C30.8293 24.8467 30.9048 25.3 30.7231 25.6783L32.0752 26.3278ZM31.6312 23.5188L29.1891 20.9837L28.1088 22.0243L30.5509 24.5594L31.6312 23.5188Z"/>
</svg>
