<svg width="60" height="60" viewBox="0 0 60 60" fill="none" xmlns="http://www.w3.org/2000/svg">
<path d="M47.1252 30.1909V46.117C47.1252 48.2635 45.2572 50 42.9543 50H16.1708C13.868 50 12 48.2603 12 46.117V30.1909M21.2146 30.1189H12.6133V33.4324C12.6133 34.8999 13.8054 36.092 15.2728 36.092H18.5551C20.0225 36.092 21.2146 34.8999 21.2146 33.4324M21.2146 30.1189V33.4324M21.2146 30.1189H29.816V33.4324C29.816 34.8999 28.6239 36.092 27.1564 36.092H23.8742C22.4068 36.092 21.2146 34.8999 21.2146 33.4324M38.53 30.1189H29.9287V33.4324C29.9287 34.8999 31.1208 36.092 32.5882 36.092H35.8705C37.3379 36.092 38.53 34.8999 38.53 33.4324M38.53 30.1189V33.4324M38.53 30.1189H47.1314V33.4324C47.1314 34.8999 45.9393 36.092 44.4718 36.092H41.1896C39.7222 36.092 38.53 34.8999 38.53 33.4324M12.0751 30.1564L29.5125 17.9693L47.0939 30.0344H38.3611M28.5957 19.5025L20.6827 29.465M30.3542 19.5025L38.2672 29.465M30.2134 14.8154L36.6058 11.4049L29.4468 10L29.475 17.9944V29.465M38.4362 34.8529V41.4549M21.0019 35.1658V41.6083M29.816 36.0951C29.816 36.0951 26.8373 48.326 18.7835 49.3586C15.9268 44.9531 14.6752 42.7284 14.6752 42.7284C14.6752 42.7284 23.7897 43.9424 29.8129 36.0982L29.816 36.0951ZM41.1083 49.1802C33.0576 48.1477 30.0757 35.9168 30.0757 35.9168C36.0989 43.7641 45.2134 42.5469 45.2134 42.5469L41.1051 49.1771L41.1083 49.1802Z"  stroke-linecap="round" stroke-linejoin="round"/>
</svg>
