<svg width="60" height="60" viewBox="0 0 60 60" fill="none" xmlns="http://www.w3.org/2000/svg">
<path d="M11.1607 25.0085C11.1607 25.0085 20.6179 16.531 32.0464 18.1636C43.475 19.7963 49.8097 27.184 49.8097 27.184M32.9672 10.7561C32.9672 10.7561 34.91 45.0868 25.9263 49.5847M21.4299 12.0424C21.4299 12.0424 27.7361 12.8424 27.8177 17.9567C27.9606 26.7363 12.7483 39.6669 13.0055 40.5485M42.6858 14.5396C42.6858 14.5396 38.747 15.2784 38.2572 20.1233C37.347 29.1845 46.3266 36.9396 42.6531 45.1029M50 30C50 41.0457 41.0457 50 30 50C18.9543 50 10 41.0457 10 30C10 18.9543 18.9543 10 30 10C41.0457 10 50 18.9543 50 30Z"  stroke-width="1.5" stroke-linecap="round" stroke-linejoin="round"/>
</svg>
