<svg xmlns="http://www.w3.org/2000/svg" width="60" height="60" viewBox="0 0 60 60" fill="none">
    <path
        d="M18.6295 26.9451V13.0276C18.6295 11.3552 19.9848 10 21.6572 10C23.3296 10 24.6848 11.3552 24.6848 13.0276V26.0769M24.7457 22.9467C24.7457 21.2647 26.1234 19.8903 27.8022 19.8903C29.4842 19.8903 30.8586 21.2679 30.8586 22.9467V28.1209M23.3356 34.9452V32.5936C23.3356 32.0746 23.7553 31.6517 24.2775 31.6517H27.3852C28.9231 31.6517 30.1726 30.4054 30.1726 28.8643C30.1726 27.3265 28.9263 26.077 27.3852 26.077H22.5827C19.4653 26.077 16.9375 28.6048 16.9375 31.7221V32.9684C16.9375 34.9644 17.7321 36.8803 19.1417 38.29L20.4265 39.5748C20.7789 39.9272 20.9775 40.4078 20.9775 40.9044V42.4678M37.92 43.4131C37.92 43.4131 43.4434 40.7347 43.0333 31.2545V18.202C43.0333 16.5296 41.6781 15.1744 40.0057 15.1744C38.3333 15.1744 36.978 16.5296 36.978 18.202V28.3582M33.9183 20.3614H33.9215C35.6096 20.3614 36.978 21.7298 36.978 23.4179V28.5953C36.978 30.2833 35.6096 31.6517 33.9215 31.6517H33.9183C32.2303 31.6517 30.8619 30.2833 30.8619 28.5953V23.4179C30.8619 21.7298 32.2303 20.3614 33.9183 20.3614ZM20.3172 43.4129H39.8639C40.5716 43.4129 41.1454 43.9867 41.1454 44.6944V48.7185C41.1454 49.4262 40.5716 50 39.8639 50H20.3172C19.6094 50 19.0357 49.4262 19.0357 48.7185V44.6944C19.0357 43.9867 19.6094 43.4129 20.3172 43.4129Z"
        stroke-linecap="round" stroke-linejoin="round" />
</svg>