<svg width="40" height="40" viewBox="0 0 40 40" fill="none" xmlns="http://www.w3.org/2000/svg">
<path d="M20.374 15.1928C18.1813 14.1313 15.7125 14.3136 14.1686 15.8603C13.5092 16.5197 13.1017 17.3453 12.9302 18.2459C12.8417 18.707 12.4128 19.0286 11.9464 18.9643C11.2468 18.8651 10.5204 18.8544 9.77789 18.9428C5.98764 19.3932 2.95329 22.465 2.54854 26.2607C2.01779 31.2437 5.9099 35.4548 10.7858 35.4548C15.3614 35.4548 19.0712 31.745 19.0712 27.1693C19.0712 27.1667 19.0712 27.164 19.0712 27.1586C19.0712 26.6654 19.4492 26.258 19.9424 26.2473C21.1862 26.2231 22.3522 25.7889 23.2233 24.9177C24.376 23.7651 24.77 22.1005 24.4591 20.4198" stroke="#4D4D4D" stroke-linecap="round" stroke-linejoin="round"/>
<path d="M17.377 24.1534C18.7286 24.1534 19.8243 23.0577 19.8243 21.7061C19.8243 20.3545 18.7286 19.2588 17.377 19.2588C16.0254 19.2588 14.9297 20.3545 14.9297 21.7061C14.9297 23.0577 16.0254 24.1534 17.377 24.1534Z" stroke="#4D4D4D" stroke-linecap="round" stroke-linejoin="round"/>
<path d="M5.89469 27.2541L9.98577 32.0475C10.2741 32.3853 10.7817 32.4255 11.1195 32.1371L12.1879 31.2253C12.5257 30.937 12.5658 30.4294 12.2775 30.0916L8.1864 25.2982C7.89808 24.9604 7.39051 24.9202 7.05269 25.2085L5.98432 26.1204C5.6465 26.4087 5.60638 26.9163 5.89469 27.2541Z" stroke="#4D4D4D" stroke-linecap="round" stroke-linejoin="round"/>
<path d="M17.9453 19.2591L28.7666 10.5313C29.241 10.148 29.9353 10.2124 30.3347 10.6761L31.1227 11.5955C31.5382 12.0807 31.4712 12.8098 30.9753 13.2092L20.205 21.894" stroke="#4D4D4D" stroke-linecap="round" stroke-linejoin="round"/>
<path d="M32.4304 6.2377L29.7289 8.54339C29.391 8.8317 29.3509 9.33928 29.6392 9.6771L31.837 12.2522C32.1253 12.59 32.6329 12.6302 32.9707 12.3418L35.6723 10.0361C36.0101 9.74783 36.0502 9.24025 35.7619 8.90243L33.5641 6.32732C33.2758 5.98951 32.7682 5.94938 32.4304 6.2377Z" stroke="#4D4D4D" stroke-linecap="round" stroke-linejoin="round"/>
<path d="M30.3984 4.5459L30.7201 4.96942" stroke="#4D4D4D" stroke-linecap="round" stroke-linejoin="round"/>
<path d="M28.1406 6.05176L28.4623 6.47528" stroke="#4D4D4D" stroke-linecap="round" stroke-linejoin="round"/>
<path d="M37.1797 12.4561L37.5014 12.8796" stroke="#4D4D4D" stroke-linecap="round" stroke-linejoin="round"/>
<path d="M34.9219 13.9619L35.2435 14.3854" stroke="#4D4D4D" stroke-linecap="round" stroke-linejoin="round"/>
</svg>
