<svg xmlns="http://www.w3.org/2000/svg" width="60" height="60" viewBox="0 0 60 60" fill="none">
    <path
        d="M18.4882 25.4089C18.4882 19.2103 23.512 14.1865 29.7105 14.1865C35.9091 14.1865 40.9329 19.2103 40.9329 25.4089M18.4882 25.5963L20.1222 36.9687L23.4339 38.5339L24.1962 44.2389M40.9359 25.5963L39.7143 36.7562L36.3994 38.3215L35.6402 44.0264M21.3436 39.5118L22.1247 46.9851H24.1961L28.0015 49.9469H30.0791M38.6898 39.5681L37.9087 47.0382H35.8373L32.0319 50H29.9543M34.0565 41.955H25.749M26.8581 40.0555V44.2389M29.9012 40.0555V44.2389M32.944 40.0555V44.2389M14.1984 23.1907C15.5949 15.683 22.1809 10 30.0916 10C38.0022 10 44.4226 15.5425 45.9316 22.9095M21.9841 26.793L22.4496 26.3806C23.037 25.862 23.8837 25.7557 24.5835 26.115L28.0015 27.8802V29.8266C28.0015 30.6515 27.3454 31.3232 26.5237 31.3482L22.9089 31.4513C22.0529 31.4763 21.3436 30.7889 21.3436 29.9298V28.2176C21.3436 27.674 21.578 27.1523 21.9872 26.793H21.9841ZM37.7712 26.921L37.3056 26.5086C36.7183 25.99 35.8716 25.8838 35.1718 26.2431L31.7538 28.0083V29.9547C31.7538 30.7795 32.4099 31.4512 33.2316 31.4762L36.8464 31.5793C37.7024 31.6043 38.4116 30.917 38.4116 30.0578V28.3457C38.4116 27.8021 38.1773 27.2803 37.768 26.921H37.7712ZM29.9012 31.3325L28.3797 33.5883V35.644C28.3797 36.0658 28.7202 36.4063 29.142 36.4063H30.8072C31.229 36.4063 31.5695 36.0658 31.5695 35.644V33.5883L29.9043 31.3325H29.9012ZM16.2073 24.8372L13.4767 26.3087C12.1333 27.0304 11.3522 28.4863 11.4928 30.0047L11.8865 34.3162C12.0458 36.047 13.3549 37.4498 15.0701 37.7248L17.7289 38.1528L16.2073 24.8372ZM43.7978 24.4466L46.5284 25.9182C47.8718 26.6399 48.6529 28.0958 48.5123 29.6142L48.1186 33.9257C47.9593 35.6565 46.6502 37.0593 44.935 37.3342L42.2763 37.7623L43.7978 24.4466Z"
         stroke-linecap="round" stroke-linejoin="round" />
</svg>