<svg width="60" height="60" viewBox="0 0 60 60" fill="none" xmlns="http://www.w3.org/2000/svg">
<path d="M30.7443 28.8763C30.7443 28.4621 30.4085 28.1263 29.9943 28.1263C29.5801 28.1263 29.2443 28.4621 29.2443 28.8763H30.7443ZM29.2443 36.4878C29.2443 36.902 29.5801 37.2378 29.9943 37.2378C30.4085 37.2378 30.7443 36.902 30.7443 36.4878H29.2443ZM18.5632 36.1211C18.149 36.1211 17.8132 36.4569 17.8132 36.8711C17.8132 37.2853 18.149 37.6211 18.5632 37.6211V36.1211ZM41.7401 37.6211C42.1543 37.6211 42.4901 37.2853 42.4901 36.8711C42.4901 36.4569 42.1543 36.1211 41.7401 36.1211V37.6211ZM31.3964 30.3772C31.7491 30.5944 32.2111 30.4847 32.4284 30.132C32.6456 29.7793 32.5358 29.3173 32.1832 29.1001L31.3964 30.3772ZM28.5751 26.8773C28.2225 26.6601 27.7604 26.7698 27.5432 27.1225C27.3259 27.4752 27.4357 27.9372 27.7884 28.1544L28.5751 26.8773ZM12.5284 13.2095C12.2075 12.9476 11.735 12.9955 11.4731 13.3164C11.2112 13.6373 11.2591 14.1097 11.58 14.3716L12.5284 13.2095ZM48.8388 14.3471C49.1668 14.0941 49.2276 13.6232 48.9747 13.2952C48.7217 12.9672 48.2507 12.9064 47.9227 13.1593L48.8388 14.3471ZM15.2153 29.6769C15.0143 29.3147 14.5578 29.1841 14.1956 29.3851C13.8334 29.5861 13.7028 30.0426 13.9038 30.4048L15.2153 29.6769ZM16.4432 40.3132C16.4427 40.7274 16.7781 41.0636 17.1924 41.064C17.6066 41.0645 17.9427 40.7291 17.9432 40.3149L16.4432 40.3132ZM46.2626 30.3877C46.4542 30.0204 46.3117 29.5674 45.9445 29.3759C45.5772 29.1843 45.1242 29.3268 44.9326 29.694L46.2626 30.3877ZM42.214 40.6199C42.2144 41.0342 42.5506 41.3696 42.9648 41.3691C43.379 41.3686 43.7144 41.0325 43.714 40.6183L42.214 40.6199ZM21.9354 46.4686V47.2186C22.3496 47.2186 22.6854 46.8828 22.6854 46.4686H21.9354ZM13.8663 46.4686H13.1163C13.1163 46.8828 13.4521 47.2186 13.8663 47.2186V46.4686ZM30.0072 46.4686V47.2186C30.4214 47.2186 30.7572 46.8828 30.7572 46.4686H30.0072ZM21.9381 46.4686H21.1881C21.1881 46.8828 21.5239 47.2186 21.9381 47.2186V46.4686ZM38.071 46.4686V47.2186C38.4852 47.2186 38.821 46.8828 38.821 46.4686H38.071ZM30.0019 46.4686H29.2519C29.2519 46.8828 29.5877 47.2186 30.0019 47.2186V46.4686ZM46.1428 46.4686V47.2186C46.557 47.2186 46.8928 46.8828 46.8928 46.4686H46.1428ZM38.0737 46.4686H37.3237C37.3237 46.8828 37.6595 47.2186 38.0737 47.2186V46.4686ZM38.8382 18.1153C38.8076 17.7022 38.4478 17.3922 38.0348 17.4228C37.6217 17.4535 37.3117 17.8132 37.3423 18.2263L38.8382 18.1153ZM44.2437 29.2784C44.6324 29.4217 45.0636 29.2228 45.2069 28.8342C45.3502 28.4455 45.1513 28.0143 44.7627 27.871L44.2437 29.2784ZM22.6549 18.5314C22.6855 18.1183 22.3755 17.7586 21.9624 17.7279C21.5494 17.6973 21.1896 18.0073 21.159 18.4204L22.6549 18.5314ZM15.2345 28.1761C14.8459 28.3194 14.647 28.7506 14.7903 29.1393C14.9336 29.5279 15.3649 29.7268 15.7535 29.5835L15.2345 28.1761ZM44.2374 16.4094C44.2293 15.9953 43.887 15.6662 43.4728 15.6743C43.0587 15.6825 42.7296 16.0248 42.7377 16.4389L44.2374 16.4094ZM46.2309 27.821C46.4905 28.1438 46.9626 28.1952 47.2854 27.9356C47.6082 27.6761 47.6595 27.204 47.4 26.8812L46.2309 27.821ZM17.0261 16.4389C17.0343 16.0248 16.7052 15.6825 16.291 15.6743C15.8769 15.6662 15.5346 15.9953 15.5264 16.4094L17.0261 16.4389ZM12.3639 26.8812C12.1043 27.204 12.1556 27.6761 12.4785 27.9356C12.8013 28.1952 13.2734 28.1438 13.5329 27.821L12.3639 26.8812ZM29.2443 28.8763V36.4878H30.7443V28.8763H29.2443ZM18.5632 37.6211H41.7401V36.1211H18.5632V37.6211ZM28.823 27.5162C28.823 27.8688 28.5372 28.1547 28.1846 28.1547V29.6547C29.3656 29.6547 30.323 28.6972 30.323 27.5162H28.823ZM28.1846 28.1547C27.832 28.1547 27.5462 27.8688 27.5462 27.5162H26.0462C26.0462 28.6972 27.0036 29.6547 28.1846 29.6547V28.1547ZM27.5462 27.5162C27.5462 27.1636 27.832 26.8778 28.1846 26.8778V25.3778C27.0036 25.3778 26.0462 26.3352 26.0462 27.5162H27.5462ZM28.1846 26.8778C28.5372 26.8778 28.823 27.1636 28.823 27.5162H30.323C30.323 26.3352 29.3656 25.3778 28.1846 25.3778V26.8778ZM32.1832 29.1001L28.5751 26.8773L27.7884 28.1544L31.3964 30.3772L32.1832 29.1001ZM13.1131 13.75H46.8869V12.25H13.1131V13.75ZM46.8869 13.75C48.192 13.75 49.25 14.808 49.25 16.1131H50.75C50.75 13.9796 49.0204 12.25 46.8869 12.25V13.75ZM49.25 16.1131V43.5238H50.75V16.1131H49.25ZM49.25 43.5238C49.25 44.8289 48.192 45.8869 46.8869 45.8869V47.3869C49.0204 47.3869 50.75 45.6573 50.75 43.5238H49.25ZM46.8869 45.8869H13.1131V47.3869H46.8869V45.8869ZM13.1131 45.8869C11.808 45.8869 10.75 44.8289 10.75 43.5238H9.25C9.25 45.6573 10.9796 47.3869 13.1131 47.3869V45.8869ZM10.75 43.5238V16.1131H9.25V43.5238H10.75ZM10.75 16.1131C10.75 14.808 11.808 13.75 13.1131 13.75V12.25C10.9796 12.25 9.25 13.9796 9.25 16.1131H10.75ZM12.0542 13.7906C11.58 14.3716 11.5803 14.3718 11.5806 14.3721C11.5807 14.3722 11.581 14.3725 11.5813 14.3727C11.5818 14.3731 11.5824 14.3736 11.5832 14.3742C11.5846 14.3754 11.5865 14.3769 11.5887 14.3787C11.5932 14.3823 11.5993 14.3872 11.607 14.3933C11.6224 14.4055 11.6441 14.4225 11.6721 14.4441C11.7282 14.4874 11.8095 14.5488 11.9157 14.6257C12.1281 14.7797 12.44 14.996 12.8486 15.2537C13.6656 15.7692 14.8698 16.4509 16.437 17.1309C19.5722 18.4914 24.1611 19.8453 30.0042 19.8453V18.3453C24.3974 18.3453 20.0114 17.0468 17.034 15.7549C15.545 15.1088 14.4085 14.4643 13.6489 13.9851C13.2692 13.7455 12.9839 13.5474 12.7961 13.4113C12.7021 13.3432 12.6326 13.2906 12.5879 13.2561C12.5655 13.2389 12.5493 13.2262 12.5394 13.2183C12.5344 13.2143 12.531 13.2116 12.5292 13.2101C12.5283 13.2094 12.5278 13.209 12.5276 13.2089C12.5276 13.2088 12.5276 13.2088 12.5277 13.2089C12.5278 13.209 12.528 13.2091 12.528 13.2092C12.5282 13.2093 12.5284 13.2095 12.0542 13.7906ZM30.0042 19.8453C35.8473 19.8453 40.5408 18.482 43.778 17.1152C45.3965 16.4317 46.6523 15.7469 47.5076 15.2297C47.9354 14.9711 48.2633 14.7542 48.4866 14.6001C48.5983 14.5231 48.6839 14.4617 48.7428 14.4187C48.7722 14.3972 48.795 14.3802 48.811 14.3682C48.819 14.3622 48.8254 14.3574 48.83 14.3538C48.8323 14.3521 48.8342 14.3506 48.8357 14.3495C48.8364 14.3489 48.837 14.3485 48.8375 14.3481C48.8378 14.3479 48.8381 14.3476 48.8383 14.3475C48.8385 14.3473 48.8388 14.3471 48.3808 13.7532C47.9227 13.1593 47.9229 13.1592 47.9231 13.159C47.9231 13.159 47.9233 13.1589 47.9233 13.1588C47.9234 13.1588 47.9234 13.1588 47.9233 13.1589C47.9231 13.159 47.9225 13.1595 47.9214 13.1603C47.9193 13.1619 47.9155 13.1648 47.9101 13.1689C47.8992 13.1771 47.8817 13.1901 47.8576 13.2077C47.8094 13.2429 47.735 13.2963 47.6349 13.3654C47.4347 13.5035 47.132 13.7039 46.7315 13.9461C45.9303 14.4306 44.7388 15.0812 43.1945 15.7333C40.1059 17.0374 35.6111 18.3453 30.0042 18.3453V19.8453ZM10.9028 28.1012H14.5918V26.6012H10.9028V28.1012ZM14.5918 28.1012C14.6762 28.1012 14.7446 28.1697 14.7446 28.254H16.2446C16.2446 27.3412 15.5046 26.6012 14.5918 26.6012V28.1012ZM14.7446 28.254V28.8922H16.2446V28.254H14.7446ZM14.7446 28.8922C14.7446 28.9766 14.6762 29.045 14.5918 29.045V30.545C15.5046 30.545 16.2446 29.805 16.2446 28.8922H14.7446ZM14.5918 29.045H10.9028V30.545H14.5918V29.045ZM10.9028 29.045C10.8184 29.045 10.75 28.9766 10.75 28.8922H9.25C9.25 29.805 9.98998 30.545 10.9028 30.545V29.045ZM10.75 28.8922V28.254H9.25V28.8922H10.75ZM10.75 28.254C10.75 28.1697 10.8184 28.1012 10.9028 28.1012V26.6012C9.98998 26.6012 9.25 27.3412 9.25 28.254H10.75ZM45.4054 28.1012H49.0944V26.6012H45.4054V28.1012ZM49.0944 28.1012C49.1788 28.1012 49.2472 28.1697 49.2472 28.254H50.7472C50.7472 27.3412 50.0072 26.6012 49.0944 26.6012V28.1012ZM49.2472 28.254V28.8922H50.7472V28.254H49.2472ZM49.2472 28.8922C49.2472 28.9766 49.1788 29.045 49.0944 29.045V30.545C50.0072 30.545 50.7472 29.805 50.7472 28.8922H49.2472ZM49.0944 29.045H45.4054V30.545H49.0944V29.045ZM45.4054 29.045C45.321 29.045 45.2526 28.9766 45.2526 28.8922H43.7526C43.7526 29.805 44.4926 30.545 45.4054 30.545V29.045ZM45.2526 28.8922V28.254H43.7526V28.8922H45.2526ZM45.2526 28.254C45.2526 28.1697 45.321 28.1012 45.4054 28.1012V26.6012C44.4926 26.6012 43.7526 27.3412 43.7526 28.254H45.2526ZM14.5595 30.0408C13.9038 30.4048 13.9037 30.4046 13.9036 30.4045C13.9036 30.4045 13.9035 30.4044 13.9035 30.4044C13.9035 30.4043 13.9035 30.4043 13.9035 30.4044C13.9036 30.4045 13.9039 30.405 13.9043 30.4057C13.9051 30.4072 13.9065 30.4097 13.9085 30.4135C13.9125 30.4209 13.919 30.4328 13.9277 30.449C13.9451 30.4816 13.9714 30.5316 14.0055 30.598C14.0736 30.731 14.1725 30.9297 14.2918 31.1865C14.5307 31.7002 14.8508 32.4444 15.171 33.3571C15.8135 35.1882 16.4462 37.6684 16.4432 40.3132L17.9432 40.3149C17.9464 37.4432 17.2623 34.7869 16.5864 32.8605C16.2474 31.8944 15.9079 31.1046 15.652 30.5541C15.524 30.2787 15.4166 30.0627 15.3404 29.914C15.3023 29.8396 15.272 29.782 15.2507 29.7422C15.24 29.7223 15.2317 29.7068 15.2257 29.6959C15.2227 29.6904 15.2204 29.6861 15.2186 29.6829C15.2178 29.6813 15.2171 29.68 15.2165 29.679C15.2162 29.6785 15.216 29.6781 15.2158 29.6778C15.2157 29.6776 15.2156 29.6774 15.2155 29.6773C15.2154 29.6771 15.2153 29.6769 14.5595 30.0408ZM45.5976 30.0408C44.9326 29.694 44.9326 29.6942 44.9325 29.6944C44.9324 29.6945 44.9323 29.6947 44.9322 29.6948C44.932 29.6952 44.9318 29.6956 44.9316 29.6961C44.931 29.6971 44.9304 29.6985 44.9295 29.7001C44.9278 29.7033 44.9255 29.7078 44.9226 29.7135C44.9168 29.7248 44.9085 29.741 44.898 29.7619C44.877 29.8037 44.8469 29.8643 44.8091 29.9425C44.7334 30.099 44.6266 30.3262 44.4991 30.6152C44.2442 31.1929 43.9058 32.0193 43.5678 33.0217C42.8941 35.0197 42.2107 37.7501 42.214 40.6199L43.714 40.6183C43.711 37.9717 44.3445 35.413 44.9892 33.501C45.3104 32.5484 45.6315 31.7645 45.8714 31.2207C45.9913 30.949 46.0907 30.7377 46.1594 30.5957C46.1937 30.5248 46.2203 30.4712 46.238 30.4362C46.2468 30.4186 46.2533 30.4057 46.2575 30.3976C46.2596 30.3935 46.2611 30.3907 46.2619 30.389C46.2624 30.3882 46.2626 30.3876 46.2628 30.3874C46.2628 30.3873 46.2628 30.3873 46.2628 30.3873C46.2628 30.3873 46.2628 30.3874 46.2628 30.3874C46.2627 30.3875 46.2626 30.3877 45.5976 30.0408ZM15.1115 41.8516H20.6902V40.3516H15.1115V41.8516ZM20.6902 41.8516C20.9639 41.8516 21.1854 42.0731 21.1854 42.3469H22.6854C22.6854 41.2447 21.7924 40.3516 20.6902 40.3516V41.8516ZM21.1854 42.3469V46.4686H22.6854V42.3469H21.1854ZM21.9354 45.7186H13.8663V47.2186H21.9354V45.7186ZM14.6163 46.4686V42.3469H13.1163V46.4686H14.6163ZM14.6163 42.3469C14.6163 42.0731 14.8377 41.8516 15.1115 41.8516V40.3516C14.0093 40.3516 13.1163 41.2447 13.1163 42.3469H14.6163ZM23.1833 41.8516H28.762V40.3516H23.1833V41.8516ZM28.762 41.8516C29.0358 41.8516 29.2572 42.0731 29.2572 42.3469H30.7572C30.7572 41.2447 29.8642 40.3516 28.762 40.3516V41.8516ZM29.2572 42.3469V46.4686H30.7572V42.3469H29.2572ZM30.0072 45.7186H21.9381V47.2186H30.0072V45.7186ZM22.6881 46.4686V42.3469H21.1881V46.4686H22.6881ZM22.6881 42.3469C22.6881 42.0731 22.9096 41.8516 23.1833 41.8516V40.3516C22.0811 40.3516 21.1881 41.2447 21.1881 42.3469H22.6881ZM31.2471 41.8516H36.8258V40.3516H31.2471V41.8516ZM36.8258 41.8516C37.0995 41.8516 37.321 42.0731 37.321 42.3469H38.821C38.821 41.2447 37.928 40.3516 36.8258 40.3516V41.8516ZM37.321 42.3469V46.4686H38.821V42.3469H37.321ZM38.071 45.7186H30.0019V47.2186H38.071V45.7186ZM30.7519 46.4686V42.3469H29.2519V46.4686H30.7519ZM30.7519 42.3469C30.7519 42.0731 30.9733 41.8516 31.2471 41.8516V40.3516C30.1449 40.3516 29.2519 41.2447 29.2519 42.3469H30.7519ZM39.3189 41.8516H44.8976V40.3516H39.3189V41.8516ZM44.8976 41.8516C45.1714 41.8516 45.3928 42.0731 45.3928 42.3469H46.8928C46.8928 41.2447 45.9998 40.3516 44.8976 40.3516V41.8516ZM45.3928 42.3469V46.4686H46.8928V42.3469H45.3928ZM46.1428 45.7186H38.0737V47.2186H46.1428V45.7186ZM38.8237 46.4686V42.3469H37.3237V46.4686H38.8237ZM38.8237 42.3469C38.8237 42.0731 39.0452 41.8516 39.3189 41.8516V40.3516C38.2167 40.3516 37.3237 41.2447 37.3237 42.3469H38.8237ZM38.0903 18.1708C37.3423 18.2263 37.3423 18.2265 37.3424 18.2268C37.3424 18.227 37.3424 18.2273 37.3424 18.2276C37.3425 18.2282 37.3425 18.2289 37.3426 18.2298C37.3427 18.2314 37.3429 18.2336 37.3431 18.2363C37.3435 18.2416 37.3441 18.2489 37.3449 18.2582C37.3465 18.2767 37.3488 18.3029 37.352 18.3363C37.3585 18.4033 37.3686 18.4993 37.3835 18.621C37.4131 18.8641 37.4619 19.2102 37.539 19.6308C37.6928 20.4701 37.961 21.6155 38.4199 22.8349C39.3287 25.2497 41.0424 28.0978 44.2437 29.2784L44.7627 27.871C42.1643 26.9128 40.6715 24.559 39.8238 22.3065C39.4045 21.1923 39.1569 20.1377 39.0144 19.3604C38.9434 18.9727 38.8989 18.6564 38.8724 18.4392C38.8592 18.3307 38.8504 18.2471 38.8451 18.1919C38.8424 18.1643 38.8406 18.1438 38.8395 18.1309C38.8389 18.1244 38.8386 18.1199 38.8384 18.1172C38.8383 18.1159 38.8382 18.1151 38.8382 18.1148C38.8382 18.1146 38.8382 18.1146 38.8382 18.1146C38.8382 18.1147 38.8382 18.1148 38.8382 18.1149C38.8382 18.115 38.8382 18.1153 38.0903 18.1708ZM21.9069 18.4759C21.159 18.4204 21.159 18.4202 21.159 18.42C21.159 18.4199 21.159 18.4198 21.159 18.4198C21.1591 18.4197 21.159 18.4197 21.159 18.4199C21.159 18.4202 21.1589 18.421 21.1588 18.4224C21.1586 18.425 21.1583 18.4295 21.1577 18.436C21.1566 18.4489 21.1548 18.4694 21.1521 18.497C21.1468 18.5522 21.138 18.6358 21.1248 18.7443C21.0983 18.9615 21.0538 19.2778 20.9828 19.6655C20.8403 20.4428 20.5928 21.4974 20.1734 22.6116C19.3257 24.8642 17.8329 27.2179 15.2345 28.1761L15.7535 29.5835C18.9548 28.403 20.6685 25.5548 21.5773 23.14C22.0362 21.9206 22.3044 20.7752 22.4582 19.9359C22.5353 19.5153 22.5841 19.1692 22.6137 18.9261C22.6286 18.8044 22.6387 18.7084 22.6452 18.6414C22.6484 18.608 22.6507 18.5818 22.6523 18.5633C22.6531 18.554 22.6537 18.5467 22.6541 18.5414C22.6543 18.5387 22.6545 18.5365 22.6546 18.5349C22.6547 18.534 22.6547 18.5333 22.6548 18.5327C22.6548 18.5324 22.6548 18.5321 22.6548 18.532C22.6549 18.5316 22.6549 18.5314 21.9069 18.4759ZM43.4876 16.4242C42.7377 16.4389 42.7377 16.4391 42.7377 16.4393C42.7377 16.4395 42.7377 16.4397 42.7377 16.4399C42.7378 16.4403 42.7378 16.4409 42.7378 16.4415C42.7378 16.4428 42.7378 16.4445 42.7379 16.4466C42.738 16.4509 42.7381 16.4568 42.7383 16.4644C42.7388 16.4795 42.7394 16.5011 42.7403 16.529C42.7423 16.5848 42.7455 16.6654 42.7507 16.7686C42.761 16.975 42.7795 17.2716 42.8117 17.6389C42.8761 18.3728 42.9961 19.393 43.2186 20.5418C43.6593 22.8166 44.5203 25.6931 46.2309 27.821L47.4 26.8812C45.9198 25.0399 45.1168 22.453 44.6912 20.2565C44.4807 19.1698 44.367 18.2025 44.306 17.5078C44.2755 17.1608 44.2583 16.8828 44.2487 16.6932C44.244 16.5983 44.2411 16.5257 44.2395 16.4776C44.2386 16.4535 44.2381 16.4356 44.2378 16.4241C44.2376 16.4184 44.2375 16.4143 44.2375 16.4118C44.2375 16.4106 44.2374 16.4098 44.2374 16.4094C44.2374 16.4092 44.2374 16.4091 44.2374 16.4091C44.2374 16.4091 44.2374 16.4092 44.2374 16.4092C44.2374 16.4093 44.2374 16.4094 43.4876 16.4242ZM16.2763 16.4242C15.5264 16.4094 15.5264 16.4093 15.5264 16.4092C15.5264 16.4092 15.5264 16.4091 15.5264 16.4091C15.5264 16.4091 15.5264 16.4092 15.5264 16.4094C15.5264 16.4098 15.5264 16.4106 15.5264 16.4118C15.5263 16.4143 15.5262 16.4184 15.5261 16.4241C15.5257 16.4356 15.5252 16.4535 15.5244 16.4776C15.5227 16.5257 15.5199 16.5983 15.5151 16.6932C15.5055 16.8828 15.4883 17.1608 15.4579 17.5078C15.3969 18.2025 15.2832 19.1698 15.0726 20.2565C14.6471 22.453 13.8441 25.0399 12.3639 26.8812L13.5329 27.821C15.2436 25.6931 16.1045 22.8166 16.5452 20.5418C16.7678 19.393 16.8877 18.3728 16.9521 17.6389C16.9844 17.2716 17.0028 16.975 17.0132 16.7686C17.0184 16.6654 17.0216 16.5848 17.0235 16.529C17.0245 16.5011 17.0251 16.4795 17.0255 16.4644C17.0257 16.4568 17.0259 16.4509 17.026 16.4466C17.026 16.4445 17.026 16.4428 17.0261 16.4415C17.0261 16.4409 17.0261 16.4403 17.0261 16.4399C17.0261 16.4397 17.0261 16.4395 17.0261 16.4393C17.0261 16.4391 17.0261 16.4389 16.2763 16.4242Z"/>
</svg>
