<svg width="60" height="60" viewBox="0 0 60 60" fill="none" xmlns="http://www.w3.org/2000/svg">
<path d="M39.2285 26.9709C43.2506 27.4174 44.815 29.3224 44.815 30.9929C44.815 33.9548 38.0624 36.3546 29.7356 36.3546C21.4089 36.3546 14.6562 33.9548 14.6562 30.9929C14.6562 29.4413 16.4424 26.5244 21.804 26.5244M37.0633 29.1586C38.0817 29.6373 38.6856 30.2316 38.6856 30.8741C38.6856 32.4771 34.9302 33.7749 30.2978 33.7749C25.6654 33.7749 21.91 32.4771 21.91 30.8741C21.91 30.1352 22.7099 29.4606 24.0239 28.9498M21.2258 35.4197V48.4881C21.2258 48.4881 23.5902 50.6533 29.8449 50.6533C36.9926 50.6533 39.2285 48.8672 39.2285 48.8672V35.4229M22.2506 42.0374C22.2506 42.0374 29.167 46.8273 38.4447 42.0374M25.0165 22.1522C25.0165 22.1522 20.911 11.7823 25.8261 8.65332C30.7412 12.2288 28.5149 21.7056 28.5149 21.7056M35.4539 22.1522C35.4539 22.1522 39.5594 11.7791 34.6443 8.65332C29.7292 12.2288 31.9555 21.7056 31.9555 21.7056M26.2148 30.9062L25.8261 32.7791M34.2556 30.0806L35.3896 32.7791M27.413 26.3027H28.5727M31.8816 26.3027H33.0381M34.4323 16.0131L33.581 21.8438M25.9867 15.5666L26.838 21.3972M36.9959 26.3027C36.9959 28.893 33.9956 30.9929 30.2946 30.9929C26.5936 30.9929 23.5934 28.893 23.5934 26.3027C23.5934 23.7124 26.5936 21.6125 30.2946 21.6125C33.9956 21.6125 36.9959 23.7124 36.9959 26.3027Z"  stroke-linecap="round" stroke-linejoin="round"/>
</svg>
