<svg width="40" height="40" viewBox="0 0 40 40" fill="none" xmlns="http://www.w3.org/2000/svg">
<path d="M12.7888 14.5489L14.1849 23.1224L17.9437 26.3331C18.4325 26.7166 19.0374 26.9245 19.6612 26.9245H21.0545C21.6675 26.9245 22.2616 26.722 22.7476 26.352L24.2571 25.1963L26.6874 23.1224L27.5434 19.3204L28.2671 14.5597C28.421 13.5498 28.1159 12.5237 27.4381 11.7568L26.1284 10.2797C25.3777 9.43179 24.3111 8.92683 23.177 8.88092L18.5513 8.6892C17.3254 8.63789 16.1372 9.12935 15.3082 10.0286L13.6799 11.7946C12.9941 12.5399 12.6673 13.5444 12.7915 14.5489H12.7888Z" stroke="#4D4D4D" stroke-linecap="round" stroke-linejoin="round"/>
<path d="M20.4285 2.5H20.9713C21.9326 2.5 22.6833 3.20208 22.5888 4.01488L22.2647 6.82052C22.1837 7.5253 21.4843 8.06536 20.6499 8.06536C19.7939 8.06536 19.0838 7.5037 19.027 6.77731L18.8083 3.97168C18.7462 3.17508 19.4888 2.5 20.4285 2.5Z" stroke="#4D4D4D" stroke-linecap="round" stroke-linejoin="round"/>
<path d="M15.2708 3.18069L15.6759 3.03488C16.3914 2.77565 17.296 3.2509 17.6282 4.0583L18.7677 6.85043C19.054 7.55252 18.8001 8.26 18.1764 8.48683C17.5391 8.71905 16.7317 8.36801 16.332 7.68213L14.7874 5.03582C14.35 4.28513 14.5714 3.43452 15.2708 3.18069Z" stroke="#4D4D4D" stroke-linecap="round" stroke-linejoin="round"/>
<path d="M11.5254 5.82906L11.9062 5.49962C12.5785 4.91905 13.6479 4.91635 14.2095 5.49422L16.1484 7.49516C16.6371 8.00012 16.5642 8.76971 15.9782 9.27467C15.3788 9.79313 14.4472 9.86064 13.845 9.42859L11.5254 7.75709C10.8665 7.28183 10.8665 6.39883 11.5254 5.82906Z" stroke="#4D4D4D" stroke-linecap="round" stroke-linejoin="round"/>
<path d="M12.8648 12.9075L12.0169 12.2999C11.3499 11.822 10.4399 11.8679 9.82426 12.4052C9.349 12.8211 9.13028 13.4584 9.25179 14.0794L9.45702 15.1245C9.53803 15.5376 9.76485 15.9103 10.0943 16.1722L12.8675 18.373" stroke="#4D4D4D" stroke-linecap="round" stroke-linejoin="round"/>
<path d="M15.8281 14.9618C15.8281 14.9618 18.8147 13.5954 19.9947 14.9618C19.2683 16.9654 18.2584 19.4767 18.2584 19.4767L21.1829 19.8845" stroke="#4D4D4D" stroke-linecap="round" stroke-linejoin="round"/>
<path d="M26.0268 3.02896L25.5732 2.86154C24.7712 2.5645 23.7883 3.01276 23.4588 3.83095L22.3166 6.65549C22.0304 7.36568 22.3436 8.10556 23.0403 8.3648C23.7559 8.63213 24.6335 8.30269 25.0466 7.61681L26.6425 4.95969C27.0962 4.2063 26.8126 3.32059 26.0268 3.02896Z" stroke="#4D4D4D" stroke-linecap="round" stroke-linejoin="round"/>
<path d="M30.0488 5.77855L29.6681 5.44911C28.9957 4.86584 27.9426 4.84964 27.3944 5.414L25.5042 7.36634C25.0289 7.8578 25.1099 8.61929 25.6932 9.12695C26.29 9.64811 27.2135 9.72642 27.7995 9.30517L30.0704 7.68227C30.7158 7.22052 30.705 6.34831 30.0461 5.77585L30.0488 5.77855Z" stroke="#4D4D4D" stroke-linecap="round" stroke-linejoin="round"/>
<path d="M28.1902 12.6096L29.0381 12.0021C29.7051 11.5241 30.6151 11.57 31.2308 12.1074C31.706 12.5232 31.9247 13.1605 31.8032 13.7816L31.598 14.8266C31.517 15.2398 31.2902 15.6124 30.9607 15.8743L28.1875 18.0751" stroke="#4D4D4D" stroke-linecap="round" stroke-linejoin="round"/>
<path d="M19.0391 22.4795H21.5855" stroke="#4D4D4D" stroke-linecap="round" stroke-linejoin="round"/>
<path d="M30.8925 11.3949L30.5469 6.63965" stroke="#4D4D4D" stroke-linecap="round" stroke-linejoin="round"/>
<path d="M10.7109 11.641L11.0971 7.33398" stroke="#4D4D4D" stroke-linecap="round" stroke-linejoin="round"/>
<path d="M10.093 16.1748L4.398 31.699C4.23058 32.1526 4.4115 32.6603 4.82465 32.9087C5.35932 33.23 6.0533 32.9924 6.28013 32.4091L9.32069 26.5737" stroke="#4D4D4D" stroke-linecap="round" stroke-linejoin="round"/>
<path d="M10.9051 19.2793L7.49464 35.168C7.33532 35.9133 7.75387 36.6586 8.47486 36.9097C9.33356 37.2094 10.2598 36.6856 10.4461 35.7972L12.447 26.9212" stroke="#4D4D4D" stroke-linecap="round" stroke-linejoin="round"/>
<path d="M15.9398 24.6129L15.2701 32.9866C15.2107 33.7373 14.5815 34.3179 13.8281 34.3179C13.0126 34.3179 12.3592 33.6455 12.3835 32.8327L12.7588 19.1934" stroke="#4D4D4D" stroke-linecap="round" stroke-linejoin="round"/>
<path d="M31.1981 16.1553L35.6024 32.2006C35.7698 32.6542 35.5889 33.1619 35.1757 33.4103C34.6411 33.7317 33.9471 33.494 33.7203 32.9108L30.6797 27.0754" stroke="#4D4D4D" stroke-linecap="round" stroke-linejoin="round"/>
<path d="M31.5269 37.4153C30.6682 37.715 29.7419 37.1911 29.5556 36.3027L27.5547 27.4268" stroke="#4D4D4D" stroke-linecap="round" stroke-linejoin="round"/>
<path d="M29.1016 19.7852L32.5121 35.6739C32.6714 36.4191 32.2528 37.1644 31.5319 37.4156" stroke="#4D4D4D" stroke-linecap="round" stroke-linejoin="round"/>
<path d="M24.25 26.2282L24.7253 33.4893C24.7847 34.24 25.4138 34.8206 26.1672 34.8206C26.9827 34.8206 27.6362 34.1482 27.6119 33.3354L27.377 20.6709" stroke="#4D4D4D" stroke-linecap="round" stroke-linejoin="round"/>
<path d="M22.7734 14.9619H24.6583" stroke="#4D4D4D" stroke-linecap="round" stroke-linejoin="round"/>
</svg>
