<svg width="60" height="60" viewBox="0 0 60 60" fill="none" xmlns="http://www.w3.org/2000/svg">
<path fill-rule="evenodd" clip-rule="evenodd" d="M5 22.1413L8.77997 26.7351L9.75123 25.9359L8.18978 24.0383L10.1615 22.4159L11.7229 24.3136L12.6919 23.5162L8.91196 18.9224L7.94294 19.7197L9.50255 21.6151L7.53087 23.2375L5.97126 21.3421L5 22.1413ZM13.2437 23.0622L14.2845 22.2058L13.7634 20.8779L15.422 19.5131L16.6241 20.2808L17.6649 19.4244L12.3013 16.1335L11.0496 17.1634L13.2437 23.0622ZM14.552 18.9575L13.3862 19.9168L12.5213 17.713L12.5572 17.6835L14.552 18.9575ZM18.1209 16.7394L15.5616 13.4508L14.5634 14.2722L17.2999 17.4149L18.1209 16.7394ZM18.3811 18.6695C18.5734 18.6868 18.7436 18.6346 18.8916 18.5128C18.9873 18.434 19.0559 18.3375 19.0972 18.2232C19.1374 18.1074 19.1489 17.9888 19.1318 17.8675C19.115 17.7434 19.0667 17.6314 18.987 17.5315C18.8649 17.3861 18.707 17.3054 18.5132 17.2894C18.3194 17.2733 18.1514 17.3237 18.0094 17.4406C17.8613 17.5624 17.7773 17.7193 17.7572 17.9114C17.7372 18.1034 17.7882 18.2721 17.9103 18.4174C18.0306 18.5667 18.1876 18.6507 18.3811 18.6695ZM16.4858 12.6904L20.2658 17.2843L21.237 16.4851L19.6756 14.5874L21.6472 12.9651L23.2087 14.8627L24.1777 14.0654L20.3977 9.47154L19.4287 10.2689L20.9883 12.1643L19.0167 13.7867L17.457 11.8912L16.4858 12.6904ZM24.7295 13.6114L25.7703 12.755L25.2492 11.427L26.9078 10.0622L28.1099 10.8299L29.1507 9.97352L23.7871 6.68271L22.5354 7.7126L24.7295 13.6114ZM26.0378 9.50663L24.872 10.4659L24.0071 8.26219L24.043 8.23266L26.0378 9.50663ZM29.6066 7.28859L27.0474 4L26.0492 4.82133L28.7857 7.96411L29.6066 7.28859ZM29.8669 9.21868C30.0592 9.23599 30.2294 9.18374 30.3774 9.06193C30.4731 8.98318 30.5416 8.88666 30.583 8.77236C30.6232 8.65657 30.6347 8.53799 30.6176 8.41663C30.6008 8.29255 30.5525 8.18055 30.4728 8.08062C30.3507 7.9353 30.1928 7.8546 29.999 7.83852C29.8052 7.82243 29.6372 7.87283 29.4952 7.98973C29.3471 8.11154 29.2631 8.26847 29.243 8.46051C29.223 8.65255 29.274 8.82123 29.3961 8.96655C29.5164 9.11583 29.6733 9.19987 29.8669 9.21868ZM45.9911 30.025C47.23 30.2755 48.0508 31.0456 48.4794 32.0459C48.9208 33.0763 48.9342 34.3086 48.6965 35.434C48.4579 36.564 47.9465 37.6816 47.2259 38.4975C46.6576 39.1408 45.9033 39.6501 45.0227 39.7396C42.0651 46.4735 35.2194 48.8408 29.1145 47.7424C23.0968 46.6597 17.6047 42.1739 17.1035 35.0042C16.3621 34.7071 15.8644 34.1033 15.5791 33.4205C15.2342 32.595 15.1718 31.6102 15.308 30.7047C15.4441 29.8006 15.7924 28.8823 16.3695 28.2108C16.8617 27.6381 17.5438 27.2291 18.3653 27.2214C20.9789 21.0793 27.2246 18.5097 33.0623 19.0428C38.9877 19.584 44.7161 23.3433 45.9911 30.025ZM18.1427 28.7892C18.2306 28.907 18.3533 29.001 18.5024 29.0535C18.9019 29.1942 19.3398 28.9844 19.4805 28.5849C20.9606 24.3827 24.2818 21.8591 28.0753 20.9234C27.2627 21.474 26.7366 22.2621 26.6309 23.1423C26.4691 24.4889 27.3247 25.7064 28.9061 26.2538C29.2795 26.383 29.6559 26.4699 30.029 26.5201C30.1312 26.6451 30.245 26.7677 30.371 26.8872C30.6984 27.1974 31.1456 27.3479 31.5939 27.2985C31.8453 27.2709 32.095 27.2295 32.3407 27.1751C33.258 27.4996 34.4491 27.6467 35.9327 27.5847C39.0719 27.4535 40.2106 26.0634 40.4938 25.3868C40.6574 24.9962 40.4732 24.5469 40.0825 24.3833C39.6919 24.2198 39.2426 24.4039 39.079 24.7946C39.0791 24.7946 39.0784 24.7961 39.077 24.799C39.0756 24.802 39.0736 24.8061 39.0708 24.8114C39.0652 24.8221 39.0571 24.8367 39.0459 24.8546C39.0234 24.8905 38.9897 24.9382 38.942 24.994C38.8471 25.1048 38.6961 25.2479 38.4659 25.3931C38.0084 25.6818 37.2097 25.9962 35.8687 26.0523C35.4866 26.0682 35.1368 26.0686 34.8169 26.056C35.046 25.8798 35.2552 25.688 35.4398 25.482C35.8876 24.9822 36.2854 24.2861 36.2957 23.4488C36.3069 22.5531 35.8719 21.7929 35.215 21.2504C34.9972 21.0705 34.7692 20.9227 34.5347 20.8055C39.4683 21.801 43.7543 25.2643 44.5752 30.8497C44.6368 31.2687 45.0264 31.5585 45.4454 31.4969C45.4491 31.4964 45.4528 31.4958 45.4565 31.4952C45.4613 31.4944 45.466 31.4936 45.4707 31.4928C45.4828 31.495 45.495 31.4969 45.5073 31.4985C46.3364 31.6078 46.8091 32.0421 47.0695 32.6499C47.349 33.3021 47.3913 34.1917 47.1959 35.117C47.0014 36.0378 46.5907 36.8998 46.0764 37.4821C45.5609 38.0657 45.031 38.2828 44.5411 38.2028C44.1231 38.1345 43.7289 38.418 43.6606 38.836C43.6494 38.9049 43.6477 38.9733 43.6546 39.0396C41.0608 45.0504 34.9798 47.2393 29.3861 46.2329C23.753 45.2194 18.8187 41.0031 18.6072 34.3795C18.5943 33.9731 18.2674 33.6507 17.8668 33.6375C17.479 33.5577 17.1889 33.2951 16.9943 32.8293C16.7831 32.3237 16.7191 31.6349 16.8247 30.9329C16.9306 30.2295 17.1925 29.6063 17.5327 29.2105C17.724 28.988 17.9253 28.8486 18.1427 28.7892ZM30.3268 20.852C30.2964 20.7453 30.2448 20.6503 30.178 20.5704C30.9049 20.5031 31.6395 20.4899 32.3731 20.5301C31.4937 20.7161 30.7525 21.2299 30.2309 21.8463C29.616 22.5729 29.1724 23.6574 29.2861 24.7597C28.325 24.3861 28.0994 23.777 28.1537 23.3252C28.2171 22.7971 28.6995 22.1126 29.7992 21.7996C30.2065 21.6836 30.4427 21.2594 30.3268 20.852ZM32.0446 28.2897C32.3846 28.5423 32.4555 29.0226 32.2029 29.3626L30.0812 32.2189L31.6782 32.7614C32.0793 32.8976 32.2939 33.3332 32.1577 33.7342C32.0214 34.1352 31.5859 34.3499 31.1849 34.2136L28.5913 33.3326C28.3593 33.2537 28.1788 33.0687 28.1059 32.8347C28.0329 32.6007 28.0762 32.3459 28.2224 32.1492L30.9717 28.448C31.2243 28.108 31.7046 28.0371 32.0446 28.2897ZM24.094 34.637C24.2837 34.5404 24.5051 34.527 24.7051 34.6001L34.5998 38.2155C34.9976 38.3609 35.2023 38.8011 35.057 39.1989C34.4659 40.8176 33.3066 41.8073 31.9393 42.2411C30.5975 42.6669 29.095 42.5485 27.7565 42.0583C25.1197 41.0926 22.7393 38.4832 23.7046 35.1094C23.7632 34.9047 23.9042 34.7336 24.094 34.637ZM25.0342 36.3533C24.9061 38.2972 26.3416 39.9067 28.284 40.6181C29.369 41.0155 30.5181 41.083 31.4754 40.7792C32.2009 40.549 32.8388 40.1007 33.2849 39.368L25.0342 36.3533ZM34.2383 22.433C32.5339 21.0255 30.2504 23.2719 30.9254 25.0389C31.0246 25.2987 31.1878 25.5481 31.4261 25.774C31.7845 25.7345 32.1301 25.6607 32.4542 25.5596C34.3341 24.9732 35.4929 23.469 34.2383 22.433ZM24.208 26.5314C24.507 26.2315 24.9926 26.2308 25.2925 26.5298L27.5484 28.7793C27.7548 28.9851 27.8267 29.2903 27.7338 29.5666C27.6409 29.843 27.3994 30.0428 27.1105 30.0822L23.4447 30.582C23.0251 30.6393 22.6385 30.3455 22.5813 29.9258C22.524 29.5062 22.8178 29.1196 23.2375 29.0623L25.3686 28.7717L24.2095 27.6159C23.9096 27.3168 23.9089 26.8313 24.208 26.5314ZM38.999 36.0031C38.6809 36.2828 38.1963 36.2516 37.9167 35.9336L35.5381 33.2281C35.3628 33.0287 35.3031 32.7528 35.3802 32.4988C35.4574 32.2448 35.6604 32.0488 35.917 31.9806L39.3619 31.0649C39.7713 30.9562 40.1913 31.1998 40.3001 31.6091C40.4089 32.0184 40.1652 32.4384 39.7559 32.5472L37.5072 33.1449L39.0685 34.9209C39.3482 35.2389 39.317 35.7235 38.999 36.0031Z" fill="#4D4D4D"/>
</svg>
