<svg width="60" height="60" viewBox="0 0 60 60" fill="none" xmlns="http://www.w3.org/2000/svg">
<path d="M19.6897 21.4438C19.6897 21.4438 21.799 19.6887 24.0807 21.4438M26.7166 21.4438C26.7166 21.4438 28.8259 19.6887 31.1075 21.4438M21.8852 28.1228C21.8852 28.1228 25.4848 31.6394 28.9121 28.1228M36.8803 24.4594C41.5968 25.3338 46.6898 28.8249 47.2929 33.9179C47.2929 33.9179 40.6554 49.2193 31.4777 45.3549C28.159 43.9571 27.0261 41.0277 26.9368 37.8621M38.846 33.0276C38.846 33.0276 39.8608 35.4273 42.5541 34.9359M34.0529 31.6107C34.605 31.7958 35.2847 31.85 36.0921 31.6107M31.0437 37.6706C31.0437 37.6706 35.6868 36.5442 36.7814 41.0724M16.3167 28.142C15.1073 27.5612 13.534 27.8579 12.6182 28.8408C11.4758 30.0662 11.4758 31.9968 11.9895 33.5924C12.2544 34.4221 12.6629 35.2422 13.3522 35.7687C14.0414 36.2953 15.0722 36.4548 15.7838 35.957C16.6103 35.3794 16.7315 34.1668 16.4252 33.2031C15.8476 31.3969 13.9042 30.0822 12.031 30.3725C10.1578 30.6629 8.67078 32.6446 9.06329 34.5019M50.6117 46.5068C51.2499 45.4059 51.0871 43.8965 50.2287 42.9551C49.1565 41.7808 47.328 41.6372 45.7803 42.001C44.9761 42.1893 44.1688 42.5148 43.6167 43.1275C43.0647 43.7401 42.8381 44.7007 43.2529 45.4155C43.738 46.242 44.8772 46.4462 45.809 46.2292C47.5641 45.8208 48.9523 44.0784 48.8182 42.285C48.6842 40.4884 46.9227 38.9343 45.1357 39.1641M15.187 17.9942C17.1687 12.1832 30.8778 10.5621 35.3932 17.9304C35.3932 17.9304 35.7953 35.4975 25.3093 35.8485C14.8265 36.1995 15.1839 17.9942 15.1839 17.9942H15.187Z"  stroke-linecap="round" stroke-linejoin="round"/>
</svg>
