<svg width="60" height="60" viewBox="0 0 60 60" fill="none" xmlns="http://www.w3.org/2000/svg">
<path fill-rule="evenodd" clip-rule="evenodd" d="M11.4081 26.5671H13.9342C14.1665 26.5671 14.377 26.6433 14.5658 26.7994C14.7545 26.9555 14.9033 27.1696 15.0086 27.4454C15.1138 27.7213 15.1683 28.0407 15.1683 28.4C15.1683 28.8101 15.0993 29.1622 14.965 29.4598C14.8307 29.7574 14.6565 29.9643 14.446 30.0805V30.124C14.6928 30.2039 14.896 30.4071 15.0521 30.7338C15.2082 31.0604 15.288 31.4452 15.288 31.8916C15.288 32.5594 15.161 33.0712 14.9069 33.4269C14.6529 33.7826 14.3262 33.9604 13.9342 33.9604H11.4081V26.5671ZM13.6693 29.5179C13.8398 29.5179 13.9741 29.4453 14.0685 29.2965C14.1629 29.1477 14.2101 28.959 14.2101 28.7303C14.2101 28.4581 14.1665 28.2476 14.0794 28.106C13.9923 27.9645 13.8689 27.8919 13.7164 27.8919H12.3481V29.5179H13.6693ZM13.7781 32.6284C13.9415 32.6284 14.0721 32.5486 14.1774 32.3925C14.279 32.2364 14.3298 32.0078 14.3298 31.7138C14.3298 31.4488 14.279 31.231 14.1774 31.0677C14.0758 30.9044 13.9233 30.8209 13.7273 30.8209H12.3445V32.6284H13.7781Z" />
<path fill-rule="evenodd" clip-rule="evenodd" d="M18.3932 26.5671H16.0521V33.9532H16.9849V31.1984H18.219L18.9957 33.9532H20.0047L19.1046 30.9479C19.62 30.6031 19.8777 29.9135 19.8777 28.8791C19.8777 28.1459 19.7506 27.5797 19.5038 27.1732C19.257 26.7703 18.8868 26.5671 18.3932 26.5671ZM18.7707 29.6232C18.6654 29.801 18.5093 29.8917 18.3097 29.8917H16.9849V27.8882H18.3097C18.5093 27.8882 18.6654 27.9717 18.7707 28.1459C18.8759 28.3202 18.9304 28.5633 18.9304 28.8791C18.9304 29.1949 18.8759 29.4453 18.7707 29.6232Z" />
<path fill-rule="evenodd" clip-rule="evenodd" d="M21.1167 33.1292C20.7283 32.494 20.5323 31.5395 20.5323 30.2582C20.5323 28.977 20.7283 28.0261 21.1167 27.3909C21.505 26.7558 22.0567 26.4364 22.7609 26.4364C23.465 26.4364 24.0239 26.7521 24.4123 27.3909C24.8007 28.0297 24.9966 28.9807 24.9966 30.2582C24.9966 31.5358 24.8007 32.494 24.4123 33.1292C24.0239 33.7644 23.4722 34.0838 22.7609 34.0838C22.0495 34.0838 21.505 33.7644 21.1167 33.1292ZM23.7154 32.1492C23.9332 31.7427 24.0385 31.1693 24.0385 30.4216V30.0985C24.0385 29.3509 23.9296 28.7774 23.7154 28.3709C23.4977 27.9644 23.1819 27.7611 22.7609 27.7611C22.3398 27.7611 22.0241 27.9644 21.8099 28.3709C21.5958 28.7774 21.4869 29.3509 21.4869 30.0985V30.4216C21.4869 31.1693 21.5958 31.7427 21.8099 32.1492C22.0241 32.5557 22.3398 32.7554 22.7609 32.7554C23.1819 32.7554 23.4977 32.5521 23.7154 32.1492Z" />
<path fill-rule="evenodd" clip-rule="evenodd" d="M28.1664 26.5671H26.9941L25.2701 33.9532H26.2355L26.5513 32.5413H28.5584L28.8742 33.9532H29.8905L28.1664 26.5671ZM27.847 29.3655L28.2644 31.2383H26.8453L27.2627 29.3655C27.299 29.2166 27.3462 28.9662 27.4115 28.6141C27.4732 28.2621 27.5168 28.0298 27.5385 27.9136H27.5712C27.5874 28.0171 27.6237 28.2127 27.6776 28.5031L27.6982 28.6141C27.7636 28.9626 27.8144 29.2166 27.847 29.3655Z" />
<path fill-rule="evenodd" clip-rule="evenodd" d="M30.3356 26.5671H32.1613C32.8328 26.5671 33.3554 26.8756 33.7184 27.4854C34.0849 28.0988 34.2664 29.0243 34.2664 30.2583C34.2664 31.4924 34.0849 32.4179 33.7184 33.0313C33.3518 33.6447 32.8328 33.9532 32.1613 33.9532H30.3356V26.5671ZM32.1613 32.6284C32.5388 32.6284 32.8255 32.436 33.0179 32.0513C33.2139 31.6666 33.3119 31.1258 33.3119 30.4217V30.0986C33.3119 29.3945 33.2139 28.8501 33.0179 28.4653C32.8219 28.0806 32.5351 27.8882 32.1613 27.8882H31.2684V32.6248H32.1613V32.6284Z" />
<path d="M34.5594 26.5672H34.5504L34.5577 26.5564L34.5594 26.5672Z" />
<path d="M34.5594 26.5672H35.5449L36.1801 31.1114C36.193 31.207 36.2059 31.3301 36.2215 31.4782L36.2222 31.4852C36.2283 31.5432 36.2348 31.605 36.2418 31.6704L36.2636 31.9069C36.2736 32.0161 36.2809 32.0951 36.2854 32.1422H36.318C36.3217 32.0624 36.3362 31.9027 36.3616 31.6631C36.3834 31.4236 36.4051 31.2385 36.4233 31.1078L37.073 26.5636H38.1981L38.8405 31.1078C38.8587 31.2276 38.8768 31.4127 38.8986 31.6558L38.9098 31.7804L38.91 31.7834C38.9256 31.9568 38.9363 32.0765 38.9422 32.1386H38.9748C38.9782 32.0706 38.9912 31.9327 39.0107 31.7249L39.0148 31.6813C39.0365 31.449 39.0583 31.2566 39.0801 31.1042L39.737 26.56H40.5972L39.4285 33.9461H38.4195L37.6936 29.2422C37.6682 29.0861 37.6428 28.8901 37.6247 28.6542C37.6119 28.5184 37.6029 28.41 37.5962 28.3287L37.5961 28.3276C37.5913 28.2704 37.5877 28.2269 37.5847 28.1969H37.5593C37.5579 28.213 37.556 28.2324 37.5537 28.2551L37.5479 28.3109C37.5389 28.3994 37.5263 28.522 37.5121 28.6796C37.4904 28.9228 37.4686 29.1115 37.4504 29.2386L36.7354 33.9425H35.7264L34.5594 26.5672Z" />
<path fill-rule="evenodd" clip-rule="evenodd" d="M43.1602 26.5671L44.8842 33.9532H43.868L43.5522 32.5413H41.5451L41.2293 33.9532H40.2638L41.9879 26.5671H43.1602ZM43.2582 31.2383L42.8408 29.3655C42.8081 29.2166 42.7573 28.9626 42.692 28.6141L42.6717 28.5045C42.6176 28.2134 42.5812 28.0173 42.565 27.9136H42.5323C42.5105 28.0298 42.467 28.2621 42.4053 28.6141C42.3399 28.9662 42.2928 29.2166 42.2565 29.3655L41.8391 31.2383H43.2582Z" />
<path d="M44.3069 26.5671L45.991 30.9697V33.9532H46.9238V30.9697L48.5934 26.5671H47.5844L46.4992 29.5796H46.4665L45.3668 26.5671H44.3069Z" />
<path fill-rule="evenodd" clip-rule="evenodd" d="M9.34365 22.6411C8.20344 22.6411 7.27912 23.5654 7.27912 24.7056V35.8156C7.27912 36.9558 8.20344 37.8801 9.34365 37.8801H50.6513C51.7915 37.8801 52.7158 36.9558 52.7158 35.8156V24.7056C52.7158 23.5654 51.7915 22.6411 50.6513 22.6411H9.34365ZM7.77865 24.7056C7.77865 23.8413 8.47932 23.1406 9.34365 23.1406H50.6513C51.5156 23.1406 52.2163 23.8413 52.2163 24.7056V35.8156C52.2163 36.6799 51.5156 37.3806 50.6513 37.3806H9.34365C8.47932 37.3806 7.77865 36.6799 7.77865 35.8156V24.7056Z" />
<path fill-rule="evenodd" clip-rule="evenodd" d="M9.37883 20C6.96047 20 5 21.9605 5 24.3788V36.1421C5 38.5605 6.96047 40.521 9.37883 40.521H50.6212C53.0395 40.521 55 38.5605 55 36.1421V24.3788C55 21.9605 53.0395 20 50.6212 20H9.37883ZM6.4986 24.3788C6.4986 22.7881 7.78812 21.4986 9.37883 21.4986H50.6212C52.2119 21.4986 53.5014 22.7881 53.5014 24.3788V36.1421C53.5014 37.7328 52.2119 39.0224 50.6212 39.0224H9.37883C7.78812 39.0224 6.4986 37.7328 6.4986 36.1421V24.3788Z" />
</svg>
