<svg width="40" height="40" viewBox="0 0 40 40" fill="none" xmlns="http://www.w3.org/2000/svg">
<path d="M13.3056 20.0127L6.60938 22.7693V37.5004H13.5815H33.3887V22.7693L27.0395 20.0127" stroke="#4D4D4D" stroke-linecap="round" stroke-linejoin="round"/>
<path d="M13.6953 36.9481V12.7806L19.9954 9.9502L26.2981 12.5292V37.153" stroke="#4D4D4D" stroke-linecap="round" stroke-linejoin="round"/>
<path d="M6.60938 25.3612L13.3056 22.7686" stroke="#4D4D4D" stroke-linecap="round" stroke-linejoin="round"/>
<path d="M26.3047 22.7686L32.9981 25.5252" stroke="#4D4D4D" stroke-linecap="round" stroke-linejoin="round"/>
<path d="M13.6953 15.4939L19.9954 12.9258L25.5086 14.8928" stroke="#4D4D4D" stroke-linecap="round" stroke-linejoin="round"/>
<path d="M19.996 15.4932L17.6328 19.6185V23.5526H22.6461V19.5229L19.996 15.4932Z" stroke="#4D4D4D" stroke-linecap="round" stroke-linejoin="round"/>
<path d="M10.0472 26.7002L8.64844 29.4732V32.1151H11.6154V29.4076L10.0472 26.7002Z" stroke="#4D4D4D" stroke-linecap="round" stroke-linejoin="round"/>
<path d="M29.7425 26.7002L28.3438 29.4732V32.1151H31.3107V29.4076L29.7425 26.7002Z" stroke="#4D4D4D" stroke-linecap="round" stroke-linejoin="round"/>
<path d="M16.5625 37.1528V29.4021C16.5625 27.476 18.1225 25.916 20.0486 25.916C21.9746 25.916 23.5346 27.476 23.5346 29.4021V37.1528" stroke="#4D4D4D" stroke-linecap="round" stroke-linejoin="round"/>
<path d="M20 2.5V9.95023" stroke="#4D4D4D" stroke-linecap="round" stroke-linejoin="round"/>
<path d="M17.2422 5.44238H22.6489" stroke="#4D4D4D" stroke-linecap="round" stroke-linejoin="round"/>
</svg>
