<svg width="60" height="60" viewBox="0 0 60 60" fill="none" xmlns="http://www.w3.org/2000/svg">
<path d="M28.7945 10V21.9999M29.9999 30.8007V43.6006M10 19.9999V38.7998L29.9999 49.9992L48.7998 37.9993M49.2016 30.8007L30.4017 43.2006M49.2016 25.2008L30.4017 37.6007M48.8016 20.8007L30.4017 32.4007M29.1963 22.0005L48.3962 31.2004M29.1963 16.4006L48.3962 25.6006M28.7945 11.5988L48.3944 19.9987M11.596 23.2003L30.3959 32.4002M29.6035 43.1994L10.8036 32.3994L28.0035 22.3995M10.8036 27.6003L29.6035 37.6003M28.4053 16.4006L11.2054 27.2006M28.8053 11.5988L11.2054 22.3987M49.1962 18.8002V37.6001"  stroke-width="1.5" stroke-linecap="round" stroke-linejoin="round"/>
</svg>
