<svg width="60" height="60" viewBox="0 0 60 60" fill="none" xmlns="http://www.w3.org/2000/svg">
<path d="M25.6312 15.2173C25.6312 15.2869 25.6398 15.3565 25.6398 15.426C25.7082 15.426 25.7766 15.4347 25.845 15.4347C28.6792 15.4347 30.9748 13.1 30.9748 10.2174C30.9748 10.1478 30.9662 10.0783 30.9662 10.0087C30.8978 10.0087 30.8294 10 30.7611 10M25.6312 15.2173C25.6312 12.3348 27.9268 10 30.7611 10M25.6312 15.2173C25.6312 18.0988 27.9279 20.4347 30.7611 20.4347C33.5942 20.4347 35.8909 18.0988 35.8909 15.2173C35.8909 12.3359 33.5942 10 30.7611 10M25.6312 15.2173C25.6312 12.3359 27.9279 10 30.7611 10M41.8736 40.4343L39.95 42.3908M40.4046 38.0181L37.8183 40.6485M30.5503 35.3745L15.1352 48.1439C14.7291 48.4613 14.152 48.4221 13.7886 48.0526C13.421 47.6787 13.3868 47.0787 13.7117 46.6656L25.9976 31.0484M30.4971 26.1699L44.0185 12.0962C44.6726 11.4179 45.7413 11.3962 46.421 12.0527L49.0415 14.5875C49.7425 15.2657 49.7511 16.4048 49.0586 17.0918L34.9644 31.1003M15.6956 50L11.8482 46.087M45.2875 50L49.1349 46.087M18.6895 40.8695L20.6132 42.826M20.1626 38.4533L22.7489 41.0837M14.1517 11.6175L11.5312 14.1522C10.8301 14.8305 10.8216 15.9696 11.5141 16.6565L29.3018 34.3303C29.3702 34.3955 29.4386 34.4607 29.5112 34.5172L45.4394 47.7084C45.8455 48.0258 46.4226 47.9866 46.786 47.6171C47.1536 47.2432 47.1878 46.6432 46.8629 46.2301L33.8289 29.6564C33.7818 29.5955 33.7305 29.539 33.6792 29.4825L16.5499 11.6609C15.8958 10.9827 14.8271 10.9609 14.1474 11.6175H14.1517ZM35.8948 15.2175C33.0606 15.2175 30.765 17.5522 30.765 20.4348C33.5992 20.4348 35.8948 18.1 35.8948 15.2175Z"  stroke-width="1.5" stroke-linecap="round" stroke-linejoin="round"/>
</svg>
