<svg xmlns="http://www.w3.org/2000/svg" width="60" height="60" viewBox="0 0 60 60" fill="none">
    <path
        d="M40.3125 20.0657L28.7243 29.0554M28.7243 33.352L42.4139 22.4771M43.3982 23.4066L40.5157 19.8947C40.1639 19.4654 40.0993 18.8747 40.3511 18.384C40.5028 18.087 40.7578 17.8514 41.0709 17.7191L49.0503 14.3685C49.4151 14.2135 49.8379 14.2942 50.1188 14.5718L50.7159 15.1593C51.1614 15.5983 51.071 16.3311 50.5287 16.6474L49.9767 16.9734H49.0051C48.5984 16.9734 48.2143 17.1606 47.969 17.4802L43.5015 23.3195M41.2316 15.0238L42.7197 14.4331M41.9775 14.73L43.0524 16.8766M45.1733 13.5907L46.6613 13M45.9161 13.2969L46.6327 14.7301M34.3435 34.7205L30.8832 35.1046C30.3796 35.1595 29.8696 35.0595 29.4274 34.8141L29.1369 34.656C28.2782 34.1815 27.7844 33.2421 27.8812 32.2641L28.1168 29.8948C28.1846 29.2266 27.949 28.581 27.5358 28.0516C26.9774 27.3383 26.8612 26.3699 27.2324 25.5403L28.5106 22.6836C28.8593 21.9089 28.1394 21.0826 27.3228 21.3182L27.0355 21.4021C26.1478 21.6572 25.3441 22.1381 24.6952 22.7966L19.6339 27.9451C19.0529 28.5358 18.3459 28.9813 17.5648 29.2524L15.2149 30.0659C13.7559 30.3661 12.3937 31.0568 11.293 32.1543C8.0263 35.4016 8.28131 40.9504 11.8578 44.5527C15.4376 48.1519 20.9864 48.4359 24.2498 45.1886C24.9664 44.4753 25.5119 43.6522 25.8928 42.7645L26.5933 41.2732C27.2001 39.982 28.2944 38.9846 29.6404 38.5004L34.7437 36.667C35.0924 36.5411 35.37 36.2506 35.4345 35.889C35.5507 35.2241 34.9987 34.6495 34.3435 34.7205ZM23.2912 31.9652L25.8855 35.1101C26.2825 35.5914 26.2142 36.3035 25.7329 36.7005L25.5412 36.8587C25.0599 37.2557 24.3478 37.1874 23.9507 36.7061L21.3565 33.5612C20.9594 33.0799 21.0277 32.3678 21.509 31.9708L21.7008 31.8126C22.1821 31.4156 22.8941 31.4839 23.2912 31.9652ZM19.1254 36.1387L20.6844 38.0287C21.3673 38.8565 21.2498 40.0813 20.422 40.7642L20.0908 41.0374C19.2629 41.7203 18.0382 41.6028 17.3552 40.775L15.7962 38.885C15.1133 38.0572 15.2308 36.8324 16.0586 36.1495L16.3898 35.8763C17.2177 35.1934 18.4424 35.3109 19.1254 36.1387Z"
         stroke-linecap="round" stroke-linejoin="round" />
</svg>