<svg xmlns="http://www.w3.org/2000/svg" width="60" height="60" viewBox="0 0 60 60" fill="none">
    <path
        d="M31.5063 26.0783C31.4291 26.0044 31.3485 25.9339 31.268 25.8634C30.16 24.9032 28.7767 24.3022 27.2994 24.1477L26.4332 24.0571C25.567 23.9664 24.7007 24.2317 24.0292 24.789L23.6801 25.0778C23.1798 25.4941 22.8205 26.0481 22.6426 26.6726L22.3203 27.8007C22.2397 28.0827 22.0718 28.3345 21.8435 28.5225L21.313 28.9557C20.6718 29.4794 19.8693 29.7648 19.04 29.7648H18.3954C16.1996 29.6809 14.0542 30.4162 12.4627 32.0076C9.22946 35.2409 9.51485 40.7706 13.1006 44.3564C16.6864 47.9422 22.2128 48.2276 25.4494 44.9943C26.2317 44.2121 26.8059 43.2955 27.1785 42.305V42.2983C27.4371 41.61 27.5378 40.5054 27.5747 39.5888C27.615 38.5681 28.0817 37.6146 28.8674 36.9599L28.9949 36.8525C29.2535 36.6376 29.5791 36.5167 29.9183 36.5167H31.5366C32.2517 36.5167 32.9433 36.2817 33.5108 35.8452C34.3065 35.2341 34.7698 34.2873 34.7698 33.2835V32.4642C34.7698 31.1783 34.4274 29.926 33.7861 28.8314M34.77 36.9331L38.3994 41.5597M20.0374 18.1581L23.4284 22.4758M43.3885 17.1743L27.0645 29.9797C26.3594 30.5337 26.2352 31.551 26.7892 32.2561C27.3431 32.9611 28.3605 33.0854 29.0655 32.5314L45.3896 19.7226L43.3885 17.1743ZM43.3885 17.1743L45.2386 14.5555L48.8411 12.7559L51 15.2773L48.4785 18.158L45.2386 19.595M40.199 16.7177L41.2801 18.1581M43.7981 21.7573L44.8792 23.1976M37.3182 18.8765L38.3994 20.3169M40.921 23.9161L41.9987 25.3565M22.1961 33.2768C21.6824 32.7631 20.8665 32.7127 20.2924 33.1592L17.4419 35.3752C16.8678 35.8217 16.0519 35.7714 15.5382 35.2577L15.3569 35.0764M20.8834 41.6268C20.5208 40.9956 20.6886 40.1932 21.2695 39.7567L24.1569 37.5878C24.7378 37.1513 24.9056 36.3489 24.543 35.7177L24.4154 35.4961M10.0353 45.9681L16.7704 41.7611C17.1028 41.553 17.1867 41.1031 16.9517 40.7875L16.1425 39.7064C15.9075 39.3908 15.4509 39.3471 15.1588 39.609L9.23284 44.897C8.61842 45.4443 9.33692 46.4045 10.0353 45.9681Z"
         stroke-linecap="round" stroke-linejoin="round" />
</svg>