<svg xmlns="http://www.w3.org/2000/svg" width="60" height="60" viewBox="0 0 60 60" fill="none">
    <path
        d="M24.5868 34.4173V11.6585C24.5868 10.0613 26.5509 9.3908 27.4649 10.6749L32.0635 17.1616C32.3544 17.5696 32.3386 18.1325 32.0255 18.5215L29.9033 21.1687M40.0019 43.2919V20.533C40.0019 18.9359 41.966 18.2654 42.88 19.5494L47.4786 26.0361C47.7695 26.4441 47.7537 27.0071 47.4406 27.3961L45.3184 30.0433M24.4573 34.5849C24.4573 37.9386 21.7386 40.6573 18.3849 40.6573C15.0312 40.6573 12.3125 37.9386 12.3125 34.5849C12.3125 31.2312 15.0312 28.5125 18.3849 28.5125C21.7386 28.5125 24.4573 31.2312 24.4573 34.5849ZM39.8724 43.9276C39.8724 47.2813 37.1537 50 33.8 50C30.4463 50 27.7276 47.2813 27.7276 43.9276C27.7276 40.5739 30.4463 37.8552 33.8 37.8552C37.1537 37.8552 39.8724 40.5739 39.8724 43.9276Z"
         stroke-linecap="round" stroke-linejoin="round" />
</svg>