<svg width="40" height="40" viewBox="0 0 40 40" fill="none" xmlns="http://www.w3.org/2000/svg">
<path d="M23.6196 23.7466L20.736 24.0667C20.3163 24.1124 19.8913 24.029 19.5228 23.8246L19.2807 23.6928C18.5652 23.2974 18.1536 22.5146 18.2343 21.6996L18.4307 19.7252C18.4872 19.1683 18.2908 18.6304 17.9465 18.1892C17.4812 17.5947 17.3843 16.7878 17.6937 16.0964L18.7589 13.7159C19.0494 13.0703 18.4495 12.3817 17.769 12.578L17.5296 12.648C16.7898 12.8605 16.1201 13.2613 15.5794 13.81L11.3616 18.1004C10.8774 18.5927 10.2883 18.9639 9.63732 19.1899L7.67906 19.8677C6.46321 20.1179 5.32806 20.6935 4.41079 21.6081C1.68859 24.3142 1.90109 28.9382 4.88153 31.9401C7.86466 34.9394 12.4886 35.1761 15.2082 32.47C15.8053 31.8756 16.2599 31.1896 16.5773 30.4499L17.1611 29.2072C17.6668 28.1312 18.5786 27.3 19.7003 26.8965L23.9531 25.3686C24.2436 25.2637 24.475 25.0216 24.5288 24.7204C24.6256 24.1662 24.1656 23.6874 23.6196 23.7466Z" stroke="#4D4D4D" stroke-linecap="round" stroke-linejoin="round"/>
<path d="M28.5943 11.5342L18.9375 19.0256" stroke="#4D4D4D" stroke-linecap="round" stroke-linejoin="round"/>
<path d="M18.9375 22.6063L30.3455 13.5439" stroke="#4D4D4D" stroke-linecap="round" stroke-linejoin="round"/>
<path d="M31.1661 14.3183L28.764 11.3917C28.4708 11.0339 28.417 10.5417 28.6268 10.1328C28.7532 9.88535 28.9657 9.68898 29.2267 9.5787L35.8762 6.78655C36.1801 6.65743 36.5325 6.72468 36.7665 6.95602L37.2642 7.44558C37.6354 7.81141 37.5601 8.42203 37.1082 8.68564L36.6482 8.95732H35.8385C35.4996 8.95732 35.1795 9.11334 34.975 9.37964L31.2522 14.2457" stroke="#4D4D4D" stroke-linecap="round" stroke-linejoin="round"/>
<path d="M29.3594 7.3321L30.5994 6.83984" stroke="#4D4D4D" stroke-linecap="round" stroke-linejoin="round"/>
<path d="M29.9844 7.08789L30.8801 8.87669" stroke="#4D4D4D" stroke-linecap="round" stroke-linejoin="round"/>
<path d="M32.6406 6.13776L33.8807 5.64551" stroke="#4D4D4D" stroke-linecap="round" stroke-linejoin="round"/>
<path d="M33.2656 5.89355L33.8628 7.08788" stroke="#4D4D4D" stroke-linecap="round" stroke-linejoin="round"/>
<path d="M16.5735 24.0706L14.4116 21.4499C14.0807 21.0488 13.4873 20.9919 13.0862 21.3227L12.9265 21.4545C12.5254 21.7854 12.4684 22.3788 12.7993 22.7799L14.9612 25.4006C15.2921 25.8017 15.8855 25.8587 16.2866 25.5278L16.4464 25.396C16.8475 25.0651 16.9044 24.4717 16.5735 24.0706Z" stroke="#4D4D4D" stroke-linecap="round" stroke-linejoin="round"/>
<path d="M12.2359 26.5028L10.9367 24.9279C10.3676 24.238 9.34698 24.1401 8.65709 24.7092L8.38111 24.9368C7.69122 25.5059 7.5933 26.5266 8.16241 27.2165L9.46161 28.7914C10.0307 29.4813 11.0513 29.5792 11.7412 29.0101L12.0172 28.7824C12.7071 28.2133 12.805 27.1927 12.2359 26.5028Z" stroke="#4D4D4D" stroke-linecap="round" stroke-linejoin="round"/>
</svg>
