<svg width="40" height="40" viewBox="0 0 40 40" fill="none" xmlns="http://www.w3.org/2000/svg">
<path d="M28.1763 20.0001C32.5884 20.0001 36.1652 16.4234 36.1652 12.0113C36.1652 7.59918 32.5884 4.02246 28.1763 4.02246C23.7642 4.02246 20.1875 7.59918 20.1875 12.0113C20.1875 16.4234 23.7642 20.0001 28.1763 20.0001Z" stroke="#4D4D4D" stroke-linecap="round" stroke-linejoin="round"/>
<path d="M22.2812 4.9502L35.2142 17.9288" stroke="#4D4D4D" stroke-linecap="round" stroke-linejoin="round"/>
<path d="M20.1928 14.0645L9.31068 26.2091C8.79085 26.7889 8.7937 27.6657 9.31068 28.2427L10.8787 29.985C11.41 30.5762 12.3068 30.659 12.9381 30.1735L25.8967 20.2167" stroke="#4D4D4D" stroke-linecap="round" stroke-linejoin="round"/>
<path d="M9.54265 29.8906C9.54265 29.8906 7.26054 30.2705 6.11805 31.413C4.97557 32.5555 5.75817 36.7398 3.83594 37.4996" stroke="#4D4D4D" stroke-linecap="round" stroke-linejoin="round"/>
<path d="M22.7075 22.2105L17.9062 17.4092" stroke="#4D4D4D" stroke-linecap="round" stroke-linejoin="round"/>
<path d="M16.1927 27.4088L12.1797 23.1416" stroke="#4D4D4D" stroke-linecap="round" stroke-linejoin="round"/>
<path d="M12.8984 2.5V7.44982" stroke="#4D4D4D" stroke-linecap="round" stroke-linejoin="round"/>
<path d="M15.3795 4.97363H10.4297" stroke="#4D4D4D" stroke-linecap="round" stroke-linejoin="round"/>
<path d="M23.9375 30.6504V35.6002" stroke="#4D4D4D" stroke-linecap="round" stroke-linejoin="round"/>
<path d="M26.4108 33.127H21.4609" stroke="#4D4D4D" stroke-linecap="round" stroke-linejoin="round"/>
<path d="M31.4766 23.9014V27.0032" stroke="#4D4D4D" stroke-linecap="round" stroke-linejoin="round"/>
<path d="M33.0266 25.4521H29.9219" stroke="#4D4D4D" stroke-linecap="round" stroke-linejoin="round"/>
<path d="M7.89062 15.5303V18.635" stroke="#4D4D4D" stroke-linecap="round" stroke-linejoin="round"/>
<path d="M9.44064 17.084H6.33594" stroke="#4D4D4D" stroke-linecap="round" stroke-linejoin="round"/>
</svg>
