<svg width="40" height="40" viewBox="0 0 40 40" fill="none" xmlns="http://www.w3.org/2000/svg">
<path d="M31.5184 12.7959V16.7178C31.5184 20.7787 28.2274 24.0697 24.1665 24.0697H15.8363C11.7754 24.0697 8.48438 20.7787 8.48438 16.7178V12.7959" stroke="#4D4D4D" stroke-linecap="round" stroke-linejoin="round"/>
<path d="M27.0972 15.2443H20.0011C18.7836 15.2443 17.7969 14.2576 17.7969 13.0401C17.7969 11.8227 18.7836 10.8359 20.0011 10.8359H29.3125C30.5299 10.8359 31.5167 11.8227 31.5167 13.0401" stroke="#4D4D4D" stroke-linecap="round" stroke-linejoin="round"/>
<path d="M13.8739 7.65026C13.8739 6.16121 12.6674 4.9541 11.1791 4.9541C9.69086 4.9541 8.48438 6.16121 8.48438 7.65026V11.5694C8.48438 13.0585 9.69086 14.2656 11.1791 14.2656C12.6674 14.2656 13.8739 13.0585 13.8739 11.5694V7.65026Z" stroke="#4D4D4D" stroke-linecap="round" stroke-linejoin="round"/>
<path d="M16.5712 13.2849C15.0813 13.2849 13.875 12.0786 13.875 10.5888V6.66686C13.875 5.17702 15.0813 3.9707 16.5712 3.9707C18.061 3.9707 19.2673 5.17702 19.2673 6.66686V10.5888" stroke="#4D4D4D" stroke-linecap="round" stroke-linejoin="round"/>
<path d="M19.2656 9.11808V5.19615C19.2656 3.70632 20.4719 2.5 21.9618 2.5C23.4516 2.5 24.6579 3.70632 24.6579 5.19615V9.11808" stroke="#4D4D4D" stroke-linecap="round" stroke-linejoin="round"/>
<path d="M24.6562 9.61027V5.68834C24.6562 4.19851 25.8626 2.99219 27.3524 2.99219C28.8422 2.99219 30.0486 4.19851 30.0486 5.68834V10.0995" stroke="#4D4D4D" stroke-linecap="round" stroke-linejoin="round"/>
<path d="M23.3509 15.5449C23.3509 15.5449 19.6875 15.948 19.6875 20.3285" stroke="#4D4D4D" stroke-linecap="round" stroke-linejoin="round"/>
<path d="M13.3828 23.8662V37.4999" stroke="#4D4D4D" stroke-linecap="round" stroke-linejoin="round"/>
<path d="M26.125 23.8662V37.4999" stroke="#4D4D4D" stroke-linecap="round" stroke-linejoin="round"/>
<path d="M19.75 29.9482V37.5003" stroke="#4D4D4D" stroke-linecap="round" stroke-linejoin="round"/>
</svg>
