<svg width="60" height="60" viewBox="0 0 60 60" fill="none" xmlns="http://www.w3.org/2000/svg">
<path d="M33.6612 30.1787L21.8402 14L10.0161 30.1787M48.7117 30.9753V43.6209H12.3753V30.7036M10 30.4258H13.805M28.0442 22.4192H39.9416M47.2608 30.6395H50L44.4056 23.5762M29.9525 30.6397H37.4067M21.9812 33.9958V42.7142M31.8688 30.6397V43.386M34.7433 43.386V35.3364H37.0459M34.7433 38.0207H37.3634M34.7433 40.7019H39.2629M14.9599 23.262V15.8841C14.9599 15.5146 15.247 15.2123 15.5982 15.2123H17.1922C17.5434 15.2123 17.8305 15.5116 17.8305 15.8841V19.3074M41.5122 41.2176C41.5122 41.2176 36.1682 42.2864 37.2461 32.0259C38.3211 21.7653 41.8329 21.3347 41.8329 21.3347M42.367 41.2176C42.367 41.2176 47.711 42.2864 46.6331 32.0259C45.5582 21.7653 42.0464 21.3347 42.0464 21.3347M42.151 31.9833V45.3984M45.8146 43.6213V39.63M21.6937 22.5898H22.3411C23.9443 22.5898 25.2452 23.8907 25.2452 25.4939V27.9552C25.2452 28.1629 25.0772 28.3308 24.8696 28.3308H19.1682C18.9606 28.3308 18.7926 28.1629 18.7926 27.9552V25.4939C18.7926 23.8907 20.0935 22.5898 21.6967 22.5898H21.6937ZM21.6349 33.9958H22.3251C24.6001 33.9958 26.4476 35.8433 26.4476 38.1183V43.386H17.5124V38.1183C17.5124 35.8433 19.3599 33.9958 21.6349 33.9958Z"  stroke-linecap="round" stroke-linejoin="round"/>
</svg>
