<svg width="60" height="60" viewBox="0 0 60 60" fill="none" xmlns="http://www.w3.org/2000/svg">
<path d="M37.4761 26.1602C37.4761 26.1602 37.4761 28.5844 35.8843 30.6045C34.4795 32.3903 31.1089 33.0287 31.1089 33.0287M27.8103 13.7527L18.3191 23.3887M31.1919 17.1873L21.7007 26.8234M34.1828 20.2173L24.6916 29.8534M34.6924 24.1397L24.2899 13.3481M33.1033 28.9884L19.9708 15.6555M28.331 30.6044L17.9285 19.8128M25.5407 44.1416C25.5407 47.3771 22.9572 50 19.7703 50C16.5835 50 14 47.3771 14 44.1416C14 40.9061 16.5835 38.2832 19.7703 38.2832C22.9572 38.2832 25.5407 40.9061 25.5407 44.1416ZM21.165 44.1396C21.165 45.9982 22.0206 47.6547 23.3537 48.7294C24.6869 47.6547 25.5425 46.0022 25.5425 44.1396C25.5425 42.2771 24.6869 40.6246 23.3537 39.5499C22.0206 40.6246 21.165 42.2771 21.165 44.1396ZM14 44.1402C14 45.9058 14.772 47.4855 15.9898 48.5602C17.2075 47.4855 17.9795 45.9058 17.9795 44.1402C17.9795 42.3745 17.2075 40.7948 15.9898 39.7201C14.772 40.7948 14 42.3745 14 44.1402ZM36.2892 33.769L38.677 31.0095C38.677 31.0095 35.947 18.2301 35.6684 17.418V17.3978H35.6605C34.1562 13.0868 30.105 10 25.3455 10C19.3006 10 14.4018 14.9736 14.4018 21.1108C14.4018 26.5571 18.2619 31.0862 23.3557 32.0357L23.4035 32.0438C23.7338 32.1044 36.2892 33.769 36.2892 33.769ZM36.2873 33.8381L38.8421 31.1796L51.9786 44.153C52.7626 44.9246 52.7705 46.1973 51.9985 46.9811C51.2344 47.7569 49.9968 47.7569 49.2327 46.9811L36.2873 33.8381Z"  stroke-width="1.5" stroke-linecap="round" stroke-linejoin="round"/>
</svg>
