<svg width="60" height="60" viewBox="0 0 60 60" fill="none" xmlns="http://www.w3.org/2000/svg">
<path d="M37.6697 20.8271C39.0656 20.2527 40.4487 19.8034 41.3408 19.8034C43.3818 19.8034 46.4592 21.5106 47.438 22.085C47.6369 22.2038 47.8776 22.2102 48.0862 22.1139L51 20.7276L49.2094 24.3153C49.2094 24.3153 50.5604 31.1891 50.2427 32.0812C50.1721 32.2833 50.0245 32.5176 49.8383 32.7583C48.9687 33.8846 47.6658 33.1369 46.825 31.9913C45.7757 30.5601 43.6417 28.8336 44.1487 26.9275C44.1487 26.9275 40.5193 24.0586 39.701 31.2853L42.1399 31.5677C42.7271 31.6351 43.0544 32.309 42.7592 32.8385L38.8827 39.7925M36.4312 37.9604L39.2969 33.7373L34.3839 33.4164C34.3839 33.4164 32.3365 36.3944 28.2418 34.6936C28.6525 37.2448 26.1944 41.0731 23.3287 41.4967C22.918 44.4747 22.5104 47.0259 22.5104 47.0259M17.4205 47.0229L19.0379 39.793C20.8895 39.793 21.6917 38.0922 21.281 36.815C20.8702 35.5378 20.4627 31.7126 21.6917 30.0118C19.6444 28.311 18.4153 30.4386 18.4153 30.4386C13.5023 40.6466 9 36.8182 9 36.8182C12.684 36.3914 15.1421 28.311 17.5264 26.9311C19.9139 25.5481 22.0993 27.8874 23.0524 28.0992C23.5947 27.4606 26.6048 25.7598 26.6048 25.7598M36.717 22.3552H34.3776C33.9251 22.3552 33.5593 21.9733 33.5593 21.5048V18.761C33.5593 17.8465 31.8392 16.8035 31.0273 17.163L26.1913 19.3162C24.7248 20.1217 24.4296 22.1723 25.6105 23.3853L27.8119 25.6476L26.4737 29.123C26.156 29.951 26.586 30.8848 27.4108 31.1447L27.4461 31.1543C28.1456 31.3758 28.8901 31.0484 29.2239 30.3778C30.0293 28.7572 31.3964 26.0006 31.3964 26.0006C31.7109 25.346 31.5889 24.5534 31.0883 24.0367L28.6462 21.5016M39.2877 15.3394C39.2877 16.6314 38.2791 17.6788 37.0349 17.6788C35.7908 17.6788 34.7822 16.6314 34.7822 15.3394C34.7822 14.0474 35.7908 13 37.0349 13C38.2791 13 39.2877 14.0474 39.2877 15.3394ZM47.4841 26.3984C47.4841 26.7511 47.2097 27.037 46.8712 27.037C46.5327 27.037 46.2583 26.7511 46.2583 26.3984C46.2583 26.0458 46.5327 25.7598 46.8712 25.7598C47.2097 25.7598 47.4841 26.0458 47.4841 26.3984Z"  stroke-width="1.5" stroke-linecap="round" stroke-linejoin="round"/>
</svg>
