<svg width="60" height="60" viewBox="0 0 60 60" fill="none" xmlns="http://www.w3.org/2000/svg">
<path d="M21.2486 40.3636V12L28.8849 14.9091V22.5455L21.6122 25.0909M39.9164 33.6821C45.9382 34.9366 50 37.293 50 39.9985C50 44.0166 41.0473 47.2712 30 47.2712C18.9527 47.2712 10 44.0166 10 39.9985C10 35.9803 18.9527 32.7257 30 32.7257M29.2466 17.9712L37.9739 21.0912L27.0648 25.1821V23.6657M27.6356 39.713C27.6356 41.1045 24.8157 42.2324 21.3372 42.2324C17.8586 42.2324 15.0387 41.1045 15.0387 39.713C15.0387 38.3216 17.8586 37.1937 21.3372 37.1937C24.8157 37.1937 27.6356 38.3216 27.6356 39.713ZM37.6368 33.2732C37.6368 34.7794 36.4158 36.0004 34.9095 36.0004C33.4033 36.0004 32.1823 34.7794 32.1823 33.2732C32.1823 31.7669 33.4033 30.5459 34.9095 30.5459C36.4158 30.5459 37.6368 31.7669 37.6368 33.2732Z"  stroke-width="1.5" stroke-linecap="round" stroke-linejoin="round"/>
</svg>
