<svg width="60" height="60" viewBox="0 0 60 60" fill="none" xmlns="http://www.w3.org/2000/svg">
<path d="M29.9982 34.2464C34.2084 34.2464 37.6214 30.8334 37.6214 26.6232C37.6214 22.413 34.2084 19 29.9982 19C25.788 19 22.375 22.413 22.375 26.6232C22.375 30.8334 25.788 34.2464 29.9982 34.2464Z"  stroke-width="1.5" stroke-linecap="round" stroke-linejoin="round"/>
<path d="M47.3732 34.2464C51.5834 34.2464 54.9964 30.8334 54.9964 26.6232C54.9964 22.413 51.5834 19 47.3732 19C43.163 19 39.75 22.413 39.75 26.6232C39.75 30.8334 43.163 34.2464 47.3732 34.2464Z"  stroke-width="1.5" stroke-linecap="round" stroke-linejoin="round"/>
<path d="M21.5685 41.7884C25.7787 41.7884 29.1917 38.3754 29.1917 34.1652C29.1917 29.955 25.7787 26.542 21.5685 26.542C17.3583 26.542 13.9453 29.955 13.9453 34.1652C13.9453 38.3754 17.3583 41.7884 21.5685 41.7884Z"  stroke-width="1.5" stroke-linecap="round" stroke-linejoin="round"/>
<path d="M38.9435 41.7884C43.1537 41.7884 46.5667 38.3754 46.5667 34.1652C46.5667 29.955 43.1537 26.542 38.9435 26.542C34.7333 26.542 31.3203 29.955 31.3203 34.1652C31.3203 38.3754 34.7333 41.7884 38.9435 41.7884Z"  stroke-width="1.5" stroke-linecap="round" stroke-linejoin="round"/>
<path d="M12.6232 34.2464C16.8334 34.2464 20.2464 30.8334 20.2464 26.6232C20.2464 22.413 16.8334 19 12.6232 19C8.41303 19 5 22.413 5 26.6232C5 30.8334 8.41303 34.2464 12.6232 34.2464Z"  stroke-width="1.5" stroke-linecap="round" stroke-linejoin="round"/>
</svg>
