<svg xmlns="http://www.w3.org/2000/svg" width="60" height="60" viewBox="0 0 60 60" fill="none">
    <path
        d="M25.1334 32.7112C23.3315 31.9884 22.0492 30.2198 22.0492 28.1681V13.8928C22.0492 11.2016 24.2508 9 26.942 9H33.0571C35.7483 9 37.9499 11.2016 37.9499 13.8928V28.1648C37.9499 30.0733 36.8408 31.7353 35.2387 32.5413M26.1293 9.816V17.5632M30.0028 9.816V17.5632M33.8764 9.816V17.5632M39.0322 26.5327H40.8075V33.4639C40.8075 35.7154 38.9822 37.5406 36.7307 37.5406H23.2747C21.0232 37.5406 19.198 35.7154 19.198 33.4639V26.5327H21.3562M28.1677 37.1376V46.5169M31.838 37.1376V46.5169M22.0525 20.0113H27.7613V22.8657H22.0525V20.0113ZM22.0525 25.3104H27.7613V28.1648H22.0525V25.3104ZM32.2442 20.0113H37.953V22.8657H32.2442V20.0113ZM32.2442 25.3104H37.953V28.1648H32.2442V25.3104ZM33.8765 33.264C33.8765 35.4034 32.1422 37.1376 30.0029 37.1376C27.8636 37.1376 26.1293 35.4034 26.1293 33.264C26.1293 31.1247 27.8636 29.3905 30.0029 29.3905C32.1422 29.3905 33.8765 31.1247 33.8765 33.264ZM37.9532 22.0496H41.4238C42.4363 22.0496 43.2557 22.869 43.2557 23.8815V24.7042C43.2557 25.7167 42.4363 26.536 41.4238 26.536H37.9532V22.0496ZM22.0525 26.5327H18.5819C17.5693 26.5327 16.75 25.7134 16.75 24.7008V23.8781C16.75 22.8656 17.5693 22.0463 18.5819 22.0463H22.0525V26.5327ZM25.5298 47.3296H34.4727C35.9449 47.3296 37.1373 48.522 37.1373 49.9941V51H22.8653V49.9941C22.8653 48.522 24.0577 47.3296 25.5298 47.3296Z"
         stroke-linecap="round" stroke-linejoin="round" />
</svg>