<svg width="40" height="40" viewBox="0 0 40 40" fill="none" xmlns="http://www.w3.org/2000/svg">
<path d="M35.2907 10.1084H4.70925C3.48911 10.1084 2.5 11.0975 2.5 12.3176V30.7262C2.5 31.9463 3.48911 32.9354 4.70925 32.9354H35.2907C36.5109 32.9354 37.5 31.9463 37.5 30.7262V12.3176C37.5 11.0975 36.5109 10.1084 35.2907 10.1084Z" stroke="#4D4D4D" stroke-linecap="round" stroke-linejoin="round"/>
<path d="M6.67969 7.06445H12.3878" stroke="#4D4D4D" stroke-linecap="round" stroke-linejoin="round"/>
<path d="M32.5903 20H7.0265C6.41643 20 5.92188 20.4946 5.92188 21.1046V31.8305C5.92188 32.4406 6.41643 32.9351 7.0265 32.9351H32.5903C33.2003 32.9351 33.6949 32.4406 33.6949 31.8305V21.1046C33.6949 20.4946 33.2003 20 32.5903 20Z" stroke="#4D4D4D" stroke-linecap="round" stroke-linejoin="round"/>
<path d="M8.6183 13.5322H7.78431C7.17424 13.5322 6.67969 14.0268 6.67969 14.6369V15.4708C6.67969 16.0809 7.17424 16.5755 7.78431 16.5755H8.6183C9.22837 16.5755 9.72293 16.0809 9.72293 15.4708V14.6369C9.72293 14.0268 9.22837 13.5322 8.6183 13.5322Z" stroke="#4D4D4D" stroke-linecap="round" stroke-linejoin="round"/>
<path d="M14.3292 13.5322H13.4952C12.8852 13.5322 12.3906 14.0268 12.3906 14.6369V15.4708C12.3906 16.0809 12.8852 16.5755 13.4952 16.5755H14.3292C14.9393 16.5755 15.4339 16.0809 15.4339 15.4708V14.6369C15.4339 14.0268 14.9393 13.5322 14.3292 13.5322Z" stroke="#4D4D4D" stroke-linecap="round" stroke-linejoin="round"/>
<path d="M32.0018 12.3916H21.6929C21.3879 12.3916 21.1406 12.6389 21.1406 12.9439V16.7852C21.1406 17.0903 21.3879 17.3376 21.6929 17.3376H32.0018C32.3069 17.3376 32.5541 17.0903 32.5541 16.7852V12.9439C32.5541 12.6389 32.3069 12.3916 32.0018 12.3916Z" stroke="#4D4D4D" stroke-linecap="round" stroke-linejoin="round"/>
<path d="M10.1138 20H9.35156V25.327H10.1138V20Z" stroke="#4D4D4D" stroke-linecap="round" stroke-linejoin="round"/>
<path d="M13.5356 20H12.7734V25.327H13.5356V20Z" stroke="#4D4D4D" stroke-linecap="round" stroke-linejoin="round"/>
<path d="M23.4263 20H22.6641V25.327H23.4263V20Z" stroke="#4D4D4D" stroke-linecap="round" stroke-linejoin="round"/>
<path d="M26.8481 20H26.0859V25.327H26.8481V20Z" stroke="#4D4D4D" stroke-linecap="round" stroke-linejoin="round"/>
<path d="M30.27 20H29.5078V25.327H30.27V20Z" stroke="#4D4D4D" stroke-linecap="round" stroke-linejoin="round"/>
<path d="M9.72656 25.7051V32.9348" stroke="#4D4D4D" stroke-linecap="round" stroke-linejoin="round"/>
<path d="M13.0859 20.3809V32.9349" stroke="#4D4D4D" stroke-linecap="round" stroke-linejoin="round"/>
<path d="M16.4453 20.3809V32.9349" stroke="#4D4D4D" stroke-linecap="round" stroke-linejoin="round"/>
<path d="M19.8125 20.3809V32.9349" stroke="#4D4D4D" stroke-linecap="round" stroke-linejoin="round"/>
<path d="M23.1719 20.3809V32.9349" stroke="#4D4D4D" stroke-linecap="round" stroke-linejoin="round"/>
<path d="M26.5312 20.3809V32.9349" stroke="#4D4D4D" stroke-linecap="round" stroke-linejoin="round"/>
<path d="M29.8906 20.3809V32.9349" stroke="#4D4D4D" stroke-linecap="round" stroke-linejoin="round"/>
</svg>
