<svg xmlns="http://www.w3.org/2000/svg" width="60" height="60" viewBox="0 0 60 60" fill="none">
    <path
        d="M32.6103 12.8007L47.3908 27.6335M30.2177 23.2169L17.7809 37.0965C17.1868 37.7591 17.1901 38.7612 17.7809 39.4206L19.573 41.4118C20.1802 42.0875 21.2051 42.1822 21.9265 41.6272L36.7364 30.2481M18.0454 41.3041C18.0454 41.3041 15.4373 41.7382 14.1316 43.0439C12.8259 44.3496 13.7203 49.1317 11.5234 50M33.0934 32.5265L27.6062 27.0393M25.6477 38.4675L21.0615 33.5907M21.8874 10V15.6569M24.7175 12.8268H19.0605M34.4971 42.1724V47.8293M37.324 45.0025H31.6671M43.1181 34.459V38.0039M44.8904 36.2315H41.3422M16.1619 24.8915V28.4397M17.9343 26.6672H14.386M48.4778 20.87C48.4778 25.9124 44.3901 30 39.3477 30C34.3053 30 30.2176 25.9124 30.2176 20.87C30.2176 15.8275 34.3053 11.7399 39.3477 11.7399C44.3901 11.7399 48.4778 15.8275 48.4778 20.87Z"
         stroke-linecap="round" stroke-linejoin="round" />
</svg>