<svg width="40" height="40" viewBox="0 0 40 40" fill="none" xmlns="http://www.w3.org/2000/svg">
<path d="M8.2286 22.8029C11.9835 22.8029 15.0275 19.7589 15.0275 16.004C15.0275 12.2491 11.9835 9.20508 8.2286 9.20508C4.47366 9.20508 1.42969 12.2491 1.42969 16.004C1.42969 19.7589 4.47366 22.8029 8.2286 22.8029Z" stroke="#4D4D4D" stroke-linecap="round" stroke-linejoin="round"/>
<path d="M9.50205 8.40625L5.86719 23.4574" stroke="#4D4D4D" stroke-linecap="round" stroke-linejoin="round"/>
<path d="M33.6399 18.791L37.5263 19.756C38.2515 19.9344 38.7018 20.6596 38.5381 21.3907L37.731 25.0168C37.5731 25.7215 36.8976 26.1865 36.1811 26.0783L19.5859 23.5693" stroke="#4D4D4D" stroke-linecap="round" stroke-linejoin="round"/>
<path d="M15.4375 14.2295L19.9906 15.0161" stroke="#4D4D4D" stroke-linecap="round" stroke-linejoin="round"/>
<path d="M17.7812 13.6353V7.03236C17.7812 5.90945 18.6907 5 19.8136 5C20.9365 5 21.846 5.90945 21.846 7.03236V11.4363" stroke="#4D4D4D" stroke-linecap="round" stroke-linejoin="round"/>
<path d="M20.9531 13.8548V18.7442C20.9531 19.8174 21.7573 20.6888 22.7515 20.6888C23.7458 20.6888 24.55 19.8174 24.55 18.7442V13.8548C24.55 12.7787 23.7429 11.9072 22.7486 11.9102C21.7573 11.9102 20.9531 12.7816 20.9531 13.8548Z" stroke="#4D4D4D" stroke-linecap="round" stroke-linejoin="round"/>
<path d="M24.5625 15.6614V20.5508C24.5625 21.624 25.3667 22.4954 26.3609 22.4954C27.3552 22.4954 28.1593 21.624 28.1593 20.5508V15.6614C28.1593 14.5853 27.3522 13.7139 26.358 13.7168C25.3667 13.7168 24.5625 14.5882 24.5625 15.6614Z" stroke="#4D4D4D" stroke-linecap="round" stroke-linejoin="round"/>
<path d="M28.1719 16.5657V21.4551C28.1719 22.5283 28.976 23.3997 29.9703 23.3997C30.9645 23.3997 31.7687 22.5283 31.7687 21.4551V16.5657C31.7687 15.4896 30.9616 14.6182 29.9674 14.6211C28.976 14.6211 28.1719 15.4925 28.1719 16.5657Z" stroke="#4D4D4D" stroke-linecap="round" stroke-linejoin="round"/>
<path d="M19.5854 25.6365L17.17 23.2415L17.9829 22.4315C18.6994 21.715 18.714 20.56 18.0122 19.826C17.2986 19.0803 16.1143 19.0569 15.3745 19.7733L13.231 21.8437C12.5058 22.5455 12.4941 23.7065 13.2076 24.42L17.6788 28.8912C18.6116 29.824 19.8749 30.3475 21.1908 30.3475H22.7465" stroke="#4D4D4D" stroke-linecap="round" stroke-linejoin="round"/>
<path d="M32.2306 25.8291V27.262C32.2306 28.2855 31.637 29.2125 30.71 29.6423C29.783 30.0722 29.1894 30.9992 29.1894 32.0227V33.1924C29.1894 34.1896 28.3793 34.9996 27.3822 34.9996H20.94C19.9428 34.9996 19.1328 34.1896 19.1328 33.1924V30.6073" stroke="#4D4D4D" stroke-linecap="round" stroke-linejoin="round"/>
</svg>
