<svg width="60" height="60" viewBox="0 0 60 60" fill="none" xmlns="http://www.w3.org/2000/svg">
<path d="M45.7221 26.3772C45.7221 26.3772 41.8412 27.4156 39.2338 26.3772M45.3902 23.9532C45.3902 23.9532 41.7455 24.9916 39.3136 23.9532M38.4965 29.6643C38.4965 29.6643 42.3997 36.1931 46.8997 35.9563C46.8997 35.9563 46.0987 43.332 41.9306 42.988C37.7625 42.6408 38.1423 34.6842 38.1423 34.6842C38.1423 34.6842 42.3104 36.0698 46.0987 29.6676M31.9284 17.0805C31.9284 17.0805 31.4848 22.8921 32.7869 27.3085M35.7742 24.612L30.304 29.9207L27.2752 32.6399C26.704 33.1526 26.0561 33.5777 25.3603 33.8957L10.4848 41.0411C9.26564 41.596 7.83904 41.0573 7.26457 39.8307C7.255 39.808 7.24543 39.7853 7.23266 39.7626C6.68691 38.5782 7.13053 37.1601 8.25713 36.5241C12.7316 34.006 17.0433 28.9439 18.0965 23.9273C18.7284 20.9127 22.9731 22.3762 25.2423 23.1128C26.1837 22.8629 27.3199 21.8278 28.4689 20.6596C31.3189 17.7619 34.2199 13.3877 34.2199 13.3877M28.5455 20.6012C28.5455 20.6012 28.2838 25.8515 29.854 29.9044M24.7125 23.791C24.7125 23.791 25.7497 29.9239 18.0039 37.3062M27.1635 32.0688C27.1635 32.0688 24.2433 31.5594 24.0933 28.5773M20.6146 22.9019C20.6146 22.9019 22.9763 29.0316 10.7465 34.9438M46.0987 10.4575L45.3423 23.2588L46.0987 29.6611C46.0987 29.6611 49.887 48.1734 41.9306 49.903C33.9742 51.6326 38.4965 29.6611 38.4965 29.6611L38.8987 24.2972L35.9657 10L46.0987 10.4575Z"  stroke-linecap="round" stroke-linejoin="round"/>
</svg>
