<svg width="60" height="60" viewBox="0 0 60 60" fill="none" xmlns="http://www.w3.org/2000/svg">
<path d="M19.516 17.0237L21.202 15.675M21.3677 18.8773L23.0536 17.5286M23.0552 20.8999L24.7412 19.5511M24.735 23.2613L26.421 21.9125M42.7753 35.9053L38.3918 39.9516M47.1649 35.9053L43.1186 39.9516M29.8747 30.6291L23.1646 39.3522C23.0365 39.5174 22.8409 39.6152 22.6285 39.6152H12.8904C12.4184 39.6152 11.9632 39.4365 11.6192 39.1128L10.3143 37.8922C9.90968 37.5145 9.89282 36.8773 10.2806 36.4794L11.0629 35.6735C11.3394 35.3903 11.717 35.2284 12.1149 35.2284H21.6304C21.8327 35.2284 22.0249 35.1374 22.153 34.9823L27.7537 28.1306M30.0712 25.2872L40.7297 12.2481C40.959 11.9648 41.3738 11.9176 41.6637 12.1402L42.6517 12.8988C42.9484 13.1248 43.0024 13.5496 42.7765 13.8463L32.1247 27.6947M40.4997 16.6848L38.8137 15.3361M38.6402 18.5404L36.9543 17.1916M36.9605 20.5629L35.2745 19.2142M35.2729 22.9244L33.5869 21.5756M17.2347 35.5684L21.6181 39.6147M12.8439 35.5684L16.8901 39.6147M35.6916 45.853C35.6916 47.0635 33.1256 48.0447 29.9594 48.0447C26.7932 48.0447 24.2272 47.0635 24.2272 45.853M24.2272 42.9867V46.0214M35.6964 42.9867V46.0214M26.782 47.5413V46.4927M17.2177 14.1833L36.8354 39.6849C36.9635 39.8501 37.1591 39.9479 37.3715 39.9479H47.1096C47.5816 39.9479 48.0368 39.7692 48.3808 39.4455L49.6857 38.2249C50.0903 37.8472 50.1072 37.2099 49.7194 36.812L48.9371 36.0062C48.6606 35.7229 48.283 35.5611 47.8851 35.5611H38.3696C38.1673 35.5611 37.9751 35.47 37.847 35.3149L19.2645 12.585C19.0352 12.3018 18.6205 12.2545 18.3305 12.4771L17.3425 13.2358C17.0458 13.4617 16.9918 13.8865 17.2177 14.1833ZM35.6916 42.818C35.6916 44.0284 33.1252 45.0097 29.9594 45.0097C26.7936 45.0097 24.2272 44.0284 24.2272 42.818C24.2272 41.6075 26.7936 40.6262 29.9594 40.6262C33.1252 40.6262 35.6916 41.6075 35.6916 42.818Z"  stroke-width="1.5" stroke-linecap="round" stroke-linejoin="round"/>
</svg>
