<svg width="60" height="60" viewBox="0 0 60 60" fill="none" xmlns="http://www.w3.org/2000/svg">
<path d="M38.0535 31.3814C38.4052 31.6002 38.8677 31.4924 39.0865 31.1407C39.3053 30.7889 39.1975 30.3265 38.8458 30.1077L38.0535 31.3814ZM35.2394 27.8645C34.8876 27.6457 34.4251 27.7535 34.2064 28.1052C33.9876 28.4569 34.0954 28.9194 34.4471 29.1382L35.2394 27.8645ZM32.1987 29.634C32.6129 29.634 32.9487 29.2982 32.9487 28.884C32.9487 28.4698 32.6129 28.134 32.1987 28.134V29.634ZM27.826 28.884L27.4799 29.5493C27.5868 29.6049 27.7055 29.634 27.826 29.634V28.884ZM24.2555 27.0267L23.7491 27.5799C23.7974 27.6241 23.8513 27.6619 23.9094 27.6921L24.2555 27.0267ZM21.1708 24.2029L20.6629 24.7548L20.6644 24.7561L21.1708 24.2029ZM19.3122 24.3249L18.739 23.8412L18.7379 23.8425L19.3122 24.3249ZM19.3415 26.0239L18.8152 26.5582C18.8326 26.5753 18.8508 26.5916 18.8698 26.6069L19.3415 26.0239ZM23.199 29.1446L22.7273 29.7277C22.7468 29.7435 22.7671 29.7583 22.7881 29.772L23.199 29.1446ZM27.5717 32.008L28.3143 31.9029C28.2841 31.6892 28.1632 31.4988 27.9826 31.3806L27.5717 32.008ZM27.0867 33.934C27.1447 34.3442 27.5242 34.6296 27.9343 34.5716C28.3445 34.5136 28.6299 34.134 28.5719 33.7239L27.0867 33.934ZM35.6513 32.2664C36.0655 32.2704 36.4044 31.9378 36.4084 31.5236C36.4123 31.1094 36.0798 30.7705 35.6656 30.7665L35.6513 32.2664ZM32.1987 31.4835L32.2059 30.7335C31.8207 30.7298 31.4953 31.0186 31.4532 31.4015L32.1987 31.4835ZM31.1956 33.7437C31.1503 34.1554 31.4474 34.5259 31.8591 34.5712C32.2709 34.6165 32.6414 34.3194 32.6866 33.9077L31.1956 33.7437ZM37.3525 27.2429C37.0346 27.5084 36.9922 27.9814 37.2578 28.2993C37.5234 28.6172 37.9963 28.6596 38.3142 28.394L37.3525 27.2429ZM39.78 26.1921L39.3343 25.5889C39.3223 25.5978 39.3106 25.607 39.2992 25.6165L39.78 26.1921ZM41.2898 26.3208L41.8371 25.808L41.836 25.8068L41.2898 26.3208ZM41.1756 27.8184L40.7082 27.2319C40.6913 27.2454 40.6749 27.2597 40.6591 27.2747L41.1756 27.8184ZM38.7907 29.0494C38.4904 29.3347 38.4782 29.8094 38.7634 30.1098C39.0487 30.4101 39.5234 30.4223 39.8238 30.137L38.7907 29.0494ZM37.0964 29.6493C37.0964 29.2351 36.7607 28.8993 36.3464 28.8993C35.9322 28.8993 35.5964 29.2351 35.5964 29.6493H37.0964ZM35.5964 49.4953C35.5964 49.9095 35.9322 50.2453 36.3464 50.2453C36.7607 50.2453 37.0964 49.9095 37.0964 49.4953H35.5964ZM35.4171 49.25C35.0029 49.25 34.6671 49.5858 34.6671 50C34.6671 50.4142 35.0029 50.75 35.4171 50.75V49.25ZM40.0344 50.75C40.4486 50.75 40.7844 50.4142 40.7844 50C40.7844 49.5858 40.4486 49.25 40.0344 49.25V50.75ZM38.3167 39.5936C38.1973 39.197 37.779 38.9722 37.3823 39.0917C36.9857 39.2111 36.761 39.6294 36.8804 40.026L38.3167 39.5936ZM40.6539 49.9571V50.7071C40.8911 50.7071 41.1144 50.5949 41.2559 50.4045C41.3974 50.2141 41.4405 49.968 41.3721 49.7409L40.6539 49.9571ZM19.4328 49.9571L18.7149 49.7401C18.6462 49.9673 18.6891 50.2136 18.8306 50.4042C18.9721 50.5948 19.1954 50.7071 19.4328 50.7071V49.9571ZM23.124 37.748L22.4074 37.5267L22.4061 37.531L23.124 37.748ZM23.1794 37.593L23.8605 37.9071C23.8653 37.8966 23.8699 37.886 23.8743 37.8753L23.1794 37.593ZM35.6844 36.941C35.9328 37.2724 36.4029 37.3397 36.7343 37.0913C37.0658 36.8428 37.133 36.3727 36.8846 36.0413L35.6844 36.941ZM30.7931 34.1066C30.8043 33.6925 30.4777 33.3478 30.0637 33.3366C29.6496 33.3253 29.3049 33.6519 29.2936 34.066L30.7931 34.1066ZM21.6294 43.2234C21.2154 43.2366 20.8905 43.583 20.9038 43.997C20.917 44.411 21.2634 44.7359 21.6774 44.7226L21.6294 43.2234ZM31.2408 34.5311C31.1895 34.1201 30.8147 33.8285 30.4037 33.8798C29.9927 33.9311 29.7011 34.3059 29.7524 34.7169L31.2408 34.5311ZM35.9585 44.3516C36.3316 44.5316 36.7799 44.3751 36.96 44.002C37.14 43.629 36.9835 43.1806 36.6104 43.0006L35.9585 44.3516ZM48.5467 15.6361L48.0712 16.2161C48.2262 16.3431 48.4255 16.4029 48.6248 16.382C48.8241 16.3611 49.0068 16.2614 49.1321 16.105L48.5467 15.6361ZM45.4079 13.0628L44.8225 12.5939C44.5656 12.9146 44.6146 13.3822 44.9324 13.6428L45.4079 13.0628ZM47.8611 10L48.3366 9.42C48.1817 9.29295 47.9823 9.23321 47.783 9.25408C47.5837 9.27496 47.4011 9.37472 47.2758 9.53112L47.8611 10ZM51 12.5733L51.5854 13.0422C51.8422 12.7215 51.7933 12.2538 51.4755 11.9933L51 12.5733ZM50.3713 19.5189C50.6102 19.8573 51.0782 19.9379 51.4166 19.6991C51.755 19.4602 51.8357 18.9922 51.5968 18.6538L50.3713 19.5189ZM48.5483 15.6357L49.161 15.2032C49.1221 15.1482 49.076 15.0986 49.0239 15.0559L48.5483 15.6357ZM45.4114 13.0626L45.8871 12.4828C45.8309 12.4367 45.7683 12.399 45.7012 12.3709L45.4114 13.0626ZM42.072 10.8501C41.69 10.69 41.2505 10.87 41.0904 11.252C40.9303 11.634 41.1103 12.0735 41.4923 12.2336L42.072 10.8501ZM48.5077 17.8689C48.9194 17.9147 49.2903 17.6181 49.336 17.2064C49.3818 16.7948 49.0852 16.4239 48.6736 16.3781L48.5077 17.8689ZM45.6559 16.0052L46.143 15.4349L46.1421 15.4341L45.6559 16.0052ZM44.7668 13.1764C44.642 12.7815 44.2206 12.5625 43.8257 12.6873C43.4307 12.8121 43.2117 13.2334 43.3365 13.6284L44.7668 13.1764ZM41.9107 15.3671C42.2798 15.1791 42.4265 14.7274 42.2385 14.3584C42.0504 13.9893 41.5988 13.8426 41.2297 14.0306L41.9107 15.3671ZM35.8885 16.7522C35.5195 16.9402 35.3727 17.3919 35.5608 17.7609C35.7489 18.13 36.2005 18.2767 36.5696 18.0887L35.8885 16.7522ZM48.9234 19.8887C49.044 19.4924 48.8205 19.0734 48.4243 18.9528C48.028 18.8321 47.609 19.0556 47.4884 19.4518L48.9234 19.8887ZM42.5679 35.6163C42.4473 36.0125 42.6707 36.4316 43.067 36.5522C43.4632 36.6728 43.8822 36.4493 44.0029 36.0531L42.5679 35.6163ZM11 12.9152L10.5245 12.3352C10.2067 12.5957 10.1578 13.0634 10.4146 13.3841L11 12.9152ZM14.1389 10.3419L14.7242 9.87302C14.5989 9.71662 14.4163 9.61686 14.217 9.59598C14.0177 9.5751 13.8183 9.63485 13.6634 9.7619L14.1389 10.3419ZM16.5921 13.4047L17.0676 13.9847C17.3854 13.7241 17.4344 13.2565 17.1775 12.9358L16.5921 13.4047ZM13.4533 15.978L12.8679 16.4469C12.9932 16.6033 13.1759 16.703 13.3752 16.7239C13.5745 16.7448 13.7738 16.685 13.9288 16.558L13.4533 15.978ZM10.4042 18.9933C10.1652 19.3316 10.2457 19.7996 10.5839 20.0387C10.9222 20.2777 11.3902 20.1972 11.6293 19.8589L10.4042 18.9933ZM13.4525 15.9788L12.9769 15.3989C12.9249 15.4416 12.8788 15.4911 12.84 15.546L13.4525 15.9788ZM16.5894 13.4057L16.2996 12.714C16.2325 12.7421 16.1699 12.7797 16.1137 12.8258L16.5894 13.4057ZM20.5085 12.5767C20.8905 12.4166 21.0705 11.9771 20.9104 11.5951C20.7503 11.213 20.3108 11.0331 19.9288 11.1932L20.5085 12.5767ZM13.3272 16.7212C12.9156 16.767 12.619 17.1378 12.6647 17.5495C12.7105 17.9612 13.0814 18.2578 13.4931 18.212L13.3272 16.7212ZM16.3448 16.3483L15.8587 15.7772L15.8578 15.7779L16.3448 16.3483ZM18.6643 13.9715C18.7891 13.5765 18.5701 13.1552 18.1751 13.0303C17.7802 12.9055 17.3588 13.1245 17.234 13.5195L18.6643 13.9715ZM20.7749 14.3706C20.4059 14.1823 19.9542 14.3287 19.7659 14.6976C19.5775 15.0666 19.7239 15.5183 20.0929 15.7066L20.7749 14.3706ZM25.4308 18.4315C25.7997 18.6198 26.2514 18.4734 26.4397 18.1045C26.6281 17.7356 26.4817 17.2838 26.1127 17.0955L25.4308 18.4315ZM14.5124 19.7949C14.3918 19.3987 13.9728 19.1752 13.5765 19.2958C13.1803 19.4165 12.9568 19.8355 13.0774 20.2317L14.5124 19.7949ZM17.9979 36.3962C18.1186 36.7924 18.5376 37.0159 18.9338 36.8953C19.3301 36.7746 19.5535 36.3556 19.4329 35.9594L17.9979 36.3962ZM35.4791 28.5013C35.4791 28.8696 35.1862 29.1533 34.8432 29.1533V30.6533C36.031 30.6533 36.9791 29.6816 36.9791 28.5013H35.4791ZM34.8432 29.1533C34.5003 29.1533 34.2074 28.8696 34.2074 28.5013H32.7074C32.7074 29.6816 33.6555 30.6533 34.8432 30.6533V29.1533ZM34.2074 28.5013C34.2074 28.133 34.5003 27.8493 34.8432 27.8493V26.3493C33.6555 26.3493 32.7074 27.321 32.7074 28.5013H34.2074ZM34.8432 27.8493C35.1862 27.8493 35.4791 28.133 35.4791 28.5013H36.9791C36.9791 27.321 36.031 26.3493 34.8432 26.3493V27.8493ZM38.8458 30.1077L35.2394 27.8645L34.4471 29.1382L38.0535 31.3814L38.8458 30.1077ZM32.1987 28.134H27.826V29.634H32.1987V28.134ZM28.1721 28.2186L24.6016 26.3613L23.9094 27.6921L27.4799 29.5493L28.1721 28.2186ZM24.7619 26.4735L21.6772 23.6497L20.6644 24.7561L23.7491 27.5799L24.7619 26.4735ZM21.6787 23.651C20.8202 22.861 19.4876 22.9541 18.739 23.8412L19.8853 24.8087C20.0888 24.5675 20.4388 24.5485 20.6629 24.7548L21.6787 23.651ZM18.7379 23.8425C18.0813 24.624 18.0033 25.7586 18.8152 26.5582L19.8678 25.4895C19.6949 25.3192 19.6561 25.0815 19.8864 24.8074L18.7379 23.8425ZM18.8698 26.6069L22.7273 29.7277L23.6707 28.5615L19.8132 25.4408L18.8698 26.6069ZM22.7881 29.772L27.1608 32.6354L27.9826 31.3806L23.6099 28.5171L22.7881 29.772ZM26.8291 32.113L27.0867 33.934L28.5719 33.7239L28.3143 31.9029L26.8291 32.113ZM35.6656 30.7665L32.2059 30.7335L32.1916 32.2334L35.6513 32.2664L35.6656 30.7665ZM31.4532 31.4015L31.1956 33.7437L32.6866 33.9077L32.9442 31.5655L31.4532 31.4015ZM38.3142 28.394L40.2609 26.7677L39.2992 25.6165L37.3525 27.2429L38.3142 28.394ZM40.2258 26.7953C40.3852 26.6774 40.6203 26.7037 40.7436 26.8347L41.836 25.8068C41.1832 25.1131 40.0944 25.0272 39.3343 25.5889L40.2258 26.7953ZM40.7424 26.8335C40.804 26.8992 40.8237 26.9713 40.8187 27.0359C40.8137 27.1009 40.7826 27.1726 40.7082 27.2319L41.643 28.405C42.4572 27.7562 42.5543 26.5736 41.8371 25.808L40.7424 26.8335ZM40.6591 27.2747L38.7907 29.0494L39.8238 30.137L41.6922 28.3622L40.6591 27.2747ZM31.6933 24.5064C31.6933 25.5306 30.8749 26.346 29.8836 26.346V27.846C31.7197 27.846 33.1933 26.3426 33.1933 24.5064H31.6933ZM29.8836 26.346C28.8923 26.346 28.0739 25.5306 28.0739 24.5064H26.5739C26.5739 26.3426 28.0475 27.846 29.8836 27.846V26.346ZM28.0739 24.5064C28.0739 23.4822 28.8923 22.6668 29.8836 22.6668V21.1668C28.0475 21.1668 26.5739 22.6702 26.5739 24.5064H28.0739ZM29.8836 22.6668C30.8749 22.6668 31.6933 23.4822 31.6933 24.5064H33.1933C33.1933 22.6702 31.7197 21.1668 29.8836 21.1668V22.6668ZM35.5964 29.6493V49.4953H37.0964V29.6493H35.5964ZM35.4171 50.75H40.0344V49.25H35.4171V50.75ZM36.8804 40.026L39.9358 50.1734L41.3721 49.7409L38.3167 39.5936L36.8804 40.026ZM40.6539 49.2071H19.4328V50.7071H40.6539V49.2071ZM20.1507 50.1742L23.8419 37.9651L22.4061 37.531L18.7149 49.7401L20.1507 50.1742ZM23.8406 37.9694C23.8494 37.941 23.8539 37.9264 23.8582 37.914C23.8621 37.9028 23.8628 37.9021 23.8605 37.9071L22.4984 37.2788C22.4512 37.3812 22.4211 37.4824 22.4074 37.5267L23.8406 37.9694ZM23.8743 37.8753C24.5896 36.1145 26.6012 34.8363 28.9706 34.8363V33.3363C26.1096 33.3363 23.4714 34.8819 22.4846 37.3107L23.8743 37.8753ZM28.9706 34.8363H31.1194V33.3363H28.9706V34.8363ZM31.1194 34.8363C33.0374 34.8363 34.7367 35.6768 35.6844 36.941L36.8846 36.0413C35.6215 34.3563 33.4535 33.3363 31.1194 33.3363V34.8363ZM30.0434 34.0863C29.2936 34.066 29.2936 34.0657 29.2937 34.0655C29.2937 34.0654 29.2937 34.0652 29.2937 34.0652C29.2937 34.065 29.2937 34.0651 29.2937 34.0652C29.2936 34.0656 29.2936 34.0665 29.2936 34.0679C29.2935 34.0709 29.2933 34.076 29.293 34.0834C29.2924 34.0981 29.2913 34.1216 29.2896 34.1531C29.2861 34.2163 29.2799 34.3118 29.2691 34.4352C29.2476 34.6823 29.2079 35.0396 29.1358 35.4708C28.9911 36.3368 28.7187 37.483 28.2112 38.6279C27.2033 40.9011 25.3131 43.1053 21.6294 43.2234L21.6774 44.7226C26.1228 44.5801 28.4275 41.8409 29.5824 39.2359C30.1562 37.9417 30.4571 36.6651 30.6153 35.718C30.6947 35.2428 30.739 34.846 30.7634 34.5656C30.7757 34.4253 30.783 34.3138 30.7873 34.2358C30.7895 34.1968 30.7909 34.1661 30.7917 34.1444C30.7922 34.1335 30.7925 34.1249 30.7927 34.1186C30.7928 34.1154 30.7929 34.1128 30.793 34.1108C30.793 34.1098 30.793 34.109 30.793 34.1083C30.7931 34.1079 30.7931 34.1075 30.7931 34.1073C30.7931 34.1069 30.7931 34.1066 30.0434 34.0863ZM30.4966 34.624C29.7524 34.7169 29.7524 34.7172 29.7525 34.7175C29.7525 34.7176 29.7525 34.7179 29.7526 34.7182C29.7526 34.7188 29.7527 34.7194 29.7528 34.7201C29.753 34.7216 29.7532 34.7235 29.7535 34.7258C29.7541 34.7304 29.7549 34.7366 29.756 34.7443C29.7581 34.7598 29.7611 34.7815 29.7652 34.8091C29.7734 34.8643 29.7857 34.9432 29.8031 35.0431C29.8377 35.2428 29.8924 35.5268 29.9738 35.8735C30.1364 36.5656 30.407 37.5147 30.8407 38.5443C31.7018 40.5882 33.2462 43.0427 35.9585 44.3516L36.6104 43.0006C34.3664 41.9178 33.0169 39.8463 32.2231 37.962C31.8294 37.0276 31.5824 36.162 31.4341 35.5306C31.3601 35.2156 31.3112 34.9606 31.281 34.7866C31.2659 34.6997 31.2555 34.6332 31.2491 34.5897C31.2459 34.5679 31.2436 34.5519 31.2423 34.5421C31.2416 34.5371 31.2412 34.5337 31.2409 34.5319C31.2408 34.531 31.2407 34.5304 31.2407 34.5303C31.2407 34.5302 31.2407 34.5303 31.2407 34.5304C31.2408 34.5305 31.2408 34.5306 31.2408 34.5307C31.2408 34.5309 31.2408 34.5311 30.4966 34.624ZM49.0222 15.0561L45.8834 12.4828L44.9324 13.6428L48.0712 16.2161L49.0222 15.0561ZM45.9932 13.5316L48.4465 10.4689L47.2758 9.53112L44.8225 12.5939L45.9932 13.5316ZM47.3856 10.58L50.5245 13.1533L51.4755 11.9933L48.3366 9.42L47.3856 10.58ZM50.4146 12.1044L47.9614 15.1672L49.1321 16.105L51.5854 13.0422L50.4146 12.1044ZM49.0239 15.0559L45.8871 12.4828L44.9357 13.6425L48.0726 16.2156L49.0239 15.0559ZM45.7012 12.3709L42.072 10.8501L41.4923 12.2336L45.1215 13.7543L45.7012 12.3709ZM48.5906 17.1235C48.6736 16.3781 48.6737 16.3781 48.6738 16.3782C48.6739 16.3782 48.674 16.3782 48.6741 16.3782C48.6742 16.3782 48.6744 16.3782 48.6744 16.3782C48.6746 16.3782 48.6747 16.3783 48.6747 16.3782C48.6746 16.3782 48.6741 16.3782 48.6731 16.3781C48.6713 16.3778 48.6677 16.3774 48.6625 16.3768C48.6521 16.3755 48.6352 16.3733 48.6125 16.3701C48.567 16.3637 48.4985 16.3534 48.4119 16.3381C48.238 16.3076 47.9951 16.258 47.7228 16.1829C47.1583 16.027 46.551 15.7833 46.143 15.4349L45.1689 16.5756C45.8271 17.1376 46.6872 17.4531 47.3235 17.6288C47.6516 17.7193 47.9424 17.7786 48.1522 17.8155C48.2575 17.834 48.3432 17.847 48.4041 17.8555C48.4345 17.8598 48.4588 17.863 48.4763 17.8652C48.4851 17.8663 48.4921 17.8671 48.4974 17.8677C48.5 17.868 48.5022 17.8683 48.5039 17.8685C48.5048 17.8686 48.5055 17.8687 48.5062 17.8688C48.5065 17.8688 48.5068 17.8688 48.507 17.8689C48.5072 17.8689 48.5073 17.8689 48.5074 17.8689C48.5076 17.8689 48.5077 17.8689 48.5906 17.1235ZM46.1421 15.4341C45.7205 15.0752 45.3738 14.5295 45.1241 14.028C45.0028 13.7846 44.9118 13.5666 44.8514 13.4106C44.8214 13.3329 44.7993 13.2713 44.7851 13.2305C44.778 13.2102 44.773 13.1951 44.7699 13.1859C44.7684 13.1813 44.7673 13.1781 44.7668 13.1765C44.7666 13.1757 44.7664 13.1753 44.7664 13.1753C44.7664 13.1753 44.7665 13.1754 44.7665 13.1756C44.7665 13.1756 44.7666 13.1758 44.7666 13.1759C44.7667 13.176 44.7667 13.1761 44.7667 13.1762C44.7668 13.1763 44.7668 13.1764 44.0517 13.4024C43.3365 13.6284 43.3366 13.6285 43.3366 13.6287C43.3366 13.6288 43.3367 13.6289 43.3367 13.6291C43.3368 13.6293 43.3369 13.6296 43.337 13.6299C43.3372 13.6305 43.3374 13.6312 43.3377 13.632C43.3382 13.6336 43.3388 13.6356 43.3396 13.6381C43.3412 13.6429 43.3433 13.6494 43.3459 13.6574C43.3512 13.6734 43.3587 13.6956 43.3683 13.7233C43.3876 13.7786 43.4156 13.8564 43.4524 13.9515C43.5258 14.1413 43.6352 14.4033 43.7814 14.6967C44.0664 15.2691 44.5219 16.0247 45.1698 16.5763L46.1421 15.4341ZM41.2297 14.0306L35.8885 16.7522L36.5696 18.0887L41.9107 15.3671L41.2297 14.0306ZM47.4884 19.4518L42.5679 35.6163L44.0029 36.0531L48.9234 19.8887L47.4884 19.4518ZM11.4755 13.4952L14.6144 10.9219L13.6634 9.7619L10.5245 12.3352L11.4755 13.4952ZM13.5535 10.8108L16.0068 13.8735L17.1775 12.9358L14.7242 9.87302L13.5535 10.8108ZM16.1166 12.8247L12.9778 15.398L13.9288 16.558L17.0676 13.9847L16.1166 12.8247ZM14.0386 15.5091L11.5854 12.4463L10.4146 13.3841L12.8679 16.4469L14.0386 15.5091ZM13.9282 16.5587L17.0651 13.9856L16.1137 12.8258L12.9769 15.3989L13.9282 16.5587ZM16.8793 14.0974L20.5085 12.5767L19.9288 11.1932L16.2996 12.714L16.8793 14.0974ZM13.4102 17.4666C13.4931 18.212 13.4932 18.212 13.4934 18.212C13.4935 18.212 13.4936 18.2119 13.4938 18.2119C13.494 18.2119 13.4943 18.2119 13.4946 18.2118C13.4953 18.2118 13.496 18.2117 13.4969 18.2116C13.4986 18.2114 13.5008 18.2111 13.5034 18.2108C13.5087 18.2102 13.5157 18.2093 13.5245 18.2083C13.542 18.2061 13.5663 18.2029 13.5967 18.1986C13.6576 18.1901 13.7433 18.1771 13.8486 18.1586C14.0584 18.1217 14.3492 18.0624 14.6773 17.9718C15.3136 17.7961 16.1737 17.4807 16.8319 16.9186L15.8578 15.7779C15.4498 16.1264 14.8425 16.3701 14.278 16.5259C14.0057 16.6011 13.7628 16.6507 13.5889 16.6812C13.5023 16.6964 13.4338 16.7068 13.3883 16.7132C13.3656 16.7164 13.3487 16.7185 13.3383 16.7199C13.3331 16.7205 13.3295 16.7209 13.3277 16.7212C13.3267 16.7213 13.3262 16.7213 13.3261 16.7213C13.3261 16.7213 13.3262 16.7213 13.3264 16.7213C13.3264 16.7213 13.3266 16.7213 13.3267 16.7213C13.3268 16.7213 13.3269 16.7212 13.327 16.7212C13.3271 16.7212 13.3272 16.7212 13.4102 17.4666ZM16.831 16.9194C17.4789 16.3678 17.9344 15.6121 18.2194 15.0398C18.3656 14.7463 18.475 14.4844 18.5484 14.2946C18.5852 14.1995 18.6132 14.1217 18.6325 14.0663C18.6421 14.0386 18.6496 14.0165 18.6549 14.0005C18.6575 13.9925 18.6596 13.986 18.6612 13.9811C18.662 13.9787 18.6626 13.9767 18.6631 13.9751C18.6634 13.9743 18.6636 13.9736 18.6638 13.973C18.6639 13.9727 18.664 13.9724 18.6641 13.9721C18.6641 13.972 18.6642 13.9718 18.6642 13.9718C18.6642 13.9716 18.6643 13.9715 17.9491 13.7455C17.234 13.5195 17.234 13.5194 17.2341 13.5192C17.2341 13.5192 17.2341 13.5191 17.2342 13.519C17.2342 13.5189 17.2343 13.5187 17.2343 13.5186C17.2343 13.5184 17.2344 13.5184 17.2344 13.5184C17.2344 13.5184 17.2342 13.5188 17.234 13.5196C17.2335 13.5212 17.2324 13.5243 17.2309 13.529C17.2278 13.5382 17.2228 13.5533 17.2157 13.5736C17.2015 13.6144 17.1794 13.6759 17.1494 13.7537C17.089 13.9097 16.998 14.1277 16.8767 14.3711C16.627 14.8726 16.2803 15.4183 15.8587 15.7772L16.831 16.9194ZM20.0929 15.7066L25.4308 18.4315L26.1127 17.0955L20.7749 14.3706L20.0929 15.7066ZM13.0774 20.2317L17.9979 36.3962L19.4329 35.9594L14.5124 19.7949L13.0774 20.2317ZM51.5968 18.6538L49.161 15.2032L47.9355 16.0683L50.3713 19.5189L51.5968 18.6538ZM11.6293 19.8589L14.0651 16.4116L12.84 15.546L10.4042 18.9933L11.6293 19.8589Z"/>
</svg>
