<svg width="60" height="60" viewBox="0 0 60 60" fill="none" xmlns="http://www.w3.org/2000/svg">
<path d="M41.0314 19.6623C41.0314 19.2481 40.6956 18.9123 40.2814 18.9123C39.8672 18.9123 39.5314 19.2481 39.5314 19.6623H41.0314ZM39.5314 49.8496C39.5314 50.2639 39.8672 50.5996 40.2814 50.5996C40.6956 50.5996 41.0314 50.2639 41.0314 49.8496H39.5314ZM37.3571 49.8677C36.9429 49.8677 36.6071 50.2035 36.6071 50.6177C36.6071 51.0319 36.9429 51.3677 37.3571 51.3677V49.8677ZM43.1703 51.3677C43.5845 51.3677 43.9203 51.0319 43.9203 50.6177C43.9203 50.2035 43.5845 49.8677 43.1703 49.8677V51.3677ZM39.5465 23.2359C39.9601 23.2141 40.2777 22.861 40.2559 22.4474C40.2341 22.0338 39.881 21.7162 39.4674 21.738L39.5465 23.2359ZM33.7227 22.7922L33.6832 22.0433C33.2945 22.0638 32.9861 22.3782 32.9731 22.7672L33.7227 22.7922ZM33.4174 31.9249L32.6678 31.8998C32.6659 31.9576 32.6707 32.0154 32.682 32.0721L33.4174 31.9249ZM34.9406 39.5344H35.6906C35.6906 39.485 35.6857 39.4357 35.676 39.3872L34.9406 39.5344ZM30.641 41.3629H31.391C31.391 41.3026 31.3837 41.2426 31.3693 41.184L30.641 41.3629ZM29.452 36.5202L30.1804 36.3413L30.1802 36.3406L29.452 36.5202ZM28.5811 36.578L29.327 36.6567L29.3271 36.656L28.5811 36.578ZM27.9352 42.7029L28.6734 42.8355C28.6766 42.8176 28.6792 42.7996 28.6811 42.7815L27.9352 42.7029ZM26.7623 49.2327L26.0241 49.1001L26.0241 49.1004L26.7623 49.2327ZM24.1819 50.9487L24.0177 51.6805L24.02 51.681L24.1819 50.9487ZM22.543 48.4486L23.2797 48.5897L23.2808 48.5833L22.543 48.4486ZM23.6709 42.2723L24.4087 42.407C24.4154 42.3704 24.4194 42.3333 24.4206 42.296L23.6709 42.2723ZM24.2783 23.0943L25.0279 23.118C25.0363 22.8524 24.9035 22.6021 24.6788 22.4602L24.2783 23.0943ZM18.494 19.4406L17.9705 19.9776C18.008 20.0141 18.0492 20.0467 18.0935 20.0747L18.494 19.4406ZM13.616 14.6846L14.1396 14.1476L14.1395 14.1476L13.616 14.6846ZM13.4875 11.9018L14.0577 12.3889L14.0581 12.3885L13.4875 11.9018ZM16.4021 11.7154L15.8986 12.2713L15.899 12.2716L16.4021 11.7154ZM21.2416 16.0921L20.7385 16.6484C20.7732 16.6798 20.8109 16.7079 20.8508 16.7323L21.2416 16.0921ZM26.0329 19.0164L25.6421 19.6566C25.7598 19.7284 25.895 19.7664 26.0329 19.7664V19.0164ZM34.6385 19.7664C35.0527 19.7664 35.3885 19.4306 35.3885 19.0164C35.3885 18.6022 35.0527 18.2664 34.6385 18.2664V19.7664ZM40.6864 15.5307C40.3604 15.7862 40.3032 16.2576 40.5587 16.5836C40.8142 16.9097 41.2856 16.9669 41.6116 16.7114L40.6864 15.5307ZM43.3021 14.434L43.7646 15.0243L43.7649 15.0241L43.3021 14.434ZM45.8439 14.6621L46.4043 14.1637L46.4039 14.1633L45.8439 14.6621ZM45.6511 17.3261L46.1329 17.9009L46.1335 17.9004L45.6511 17.3261ZM44.276 17.5C43.9585 17.7661 43.9169 18.2391 44.1829 18.5566C44.449 18.8741 44.9221 18.9157 45.2395 18.6497L44.276 17.5ZM41.6524 21.1847C42.0051 21.4018 42.4671 21.2919 42.6842 20.9392C42.9014 20.5865 42.7915 20.1245 42.4388 19.9073L41.6524 21.1847ZM38.618 17.5551C38.2652 17.3379 37.8032 17.4478 37.5861 17.8006C37.3689 18.1533 37.4788 18.6153 37.8316 18.8324L38.618 17.5551ZM33.294 12.8369C33.294 14.5417 31.912 15.9238 30.2072 15.9238V17.4238C32.7404 17.4238 34.794 15.3702 34.794 12.8369H33.294ZM30.2072 15.9238C28.5023 15.9238 27.1203 14.5417 27.1203 12.8369H25.6203C25.6203 15.3702 27.6739 17.4238 30.2072 17.4238V15.9238ZM27.1203 12.8369C27.1203 11.132 28.5023 9.75 30.2072 9.75V8.25C27.6739 8.25 25.6203 10.3036 25.6203 12.8369H27.1203ZM30.2072 9.75C31.912 9.75 33.294 11.132 33.294 12.8369H34.794C34.794 10.3036 32.7404 8.25 30.2072 8.25V9.75ZM39.5314 19.6623V49.8496H41.0314V19.6623H39.5314ZM37.3571 51.3677H43.1703V49.8677H37.3571V51.3677ZM39.4674 21.738L33.6832 22.0433L33.7622 23.5412L39.5465 23.2359L39.4674 21.738ZM32.9731 22.7672L32.6678 31.8998L34.167 31.95L34.4723 22.8173L32.9731 22.7672ZM32.682 32.0721L34.2052 39.6816L35.676 39.3872L34.1528 31.7777L32.682 32.0721ZM34.1906 39.5344V48.651H35.6906V39.5344H34.1906ZM34.1906 48.651C34.1906 49.4233 33.5648 50.0508 32.7908 50.0508V51.5508C34.3947 51.5508 35.6906 50.2503 35.6906 48.651H34.1906ZM32.7908 50.0508C32.0185 50.0508 31.391 49.4251 31.391 48.651H29.891C29.891 50.255 31.1915 51.5508 32.7908 51.5508V50.0508ZM31.391 48.651V41.3629H29.891V48.651H31.391ZM31.3693 41.184L30.1804 36.3413L28.7236 36.699L29.9126 41.5417L31.3693 41.184ZM30.1802 36.3406C29.862 35.0507 27.9749 35.1642 27.8352 36.5L29.3271 36.656C29.3206 36.7179 29.2864 36.796 29.2191 36.8556C29.1593 36.9084 29.0944 36.9287 29.0418 36.9323C28.989 36.9358 28.9222 36.9244 28.8564 36.8803C28.7821 36.8308 28.7384 36.7588 28.7238 36.6998L30.1802 36.3406ZM27.8353 36.4994L27.1894 42.6242L28.6811 42.7815L29.327 36.6567L27.8353 36.4994ZM27.197 42.5703L26.0241 49.1001L27.5005 49.3653L28.6734 42.8355L27.197 42.5703ZM26.0241 49.1004C25.8843 49.8806 25.1222 50.3884 24.3438 50.2163L24.02 51.681C25.626 52.0359 27.2097 50.9884 27.5006 49.3649L26.0241 49.1004ZM24.3461 50.2169C23.6099 50.0516 23.1374 49.3324 23.2796 48.5897L21.8064 48.3075C21.5117 49.8463 22.4916 51.338 24.0177 51.6805L24.3461 50.2169ZM23.2808 48.5833L24.4087 42.407L22.9332 42.1375L21.8052 48.3138L23.2808 48.5833ZM24.4206 42.296L25.0279 23.118L23.5287 23.0705L22.9213 42.2485L24.4206 42.296ZM24.6788 22.4602L18.8946 18.8065L18.0935 20.0747L23.8778 23.7284L24.6788 22.4602ZM19.0176 18.9036L14.1396 14.1476L13.0924 15.2216L17.9705 19.9776L19.0176 18.9036ZM14.1395 14.1476C13.6534 13.6737 13.6179 12.9037 14.0577 12.3889L12.9172 11.4146C11.9624 12.5323 12.0425 14.1981 13.0924 15.2217L14.1395 14.1476ZM14.0581 12.3885C14.5285 11.8369 15.3599 11.7834 15.8986 12.2713L16.9055 11.1595C15.7411 10.1049 13.9374 10.2185 12.9168 11.4151L14.0581 12.3885ZM15.899 12.2716L20.7385 16.6484L21.7446 15.5359L16.9051 11.1591L15.899 12.2716ZM20.8508 16.7323L25.6421 19.6566L26.4236 18.3762L21.6323 15.4519L20.8508 16.7323ZM26.0329 19.7664H34.6385V18.2664H26.0329V19.7664ZM41.6116 16.7114L43.7646 15.0243L42.8395 13.8436L40.6864 15.5307L41.6116 16.7114ZM43.7649 15.0241C44.2272 14.6615 44.8913 14.7203 45.2839 15.161L46.4039 14.1633C45.4854 13.1322 43.9258 12.9917 42.8392 13.8438L43.7649 15.0241ZM45.2835 15.1606C45.7005 15.6294 45.648 16.3492 45.1687 16.7518L46.1335 17.9004C47.2609 16.9534 47.382 15.263 46.4043 14.1637L45.2835 15.1606ZM45.1693 16.7513L44.276 17.5L45.2395 18.6497L46.1329 17.9009L45.1693 16.7513ZM38.9433 18.1937C38.9433 18.5906 38.6216 18.9123 38.2248 18.9123V20.4123C39.45 20.4123 40.4433 19.419 40.4433 18.1937H38.9433ZM38.2248 18.9123C37.8279 18.9123 37.5062 18.5906 37.5062 18.1937H36.0062C36.0062 19.419 36.9995 20.4123 38.2248 20.4123V18.9123ZM37.5062 18.1937C37.5062 17.7969 37.8279 17.4752 38.2248 17.4752V15.9752C36.9995 15.9752 36.0062 16.9685 36.0062 18.1937H37.5062ZM38.2248 17.4752C38.6216 17.4752 38.9433 17.7969 38.9433 18.1937H40.4433C40.4433 16.9685 39.45 15.9752 38.2248 15.9752V17.4752ZM42.4388 19.9073L38.618 17.5551L37.8316 18.8324L41.6524 21.1847L42.4388 19.9073Z" />
</svg>
