<svg xmlns="http://www.w3.org/2000/svg" width="60" height="60" viewBox="0 0 60 60" fill="none">
    <path
        d="M40.3107 44.1047C40.2681 43.919 40.192 43.7486 40.1008 43.5873C40.4538 43.3621 40.7946 43.1248 41.1263 42.8783C41.598 43.42 42.3648 43.7091 43.15 43.56C44.2698 43.3469 44.991 42.3305 44.7598 41.2898C44.6593 40.8333 44.3855 40.456 44.0203 40.1851C44.142 40.0421 44.2637 39.9021 44.3794 39.7561C44.7811 39.9447 45.2497 40.0208 45.7244 39.9295C46.8443 39.7165 47.5655 38.7001 47.3342 37.6594C47.2186 37.139 46.8839 36.7099 46.4396 36.4391C46.6191 36.0526 46.7834 35.66 46.9325 35.2583C47.1638 35.2888 47.4012 35.2918 47.6446 35.2462C48.7645 35.0331 49.4857 34.0167 49.2544 32.976C49.0962 32.2609 48.5241 31.7314 47.8242 31.5336C47.8637 31.1836 47.885 30.8276 47.9002 30.4715C47.9094 30.4715 47.9216 30.4715 47.9307 30.4715C49.0749 30.4715 50 29.6103 50 28.5513C50 27.9731 49.72 27.4619 49.2849 27.1089C48.9106 26.7559 48.3902 26.5368 47.815 26.5368C47.7329 26.5368 47.6568 26.552 47.5777 26.5581C47.4864 26.1229 47.3738 25.6938 47.2429 25.2708C48.0555 25.0122 48.6428 24.3031 48.6428 23.4602C48.6428 22.3981 47.7177 21.54 46.5735 21.54C46.2539 21.54 45.9527 21.613 45.6849 21.7347C45.4749 21.3787 45.2467 21.0348 45.0093 20.694C45.4566 20.341 45.7457 19.8237 45.7457 19.2333C45.7457 18.1713 44.8206 17.3131 43.6764 17.3131C43.1834 17.3131 42.7361 17.4805 42.38 17.7483C42.2401 17.6235 42.1001 17.4987 41.954 17.377C42.2492 17.0453 42.4348 16.6254 42.4348 16.1598C42.4348 15.0977 41.5097 14.2396 40.3655 14.2396C39.6169 14.2396 38.9687 14.6108 38.6066 15.1616C38.2232 14.9638 37.8306 14.7812 37.4289 14.6108C37.4532 14.4891 37.4685 14.3643 37.4685 14.2396C37.4685 13.1775 36.5434 12.3194 35.3991 12.3194C34.5714 12.3194 33.8624 12.7728 33.5307 13.424C33.0194 13.3266 32.4991 13.2536 31.9726 13.1988C31.9726 13.1623 31.9848 13.1258 31.9848 13.0862C31.9848 12.0242 31.0597 11.166 29.9155 11.166C28.7712 11.166 27.8461 12.0272 27.8461 13.0862C27.8461 13.1258 27.8553 13.1593 27.8583 13.1988C27.3958 13.2475 26.9393 13.3114 26.4889 13.3936C26.1511 12.7606 25.4542 12.3194 24.6387 12.3194C23.4945 12.3194 22.5694 13.1806 22.5694 14.2396C22.5694 14.34 22.5846 14.4343 22.5998 14.5287C22.1859 14.6991 21.7782 14.8817 21.3826 15.0795C21.0113 14.5713 20.3844 14.2396 19.6723 14.2396C18.5281 14.2396 17.603 15.1008 17.603 16.1598C17.603 16.5797 17.7521 16.9631 17.9956 17.2796C17.8434 17.4044 17.6943 17.5322 17.5452 17.6631C17.2105 17.444 16.8027 17.3131 16.3614 17.3131C15.2172 17.3131 14.2921 18.1743 14.2921 19.2333C14.2921 19.7628 14.5234 20.2406 14.8946 20.5875C14.6451 20.9374 14.4108 21.2965 14.1886 21.6648C13.9635 21.5856 13.72 21.5369 13.4644 21.5369C12.3202 21.5369 11.3951 22.3981 11.3951 23.4571C11.3951 24.2331 11.8941 24.8996 12.6062 25.2009C12.4723 25.6391 12.3536 26.0834 12.2563 26.5337C12.2441 26.5337 12.2319 26.5307 12.2228 26.5307C11.0786 26.5307 10.1535 27.3919 10.1535 28.4509C10.1535 29.0291 10.4334 29.5403 10.8686 29.8933C11.1516 30.1611 11.5198 30.3498 11.9307 30.4259C11.9428 30.718 11.9611 31.0102 11.9885 31.2992C10.9964 31.3327 10.1443 32.0235 10.0165 32.9699C9.87351 34.0228 10.6739 34.9845 11.8089 35.1184C12.1619 35.161 12.4997 35.1092 12.8101 34.9966C12.9471 35.3831 13.0962 35.7605 13.2605 36.1317C12.7614 36.4269 12.3993 36.9107 12.3171 37.5011C12.1741 38.554 12.9744 39.5157 14.1095 39.6496C14.5143 39.6982 14.9068 39.6282 15.2507 39.4791C15.3785 39.6435 15.5063 39.8078 15.6402 39.9691C15.4028 40.2399 15.2355 40.5686 15.1837 40.9398C15.0407 41.9927 15.8411 42.9544 16.9761 43.0883C17.5361 43.1552 18.0747 43.0061 18.4916 42.7109C18.9268 43.0426 19.3772 43.3561 19.8427 43.6482M23.0807 41.1162V43.4838M23.5157 30.6512V34.2086M27.2097 30.1794C27.2097 31.211 26.3729 32.0448 25.3443 32.0448C24.3157 32.0448 23.4789 31.208 23.4789 30.1794M35.9167 30.1794C35.9167 31.211 35.0799 32.0448 34.0513 32.0448C33.0227 32.0448 32.1859 31.208 32.1859 30.1794M32.1856 30.8031C32.1856 32.1786 31.0718 33.2924 29.6963 33.2924C28.3208 33.2924 27.207 32.1786 27.207 30.8031M36.2543 40.6629V43.4017M36.1936 30.5689V34.1263M27.2347 34.2844H22.6852C21.5258 34.2844 20.5885 35.2247 20.5885 36.3811V37.9605C20.5885 38.77 21.0572 39.5094 21.7875 39.8564L23.6864 40.7541C23.9664 40.888 24.2737 40.9549 24.5841 40.9549H25.1867C25.8135 40.9549 26.4069 40.675 26.8026 40.1941L28.8506 37.714C29.2097 37.2788 29.3801 36.7159 29.3192 36.1529C29.2036 35.0878 28.3059 34.2814 27.2347 34.2814V34.2844ZM32.7211 34.1598H37.1214C38.2413 34.1598 39.1512 35.0666 39.1512 36.1895V37.7172C39.1512 38.5023 38.7008 39.2144 37.9917 39.5491L36.1567 40.4194C35.8859 40.5473 35.5877 40.6142 35.2895 40.6142H34.7052C34.0996 40.6142 33.5275 40.3434 33.141 39.8778L31.16 37.4798C30.813 37.0568 30.6487 36.5121 30.7065 35.9704C30.8191 34.9418 31.6864 34.1598 32.7241 34.1598H32.7211ZM19.9613 45.8545C19.9613 45.8545 21.0782 48.8337 24.0574 48.8337C27.0366 48.8337 29.6963 42.2301 29.6963 42.2301L26.5497 42.3032C26.5497 42.3032 25.9197 48.0912 19.9613 45.8545ZM39.7201 45.7784C39.7201 45.7784 38.6033 48.7576 35.6241 48.7576C32.6449 48.7576 29.9852 42.154 29.9852 42.154L33.1318 42.2271C33.1318 42.2271 33.7617 48.0151 39.7201 45.7784Z"
         stroke-linecap="round" stroke-linejoin="round" />
</svg>