<svg width="40" height="40" viewBox="0 0 40 40" fill="none" xmlns="http://www.w3.org/2000/svg">
<path d="M15.8233 22.3239C14.2788 21.7043 13.1797 20.1884 13.1797 18.4298V6.19381C13.1797 3.88707 15.0668 2 17.3735 2H22.615C24.9218 2 26.8089 3.88707 26.8089 6.19381V18.427C26.8089 20.0628 25.8582 21.4874 24.485 22.1783" stroke="#4D4D4D" stroke-linecap="round" stroke-linejoin="round"/>
<path d="M16.6797 2.69922V9.33966" stroke="#4D4D4D" stroke-linecap="round" stroke-linejoin="round"/>
<path d="M20 2.69922V9.33966" stroke="#4D4D4D" stroke-linecap="round" stroke-linejoin="round"/>
<path d="M23.3203 2.69922V9.33966" stroke="#4D4D4D" stroke-linecap="round" stroke-linejoin="round"/>
<path d="M18.0808 11.4385H13.1875V13.8851H18.0808V11.4385Z" stroke="#4D4D4D" stroke-linecap="round" stroke-linejoin="round"/>
<path d="M18.0808 15.9805H13.1875V18.4271H18.0808V15.9805Z" stroke="#4D4D4D" stroke-linecap="round" stroke-linejoin="round"/>
<path d="M26.8151 11.4385H21.9219V13.8851H26.8151V11.4385Z" stroke="#4D4D4D" stroke-linecap="round" stroke-linejoin="round"/>
<path d="M26.8151 15.9805H21.9219V18.4271H26.8151V15.9805Z" stroke="#4D4D4D" stroke-linecap="round" stroke-linejoin="round"/>
<path d="M19.9999 26.118C21.8336 26.118 23.3201 24.6315 23.3201 22.7978C23.3201 20.9641 21.8336 19.4775 19.9999 19.4775C18.1662 19.4775 16.6797 20.9641 16.6797 22.7978C16.6797 24.6315 18.1662 26.118 19.9999 26.118Z" stroke="#4D4D4D" stroke-linecap="round" stroke-linejoin="round"/>
<path d="M27.743 17.0283H29.2646V22.9693C29.2646 24.8992 27.7001 26.4637 25.7702 26.4637H14.2366C12.3067 26.4637 10.7422 24.8992 10.7422 22.9693V17.0283H12.5921" stroke="#4D4D4D" stroke-linecap="round" stroke-linejoin="round"/>
<path d="M26.8125 13.1855H29.7873C30.6552 13.1855 31.3575 13.8878 31.3575 14.7557V15.4609C31.3575 16.3288 30.6552 17.0311 29.7873 17.0311H26.8125V13.1855Z" stroke="#4D4D4D" stroke-linecap="round" stroke-linejoin="round"/>
<path d="M13.1875 17.0283H10.2127C9.34484 17.0283 8.64254 16.326 8.64254 15.4581V14.753C8.64254 13.8851 9.34484 13.1828 10.2127 13.1828H13.1875V17.0283Z" stroke="#4D4D4D" stroke-linecap="round" stroke-linejoin="round"/>
<path d="M18.4297 26.1182V34.1575" stroke="#4D4D4D" stroke-linecap="round" stroke-linejoin="round"/>
<path d="M21.5703 26.1182V34.1575" stroke="#4D4D4D" stroke-linecap="round" stroke-linejoin="round"/>
<path d="M16.1667 34.8535H23.8321C25.0939 34.8535 26.116 35.8756 26.116 37.1374V37.9996H13.8828V37.1374C13.8828 35.8756 14.9049 34.8535 16.1667 34.8535Z" stroke="#4D4D4D" stroke-linecap="round" stroke-linejoin="round"/>
</svg>
