<svg width="40" height="40" viewBox="0 0 40 40" fill="none" xmlns="http://www.w3.org/2000/svg">
<path d="M28.4075 18.9081C27.9895 16.9872 26.2818 15.5534 24.2363 15.5534C21.878 15.5534 19.9682 17.4633 19.9682 19.8216C19.9682 22.1798 18.0583 24.0897 15.7001 24.0897C13.3418 24.0897 11.5538 22.3016 11.4375 20.0458C11.4403 19.6582 11.4763 19.2846 11.5316 18.9164V18.9081C12.1599 14.8117 15.6973 11.6729 19.9709 11.6729C24.2446 11.6729 27.782 14.8117 28.4103 18.9081H28.4075Z" stroke="#4D4D4D" stroke-linecap="round" stroke-linejoin="round"/>
<path d="M11.5344 18.916C11.479 19.2841 11.4458 19.6578 11.4403 20.0426C11.4375 19.9678 11.4375 19.8959 11.4375 19.8211C11.4375 19.5111 11.4735 19.2094 11.5344 18.916Z" stroke="#4D4D4D" stroke-linecap="round" stroke-linejoin="round"/>
<path d="M28.5099 20.2093C28.5099 24.9231 24.6874 28.7455 19.9737 28.7455C15.26 28.7455 11.4375 24.9231 11.4375 20.2093C11.4375 20.154 11.4375 20.1014 11.4403 20.046C11.5565 22.2991 13.4193 24.0899 15.7028 24.0899C17.9864 24.0899 19.9709 22.1801 19.9709 19.8218C19.9709 17.4636 21.8808 15.5537 24.239 15.5537C26.2845 15.5537 27.9895 16.9903 28.4103 18.9084V18.9167C28.4656 19.2848 28.4988 19.6585 28.5044 20.0432C28.5071 20.1014 28.5071 20.1567 28.5071 20.2093H28.5099Z" stroke="#4D4D4D" stroke-linecap="round" stroke-linejoin="round"/>
<path d="M37.502 13.81L35.8828 11.5293" stroke="#4D4D4D" stroke-linecap="round" stroke-linejoin="round"/>
<path d="M34.2598 9.24559L32.6406 6.96484" stroke="#4D4D4D" stroke-linecap="round" stroke-linejoin="round"/>
<path d="M9.56453 31.2671L7.94531 28.9863" stroke="#4D4D4D" stroke-linecap="round" stroke-linejoin="round"/>
<path d="M6.33016 26.7056L4.71094 24.4248" stroke="#4D4D4D" stroke-linecap="round" stroke-linejoin="round"/>
<path d="M33.3536 16.6997L31.7344 14.4189" stroke="#4D4D4D" stroke-linecap="round" stroke-linejoin="round"/>
<path d="M30.1114 12.1382L28.4922 9.85742" stroke="#4D4D4D" stroke-linecap="round" stroke-linejoin="round"/>
<path d="M35.1015 15.1655L30.5234 8.43945" stroke="#4D4D4D" stroke-linecap="round" stroke-linejoin="round"/>
<path d="M11.4347 29.9076L6.85938 23.1816" stroke="#4D4D4D" stroke-linecap="round" stroke-linejoin="round"/>
<path d="M7.16909 32.6235L2.59375 25.8975" stroke="#4D4D4D" stroke-linecap="round" stroke-linejoin="round"/>
<path d="M32.9436 23.2207L31.3438 25.5153" stroke="#4D4D4D" stroke-linecap="round" stroke-linejoin="round"/>
<path d="M29.7483 27.8096L28.1484 30.1042" stroke="#4D4D4D" stroke-linecap="round" stroke-linejoin="round"/>
<path d="M37.0686 26.1484L35.4688 28.443" stroke="#4D4D4D" stroke-linecap="round" stroke-linejoin="round"/>
<path d="M33.8655 30.7412L32.2656 33.0358" stroke="#4D4D4D" stroke-linecap="round" stroke-linejoin="round"/>
<path d="M35.0479 24.7148L33.4453 27.0094" stroke="#4D4D4D" stroke-linecap="round" stroke-linejoin="round"/>
<path d="M31.8498 29.3047L30.25 31.5993" stroke="#4D4D4D" stroke-linecap="round" stroke-linejoin="round"/>
<path d="M7.21374 7.42969L2.5 14.1917" stroke="#4D4D4D" stroke-linecap="round" stroke-linejoin="round"/>
<path d="M9.28405 8.87207L4.57031 15.6341" stroke="#4D4D4D" stroke-linecap="round" stroke-linejoin="round"/>
<path d="M11.3544 10.3135L6.64062 17.0727" stroke="#4D4D4D" stroke-linecap="round" stroke-linejoin="round"/>
</svg>
