<svg width="40" height="40" viewBox="0 0 40 40" fill="none" xmlns="http://www.w3.org/2000/svg">
<path d="M9.92188 15.9827C9.92188 10.5589 14.3177 6.16309 19.7415 6.16309C25.1652 6.16309 29.561 10.5589 29.561 15.9827" stroke="#4D4D4D" stroke-linecap="round" stroke-linejoin="round"/>
<path d="M9.92188 16.1465L11.3516 26.0973L14.2494 27.4669L14.9164 32.4587" stroke="#4D4D4D" stroke-linecap="round" stroke-linejoin="round"/>
<path d="M29.5634 16.1465L28.4945 25.9114L25.594 27.281L24.9297 32.2728" stroke="#4D4D4D" stroke-linecap="round" stroke-linejoin="round"/>
<path d="M12.4219 28.3232L13.1053 34.8623H14.9178L18.2475 37.4539H20.0654" stroke="#4D4D4D" stroke-linecap="round" stroke-linejoin="round"/>
<path d="M27.6045 28.3721L26.921 34.9084H25.1086L21.7789 37.5H19.9609" stroke="#4D4D4D" stroke-linecap="round" stroke-linejoin="round"/>
<path d="M12.9823 17.194L13.3896 16.8331C13.9036 16.3793 14.6444 16.2864 15.2568 16.6008L18.2475 18.1453V19.8484C18.2475 20.5701 17.6734 21.1579 16.9544 21.1798L13.7915 21.27C13.0424 21.2919 12.4219 20.6904 12.4219 19.9387V18.4406C12.4219 17.9649 12.6269 17.5084 12.985 17.194H12.9823Z" stroke="#4D4D4D" stroke-linecap="round" stroke-linejoin="round"/>
<path d="M26.7964 17.3063L26.3891 16.9454C25.8752 16.4916 25.1343 16.3987 24.522 16.7131L21.5312 18.2576V19.9607C21.5312 20.6825 22.1053 21.2702 22.8243 21.2921L25.9872 21.3823C26.7363 21.4042 27.3568 20.8027 27.3568 20.051V18.5529C27.3568 18.0772 27.1518 17.6207 26.7937 17.3063H26.7964Z" stroke="#4D4D4D" stroke-linecap="round" stroke-linejoin="round"/>
<path d="M19.9095 21.166L18.5781 23.1398V24.9386C18.5781 25.3076 18.8761 25.6056 19.2452 25.6056H20.7022C21.0713 25.6056 21.3693 25.3076 21.3693 24.9386V23.1398L19.9122 21.166H19.9095Z" stroke="#4D4D4D" stroke-linecap="round" stroke-linejoin="round"/>
<path d="M23.5503 30.4609H16.2812" stroke="#4D4D4D" stroke-linecap="round" stroke-linejoin="round"/>
<path d="M17.25 28.7988V32.4593" stroke="#4D4D4D" stroke-linecap="round" stroke-linejoin="round"/>
<path d="M19.9141 28.7988V32.4593" stroke="#4D4D4D" stroke-linecap="round" stroke-linejoin="round"/>
<path d="M22.5703 28.7988V32.4593" stroke="#4D4D4D" stroke-linecap="round" stroke-linejoin="round"/>
<path d="M7.92849 15.4824L5.5392 16.77C4.3637 17.4015 3.68026 18.6754 3.80328 20.004L4.14773 23.7766C4.28715 25.2911 5.43259 26.5185 6.93341 26.7591L9.25982 27.1336L7.92849 15.4824Z" stroke="#4D4D4D" stroke-linecap="round" stroke-linejoin="round"/>
<path d="M6.17188 14.0418C7.39386 7.47267 13.1566 2.5 20.0784 2.5C27.0002 2.5 32.618 7.34965 33.9384 13.7958" stroke="#4D4D4D" stroke-linecap="round" stroke-linejoin="round"/>
<path d="M32.0735 15.1406L34.4628 16.4282C35.6383 17.0597 36.3217 18.3336 36.1987 19.6622L35.8543 23.4348C35.7149 24.9493 34.5694 26.1767 33.0686 26.4173L30.7422 26.7918L32.0735 15.1406Z" stroke="#4D4D4D" stroke-linecap="round" stroke-linejoin="round"/>
</svg>
