<svg width="60" height="60" viewBox="0 0 60 60" fill="none"
    xmlns="http://www.w3.org/2000/svg">
    <path
        d="M25.0779 10.6125V14.8307L18.484 19.6994L13.5183 18.6691M48.7903 24.9499L44.0105 23.9398M39.4936 17.6789L39.7764 12.5517M25.0835 14.8304L30.6108 17.6789M10.2206 32.9956L16.463 32.6279L20.9075 24.9512L18.4832 19.6986M27.7836 24.5465L20.915 24.9505M17.385 45.5207L21.3123 39.9005L29.9992 39.4965L34.6456 43.1329V49.3591M47.6103 39.4961L41.9214 39.0921L40.7012 31.0113M35.0463 43.1334L41.915 39.093M32.2175 31.0113L29.9953 39.4961M16.4677 32.6282L21.3162 39.9009M50 30C50 41.0457 41.0457 50 30 50C18.9543 50 10 41.0457 10 30C10 18.9543 18.9543 10 30 10C41.0457 10 50 18.9543 50 30ZM39.4946 17.6782H30.6057L27.7774 24.5469L32.2219 31.0115H40.6987L44.0077 23.9408L39.4946 17.6782Z"
        stroke-width="1.5" stroke-linecap="round" stroke-linejoin="round" />
</svg>