<svg width="40" height="40" viewBox="0 0 40 40" fill="none" xmlns="http://www.w3.org/2000/svg">
<path d="M29.0219 32.3418C28.9846 32.1794 28.918 32.0303 28.8382 31.8892C29.147 31.6921 29.4453 31.4844 29.7355 31.2688C30.1482 31.7427 30.8192 31.9957 31.5062 31.8652C32.4861 31.6788 33.1172 30.7895 32.9148 29.8788C32.8269 29.4794 32.5873 29.1492 32.2677 28.9122C32.3743 28.7871 32.4808 28.6646 32.5819 28.5368C32.9334 28.7019 33.3435 28.7685 33.7589 28.6886C34.7388 28.5022 35.3698 27.6128 35.1675 26.7022C35.0663 26.2469 34.7734 25.8714 34.3846 25.6344C34.5417 25.2963 34.6855 24.9528 34.816 24.6013C35.0183 24.6279 35.226 24.6306 35.4391 24.5906C36.4189 24.4042 37.05 23.5149 36.8476 22.6042C36.7092 21.9785 36.2086 21.5152 35.5962 21.3421C35.6308 21.0359 35.6494 20.7244 35.6627 20.4128C35.6707 20.4128 35.6814 20.4128 35.6893 20.4128C36.6905 20.4128 37.5 19.6593 37.5 18.7326C37.5 18.2267 37.255 17.7794 36.8743 17.4705C36.5467 17.1616 36.0914 16.9699 35.5882 16.9699C35.5163 16.9699 35.4497 16.9832 35.3805 16.9886C35.3006 16.6078 35.2021 16.2324 35.0876 15.8622C35.7985 15.6359 36.3124 15.0155 36.3124 14.2779C36.3124 13.3486 35.503 12.5977 34.5018 12.5977C34.2222 12.5977 33.9586 12.6616 33.7243 12.7681C33.5405 12.4566 33.3408 12.1557 33.1331 11.8575C33.5246 11.5486 33.7775 11.096 33.7775 10.5794C33.7775 9.6501 32.968 8.89921 31.9669 8.89921C31.5355 8.89921 31.1441 9.04566 30.8325 9.27998C30.7101 9.17081 30.5876 9.06164 30.4598 8.95513C30.718 8.66489 30.8805 8.29743 30.8805 7.89004C30.8805 6.96075 30.071 6.20986 29.0698 6.20986C28.4148 6.20986 27.8476 6.53471 27.5308 7.01666C27.1953 6.84359 26.8518 6.68382 26.5003 6.53471C26.5216 6.4282 26.5349 6.31903 26.5349 6.20986C26.5349 5.28057 25.7254 4.52968 24.7243 4.52968C24 4.52968 23.3796 4.92643 23.0893 5.49625C22.642 5.41104 22.1867 5.34714 21.726 5.29921C21.726 5.26725 21.7367 5.2353 21.7367 5.20069C21.7367 4.2714 20.9272 3.52051 19.926 3.52051C18.9248 3.52051 18.1154 4.27406 18.1154 5.20069C18.1154 5.2353 18.1234 5.26459 18.126 5.29921C17.7213 5.34181 17.3219 5.39773 16.9278 5.46962C16.6322 4.91578 16.0225 4.52968 15.3089 4.52968C14.3077 4.52968 13.4982 5.28323 13.4982 6.20986C13.4982 6.29773 13.5115 6.38027 13.5248 6.46282C13.1627 6.61193 12.8059 6.77169 12.4597 6.94477C12.1349 6.5001 11.5864 6.20986 10.9633 6.20986C9.96211 6.20986 9.15264 6.96341 9.15264 7.89004C9.15264 8.25749 9.28312 8.593 9.49613 8.86992C9.363 8.97909 9.23252 9.09093 9.10205 9.20542C8.80915 9.01371 8.45235 8.89921 8.06625 8.89921C7.06507 8.89921 6.2556 9.65276 6.2556 10.5794C6.2556 11.0427 6.45797 11.4607 6.78282 11.7643C6.56447 12.0705 6.35944 12.3847 6.16507 12.7069C5.96802 12.6377 5.75501 12.5951 5.53134 12.5951C4.53015 12.5951 3.72069 13.3486 3.72069 14.2752C3.72069 14.9542 4.15737 15.5374 4.78045 15.801C4.66329 16.1844 4.55944 16.5732 4.47424 16.9673C4.46359 16.9673 4.45293 16.9646 4.44495 16.9646C3.44376 16.9646 2.63429 17.7182 2.63429 18.6448C2.63429 19.1507 2.87926 19.598 3.26003 19.9069C3.50767 20.1412 3.82986 20.3063 4.18932 20.3729C4.19998 20.6285 4.21595 20.8841 4.23992 21.1371C3.37187 21.1664 2.62631 21.7708 2.51447 22.5989C2.38932 23.5202 3.08962 24.3616 4.08282 24.4788C4.39169 24.5161 4.68725 24.4708 4.95885 24.3723C5.07867 24.7105 5.20915 25.0406 5.35293 25.3655C4.91625 25.6238 4.59938 26.0471 4.52749 26.5637C4.40234 27.485 5.10264 28.3264 6.09583 28.4436C6.44998 28.4862 6.79347 28.425 7.09436 28.2945C7.20619 28.4383 7.31802 28.5821 7.43518 28.7232C7.22749 28.9602 7.08104 29.2477 7.03578 29.5726C6.91063 30.4939 7.61092 31.3353 8.60412 31.4525C9.09406 31.5111 9.56536 31.3806 9.93016 31.1223C10.3109 31.4125 10.705 31.6868 11.1124 31.9424" stroke="#4D4D4D" stroke-linecap="round" stroke-linejoin="round"/>
<path d="M13.9453 29.7266V31.7982" stroke="#4D4D4D" stroke-linecap="round" stroke-linejoin="round"/>
<path d="M14.3281 20.5703V23.683" stroke="#4D4D4D" stroke-linecap="round" stroke-linejoin="round"/>
<path d="M17.5614 20.1572C17.5614 21.0599 16.8291 21.7895 15.9291 21.7895C15.0291 21.7895 14.2969 21.0572 14.2969 20.1572" stroke="#4D4D4D" stroke-linecap="round" stroke-linejoin="round"/>
<path d="M25.1786 20.1572C25.1786 21.0599 24.4463 21.7895 23.5463 21.7895C22.6463 21.7895 21.9141 21.0572 21.9141 20.1572" stroke="#4D4D4D" stroke-linecap="round" stroke-linejoin="round"/>
<path d="M21.9109 20.7031C21.9109 21.9067 20.9363 22.8812 19.7328 22.8812C18.5292 22.8812 17.5547 21.9067 17.5547 20.7031" stroke="#4D4D4D" stroke-linecap="round" stroke-linejoin="round"/>
<path d="M17.581 23.7488H13.6002C12.5857 23.7488 11.7656 24.5715 11.7656 25.5834V26.9653C11.7656 27.6736 12.1757 28.3207 12.8147 28.6242L14.4763 29.4097C14.7212 29.5269 14.9902 29.5854 15.2618 29.5854H15.789C16.3375 29.5854 16.8568 29.3405 17.2029 28.9198L18.9949 26.7496C19.3091 26.3689 19.4582 25.8763 19.405 25.3837C19.3038 24.4517 18.5183 23.7461 17.581 23.7461V23.7488Z" stroke="#4D4D4D" stroke-linecap="round" stroke-linejoin="round"/>
<path d="M25.4688 29.3301V31.7265" stroke="#4D4D4D" stroke-linecap="round" stroke-linejoin="round"/>
<path d="M25.4219 20.498V23.6108" stroke="#4D4D4D" stroke-linecap="round" stroke-linejoin="round"/>
<path d="M22.3821 23.6396H26.2324C27.2122 23.6396 28.0084 24.4331 28.0084 25.4157V26.7524C28.0084 27.4394 27.6143 28.0624 26.9939 28.3553L25.3883 29.1169C25.1513 29.2287 24.8903 29.2873 24.6294 29.2873H24.1181C23.5883 29.2873 23.0877 29.0503 22.7495 28.6429L21.0161 26.5447C20.7125 26.1746 20.5687 25.6979 20.6193 25.224C20.7178 24.324 21.4767 23.6396 22.3847 23.6396H22.3821Z" stroke="#4D4D4D" stroke-linecap="round" stroke-linejoin="round"/>
<path d="M11.2188 33.8725C11.2188 33.8725 12.196 36.4793 14.8028 36.4793C17.4096 36.4793 19.7368 30.7012 19.7368 30.7012L16.9835 30.7651C16.9835 30.7651 16.4324 35.8296 11.2188 33.8725Z" stroke="#4D4D4D" stroke-linecap="round" stroke-linejoin="round"/>
<path d="M28.5024 33.8061C28.5024 33.8061 27.5252 36.4129 24.9184 36.4129C22.3116 36.4129 19.9844 30.6348 19.9844 30.6348L22.7376 30.6987C22.7376 30.6987 23.2888 35.7632 28.5024 33.8061Z" stroke="#4D4D4D" stroke-linecap="round" stroke-linejoin="round"/>
</svg>
