<svg width="40" height="40" viewBox="0 0 40 40" fill="none" xmlns="http://www.w3.org/2000/svg">
<path d="M11.2887 27.9934C13.8039 27.9934 15.843 25.9543 15.843 23.4391C15.843 20.9238 13.8039 18.8848 11.2887 18.8848C8.7734 18.8848 6.73438 20.9238 6.73438 23.4391C6.73438 25.9543 8.7734 27.9934 11.2887 27.9934Z" stroke="#4D4D4D" stroke-linecap="round" stroke-linejoin="round"/>
<path d="M15.9375 23.313V6.24384C15.9375 5.04597 17.4105 4.5431 18.096 5.50614L21.545 10.3712C21.7632 10.6772 21.7513 11.0994 21.5165 11.3911L19.9249 13.3765" stroke="#4D4D4D" stroke-linecap="round" stroke-linejoin="round"/>
<path d="M22.8512 35.0002C25.3664 35.0002 27.4055 32.9612 27.4055 30.4459C27.4055 27.9306 25.3664 25.8916 22.8512 25.8916C20.3359 25.8916 18.2969 27.9306 18.2969 30.4459C18.2969 32.9612 20.3359 35.0002 22.8512 35.0002Z" stroke="#4D4D4D" stroke-linecap="round" stroke-linejoin="round"/>
<path d="M27.5 29.9692V12.9001C27.5 11.7022 28.973 11.1993 29.6585 12.1624L33.1075 17.0274C33.3257 17.3334 33.3138 17.7556 33.079 18.0474L31.4874 20.0328" stroke="#4D4D4D" stroke-linecap="round" stroke-linejoin="round"/>
</svg>
