<svg xmlns="http://www.w3.org/2000/svg" width="139" height="80" viewBox="0 0 139 80" fill="none">
    <g opacity="0.5">
        <mask id="mask0_404_12048" style="mask-type:alpha" maskUnits="userSpaceOnUse" x="0" y="0"
            width="139" height="80">
            <rect width="139" height="80" rx="10" fill="#ECB0C6" />
        </mask>
        <g mask="url(#mask0_404_12048)">
            <path
                d="M95.9746 25.609C95.9746 25.8038 95.9985 25.9986 95.9985 26.1934C96.1901 26.1934 96.3816 26.2177 96.5731 26.2177C104.509 26.2177 110.937 19.6802 110.937 11.6087C110.937 11.4139 110.913 11.2191 110.913 11.0243C110.722 11.0243 110.53 11 110.339 11C102.402 11 95.9746 17.5375 95.9746 25.609Z"
                stroke="#41A3FF" stroke-width="6" stroke-linecap="round" stroke-linejoin="round" />
            <path
                d="M63.825 15.529L56.4874 22.6266C54.5243 24.5257 54.5004 27.7154 56.4395 29.6389L106.247 79.1269C106.438 79.3095 106.63 79.4921 106.833 79.6504L151.433 116.587C152.57 117.475 154.186 117.366 155.204 116.331C156.233 115.284 156.329 113.604 155.419 112.448L118.923 66.0396C118.791 65.8692 118.647 65.7109 118.504 65.5527L70.5401 15.6508C68.7087 13.7516 65.7162 13.6907 63.813 15.529H63.825Z"
                stroke="#41A3FF" stroke-width="6" stroke-linecap="round" stroke-linejoin="round" />
            <path
                d="M109.731 82.0488L66.5672 117.804C65.43 118.693 63.8141 118.584 62.7966 117.549C61.7672 116.502 61.6714 114.822 62.5812 113.665L96.9829 69.9355"
                stroke="#41A3FF" stroke-width="6" stroke-linecap="round" stroke-linejoin="round" />
            <path
                d="M109.583 56.2773L147.444 16.8695C149.275 14.9703 152.268 14.9095 154.171 16.7478L161.509 23.8453C163.472 25.7445 163.496 28.9341 161.557 30.8576L122.092 70.0828"
                stroke="#41A3FF" stroke-width="6" stroke-linecap="round" stroke-linejoin="round" />
            <path
                d="M110.339 40.218C118.272 40.218 124.703 33.6773 124.703 25.609C124.703 17.5407 118.272 11 110.339 11C102.406 11 95.9746 17.5407 95.9746 25.609C95.9746 33.6773 102.406 40.218 110.339 40.218Z"
                stroke="#41A3FF" stroke-width="6" stroke-linecap="round" stroke-linejoin="round" />
            <path
                d="M124.704 25.6084C116.768 25.6084 110.34 32.1459 110.34 40.2174C118.276 40.2174 124.704 33.6799 124.704 25.6084Z"
                stroke="#41A3FF" stroke-width="6" stroke-linecap="round" stroke-linejoin="round" />
        </g>
    </g>
</svg>